<?xml version="1.0" encoding="utf-8"?>
<!-- Generator: Adobe Illustrator 15.0.2, SVG Export Plug-In . SVG Version: 6.00 Build 0)  -->
<!DOCTYPE svg PUBLIC "-//W3C//DTD SVG 1.1//EN" "http://www.w3.org/Graphics/SVG/1.1/DTD/svg11.dtd">
<svg version="1.1"
	 id="Layer_1" xmlns:dc="http://purl.org/dc/elements/1.1/" xmlns:rdf="http://www.w3.org/1999/02/22-rdf-syntax-ns#" xmlns:cc="http://creativecommons.org/ns#" xmlns:svg="http://www.w3.org/2000/svg"
	 xmlns="http://www.w3.org/2000/svg" xmlns:xlink="http://www.w3.org/1999/xlink" x="0px" y="0px" width="660px" height="426px"
	 viewBox="0 0 660 426" style="enable-background:new 0 0 660 426;" xml:space="preserve">
	<desc>In order to adapt the original Inkscape SVG for the purposes of HeDGe (Heraldic Device Generator),
		the following steps were taken:
		1	Saved as plain SVG in Inkscape.
		2	Opened in Adobe Illustrator.
		3	Styles created (and occasionally consolidated for simplicity) and applied to vector objects of same appearance.
		4	One object from each style given a distinctive ID.
		5	Saved as SVG with CSS properties set to Style Elements, which replaces inline styles with classes,
			defined within a style element, which is enclosed in a defs element.
		6 Style classes given distinct names, and class attributes updated with find and replace,
			using distinctive IDs to match generated style names to vector object classes.
		7	The class describing the objects with main charge colour should be split in two:
			a	a class for the stroke;
			b	a class for the fill, which should be given the name &apos;proper&apos;.
			The &apos;proper&apos; class will be replaced by the appropriate tincture if required.
			SVG elements affected should be assigned both classes, for example:
				class=&quot;proper lion-body&quot;
		8	If there are common style properties, for example if all strokes are the same dark grey,
			then these can be extracted from the various classes and applied to all objects, for example:
				* {stroke:#666666;}
		9 Metadata section added with appropriate descriptive and licensing information.
		10	If SVG element ID attributes are serving no (further) purpose, they should be removed.
			This can be done with XSLT or a regular expression editor. This will clean up the SVG from
			Inkscape/Illustrator, reducing file size and importantly avoid any potential ID conflicts.
			If some ID attributes are necessary (say, for internal XLink references to definitions or symbols),
			then these should be kept but given distinctive names, probably prefixed with the hyphenated charge type.
</desc>
	<defs>
		<style type="text/css" xml:space="preserve">
			* {stroke:#666666;}
			.proper{fill:#D21034;}
			.dragon-detail{stroke-width:1.3783;fill:none;stroke-linejoin:round;}
			.dragon-eye{stroke-width:1.3783;fill:#000000;stroke-linejoin:round;}
			.dragon-loop{fill:#FFFFFF;stroke-width:1.5255;}
			.dragon-body{stroke-width:1.7229;stroke-linejoin:round;}
		</style>	
	</defs>
  <metadata>
    <rdf:RDF xmlns:cc="http://web.resource.org/cc/">
      <cc:Work rdf:about="">
        <dc:title>United Kingdom - Wales - Red Dragon</dc:title>
        <dc:description/>
        <dc:subject>
          <rdf:Bag>
            <rdf:li/>
            <rdf:li>united_kingdom</rdf:li>
            <rdf:li>europe</rdf:li>
            <rdf:li>flag</rdf:li>
            <rdf:li>sign</rdf:li>
          </rdf:Bag>
        </dc:subject>
        <dc:publisher>
          <cc:Agent rdf:about="http://www.openclipart.org">
            <dc:title>Tobias Jakobs</dc:title>
          </cc:Agent>
        </dc:publisher>
        <dc:creator>
          <cc:Agent>
            <dc:title>Tobias Jakobs</dc:title>
          </cc:Agent>
        </dc:creator>
        <dc:rights>
          <cc:Agent>
            <dc:title>Tobias Jakobs</dc:title>
          </cc:Agent>
        </dc:rights>
        <dc:date/>
        <dc:format>image/svg+xml</dc:format>
        <dc:type rdf:resource="http://purl.org/dc/dcmitype/StillImage"/>
        <cc:license rdf:resource="http://web.resource.org/cc/PublicDomain"/>
        <dc:language>en</dc:language>
      </cc:Work>
      <cc:License rdf:about="http://web.resource.org/cc/PublicDomain">
        <cc:permits rdf:resource="http://web.resource.org/cc/Reproduction"/>
        <cc:permits rdf:resource="http://web.resource.org/cc/Distribution"/>
        <cc:permits rdf:resource="http://web.resource.org/cc/DerivativeWorks"/>
      </cc:License>
    </rdf:RDF>
  </metadata>
	<path class="proper dragon-body" d="M461.281,0.562c-52.282,28.904-99.065,58.982-145.062,97.312c-22.061,19.27-15.835,34.631-16.688,51.938
	c0.711,11.618-2.512,22.427-9.656,28.937c-16.35,3.307-32.714,6.632-49.062,9.938c-1.566-4.522-3.121-9.041-4.688-13.562
	c1.495-6.939,7.231-10.352,19.312-6c0.952-8.923-6.228-12.555-14.625-15.656c-2.885-2.246-6.468-3.972-6-11.688
	c-1.412-17.467,26.615,1.25,26.875,1.25c0.261,0-0.935-17.627-13.812-21.156c-7.021-2.485-9.993-9.892-7.312-15.375
	c5.618-11.209,16.192,0.878,24.28,1.312c-0.303-7.317-2.387-12.531-8.688-18.438c-3.392-2.087-11.722-3.657-11.938-7.156
	c-0.178-4.752,7.808-6.784,18.78-5.469c-2.288-6.66-9.668-10.968-19.812-14.094c-2-3.479-4-6.959-6-10.438
	c-2.841-5.26-4.115-5.402,2.469-15.375c5.915-3.827,13.773-9.236,19.688-13.062c-2.175-0.261-4.355-0.521-6.53-0.781
	c0.869-7.131,0.969-9.531,2.625-21.375c-6.347,8.672-14.275,7.122-21.406,10.688c0,0-20.33,3.609-26.875,12.25
	c-0.261,0-51.125-2.594-51.125-2.594c-10.84,1.51-20.099,4.582-21.906,15.125c-24.792,2.502-50.755,0.289-69.656,24
	c12.87-0.609,24.136-3.674,38.594-1.812c0,0,12.321,0.232,14.875,13.281c0.261,0.521,4.188,0.531,4.188,0.531
	c1.566,1.217,3.122,2.439,4.688,3.656c0.609-1.652,1.204-3.317,1.812-4.969c1.392,0.957,2.795,1.918,4.188,2.875
	c0.434-1.826,0.878-3.643,1.312-5.469c1.392,0.957,2.764,1.918,4.156,2.875c0.087-2.174,0.428-4.357,0.515-6.531
	c1.827,1.304,3.702,2.602,5.702,3.906v-8.594c0,0,19.958-0.047,26.111,12.781c0.262,0.261-56.786,10.463-111.773,5.75
	c5.306-2.609,10.543-5.235,15.848-7.844c-20.05-4.076-38.929-7.761-56.623-21.656c6.677,25.137,41.167,54.663,48.235,54.531
	c0,0.261-6.788-12.25-6.788-12.25c19.916,0.87,39.831,1.725,59.746,2.594c2.175,6.61,1.211,14.02,6.529,19.844
	c0,0-3.3,10.925,4.03,15.375c0.262,0.521,8.75-22.156,8.75-22.156s2.599,6.1,5.218,10.156c3.795-19.508,25.031-22.688,25.031-22.688
	s4.438,10.177,4.438,10.438c-6.636,0.96-14.891,14.486-10.438,21.906c-4.45,0.085-12.351,13.186-9.906,20.344
	c-3.741,3.723-13.059,8.687-10.688,24.281c-7.334,1.572-11.676,14.99-9.406,29.219c-11.349,10.564-8.563,29.956,1.562,37.812
	c-4.203,3.74-6.79,6.615-6.781,11.219c-3.996-1.484-7.679-0.244-9.406,2.375c-4.898-5.021-11.933-9.418-16.938-4.719
	c-1.296-5.939-9.032-12.476-17.5-11.719c0.496-6.265-2.755-14.019-11.719-16.72c0,0-1.814-29.356-10.719-38.875
	c-0.873-5.326,0.51-8.947,7.844-13.312c7.323-3.906,8.879-6.935,8.344-18c2.887-7.396,5.081-14.937-3.906-20.062
	c0.271,8.795-2.429,13.031-6,16.938c-4.266-0.621-5.755,4.357-8.625,6.531c-4.016-5.413,8.472-13.799-0.781-25.844
	c-0.521-0.523-6.459-15.723-21.125-15.375c6.971,4.082,9.919,10.951,9.906,18c-4.624,13.045-6.974,23.127-2.344,38.094
	c-6.093-9.129-9.549-26.482-14.594-29.5c-4.422-0.863-6.582-11.322-23.75-8.344c7.406,1.992,9.757,7.647,11.75,12.781
	c-4.541,2.342-2.285,8.52,1.031,12.781c-0.63,10.015,5.37,15.866,14.344,19.593c-1.478,13.653-2.959,27.284-4.438,40.938
	c-3.565-0.455-9.051,13.426-11.219,13.844c-3.489,2.172-9.581,8.01-2.594,9.656C13.08,247.053,11.155,251.568,0,253.122
	c0,0,11.787,6.992,21.562-4.97c10.474-0.262,7.03-12.752,12.094-18.25c0-0.26,2.875-2.063,7.062-13.062
	c1.832,9.819,11.908,39.89,34.688,54.812c19.856,21.257,36.175,41.33,36,69.656c7.75-7.209,12.378-18.625,15.938-29.5
	c10.777-3.748,26.191-5.18,39.938-4.562c-2.358,4.961-4.997,9.724-1.594,12.938c-9.593,3.295-11.695,10.258-7.844,17.219
	c-10.112,6.867-10.777,11.281-10.938,22.688c-18.708,23.985-30.249,23.189-48.781,16.969c-6.086-3.57-15.505-8.713-19.844-6
	c-8.004-5.334-19.512-6.127-21.406,6c6.006-4.978,9.592-4.018,14.375,0.781c-0.962,2.438-1.766,4.862,1.812,6.25
	c-1.566,1.74-3.122,3.48-4.688,5.219c-8.613-1.324-20.194-1.25-23.219,11.22c4.424-3.664,14.24-4.525,22.156-1.031
	c1.479,0.523,2.958,1.039,4.438,1.562c0.174,2,0.358,4,0.531,6c0,0-11.732-1.811-14.875,17.22c11-11.701,18.781-8.625,18.781-8.625
	c4.239,6.205,19.84,5.271,31.062-4.938c15.762-8.812,20.357,3.853,30.531-4.438c8.436-6.291,18.417-2.107,25.281,5.219
	c7.915,2.969,16.2,5.414,22.719,0c0,0,7.963-5.08,15.906,3.125c0.087-9.252-6.47-14.168-15.375-14.344
	c-0.87-0.869-0.359,0.34-2.625-2.625c-8.349-1.74-17.73-1.033-25.031-5.219c3.442-13.064,8.457-24.903,18.25-34.97
	c12.088-12.957,20.987-18.85,36.25-38.688c-0.589,11.212,8.003,23.677,12.531,35.062c0,0,9.115-14.555,10.438-26.375
	c0.26,0,11.424-5.81,16.188-10.75c10.056,6.237,26.445-4.992,37.03-14.281c6.525,2.472,11.479,2.293,19.062,0
	c-6.088,12.392,3.521,23.885,18.781,28.688c1.411,10.938,12.459,13.229,29.219,13.312c0.706,6.438,10.688,7.312,10.688,7.312
	c-6.307,2.939-9.595,5.887-9.375,12.531c-6.465,0.045-11.359,1.672-13.062,9.125c-8.876,0.152-17.922,0.834-25.562,5.219
	c-8.175-1.27-18.12-4.656-24.53-11.219c-3.307-2.783-4.131-6.795-9.906-8.344c-3.66-4.326-8.039-3.36-9.406,0.78
	c-3.783-2.954-17.972-4.327-20.344,9.125c6.624-4.848,12.562-6.694,16.719-0.78c-2.264,4.106,5.517,6.455,12.25,8.094
	c4.776,0.297,13.247,4.646,15.906,12c-6.16,1.869-15.496,1.254-21.656-3.406c-5.476-4.582-12.872-4.035-16.938-1.031
	c-5.641-3.596-19.07,3.193-19.595,14.062c5.658-5.184,10.81-7.691,15.938-4.406c-2.553,0.607-1.582,0.855-1.312,2.344
	c4.349,2.523,8.685,5.041,13.031,7.562c-6.394,1.688-12.405,4.237-9.625,16.155c0,0,5.209-10.295,16.938-6.5
	c0.261-0.26,1.616,3.679,4.969,1.031c5.076-5.774,16.682-8.36,26.875-9.375c8.18-0.977,16.347-3.387,23.469,1.281
	c6.341-3.262,13.401-5.455,20.625-0.25c8.523,2.697,14.745,12.631,25.562,8.094c5.379-3.723,11.989-3.912,18.78,3.656
	c0.083-9.543-7.067-12.742-17.219-14.875c-2.349-1.393-4.683-2.795-7.031-4.188c-6.521-0.957-13.07,0.199-19.594-2.875
	c34.134-8.824,58.062-27.858,74.906-55.031c5.392,1.914,10.765,3.806,16.156,5.72c3.824,0.246,4.116,1.575,12,3.938
	c0.297-11.613-4.688-23.576-25.562-24.781l-27.406-10.438c-5.816-6.135-8.445-19.151-1.03-26.875
	c7.258-6.463,8.523-5.688,13.312-13.562c5.822-0.529,11.312,5.469,16.688,5.469c2.554,7.588,17.273,14.295,26.625,12
	c5.858,5.188,17.008,8.07,29.219,3.906c6.93,6.066,15.959,8.601,26.594,3.906c2.823,2.823,8.783,5.067,15.656,3.655
	c0.521,0,3.473,7.542,10.969,10.188c-3.268,3.176-1.258,16.967,2.094,21.906c-2.288,5.303-3.009,10.959-1.062,16.438
	c-7.56,4.859-9.098,8.477-5.719,16.688c-9.899,15.906-21.741,17.726-32.875,12.812c-4.002-2.521-7.998-5.07-12-7.594
	c-4.262-4.174-8.521-8.324-12.781-12.5c-2.17-2.037-6.66-2.678-7.594,1.812c0,0-16.399-3.657-17.72,10.188
	c6.798-6.619,16.438-0.791,16.438-0.531c0,0.262-2.296,1.822-0.531,4.469c0.397-0.33,11.975,4.32,22.281,8.75
	c5.601,2.123,6.831,2.787,9.281,4.094c-2.686-1.229-5.858-2.621-9.281-4.094c-6.275-2.378-12.389-4.279-14.188-3.812
	c-5.84-0.545-12.034-1.27-14.875,3.125c-6.276,2.656-16.083,4.785-15.655,16.438c4.238-6.938,10.055-6.646,17.469-6
	c-0.174,0.523-0.326,1.041-0.5,1.562c8.05,3.666,6.522-0.998,14.031-1.688c6.276-0.576,15.174,1.674,19.875,3.25
	c-5.913,1.74-13.954,1.01-17.75,5.219c-0.696,1.394-3.133,0.824-2.062,4.156c0,0-11.534-0.297-14.625,15.656
	c11.729-7.508,20.615-7.281,20.875-7.281c0.261,0,3.656,0.781,3.656,0.781s14.084-9.406,14.344-9.406
	c0.262,0,13.638-5.922,19.812,0.781c5.389,2.65,11.151,2.818,16.719-0.531c10.966-4.77,21.229-5.104,31.312,1.594l9.125,5.47
	c1.305-0.869,2.604-1.754,3.906-2.625c0,0,10.329-2.916,17.906,6.28c-3.132-15.913-14.5-16.438-14.5-16.438
	c-0.87-0.783-1.756-1.561-2.625-2.344c-5.393-2.086-10.765-4.193-16.156-6.281c-2.354-5.826-8.268-10.465-2.375-17.469
	c6.021-29.926,13.218-52.4,1.562-82.719c10.87,4.695,19.005,19.217,32.625,14.094c0-12.176-44.822-35.293-79.062-53.875
	c56.094-2.869,123.515-44.277,97.594-96.906c4.089-12.697,8.162-25.396,12.25-38.094c5.771,11.623,17.453,20.483,27.938,24.25
	c-8.641-16.496-13.6-66.93-8.625-101.75c-22.604,27.922-47.562,52.702-74.094,77.875c13.05,3.05,24.451,0.904,37.062-0.656
	c-3.565,7.305-7.028,14.632-10.594,21.938c-34.474-20.188-74.947-5.038-75.25,21.906c1.179,31.42,40.028,35.887,62.438,24.938
	c-4.442,28.646-70.28,18.094-70.28,18.094c-23.395-8.062-45.614-6.684-70.188-6.5c5.106-15.709,33.461-29.651,55.062-23.5
	c-30.243-33.909,4.273-76.007,45.905-88.968c-45.376-14.966-6.305-49.558,27.656-74.344c0,0-97.66,41.101-106.562,40.969
	C443.058,51.186,450.676,18.236,461.281,0.562z M150.011,40.537c1.006-0.545,7.478-0.741,11.714,0.291
	c4.404,1.073,9.746,1.692,9.671,3.003c-2.039,3.413-7.032,7.527-11.954,7.279C154.521,50.863,151.651,47.933,150.011,40.537
	L150.011,40.537z"/>
<path class="dragon-loop" d="M587.387,166.658c-3.601,10.372-34.841,15.677-36.936,0.326C549.387,159.168,568.955,147.112,587.387,166.658z"
	/>
<path class="dragon-detail" d="M635.612,88.251c0,0-2.136,25.915-5.269,31.184"/>
<path class="dragon-detail" d="M623.51,89.675c0,0.142-10.821,29.191-10.821,29.191"/>
<path class="dragon-detail" d="M602.128,140.838c2.167,1.686,10.539,6.154,16.069,16.496"/>
<path class="dragon-detail" d="M587.688,166.999c0,0,7.789,6.799,0.936,23.206"/>
<path class="dragon-detail" d="M471.717,215.408c15.382-1.852,37.449,32.322,48.698,39.016"/>
<path class="dragon-detail" d="M585.774,402.373c0,0-6.408,4.697-2.99,10.822"/>
<path class="dragon-detail" d="M478.125,408.068c0,0,7.688,2.135,6.835,8.543"/>
<path class="dragon-detail" d="M462.604,385.712c0,0,5.553,5.838,1.851,10.678"/>
<path class="dragon-detail" d="M471.433,363.214c0,0,7.402,3.56-1.426,9.683"/>
<path class="dragon-detail" d="M378.449,402.087c0,0-6.408,5.41-1.708,11.535"/>
<path class="dragon-detail" d="M269.233,403.654c0,0,11.677,0.567,7.547,9.396"/>
<path class="dragon-detail" d="M260.547,384.003c0,0,3.901,7.229-3.646,9.223"/>
<path class="dragon-detail" d="M275.213,359.938c0,0,3.848,7.688-3.56,8.688"/>
<path class="dragon-detail" d="M266.812,401.945c0,0,11.249-9.684,16.518-4.558c5.27,5.125,27.624-4.413,27.624-4.413"/>
<path class="dragon-detail" d="M318.645,378.591l-18.513,9.683"/>
<path class="dragon-detail" d="M344.702,373.324c0,0,13.669,14.668,23.637-3.135"/>
<path class="dragon-detail" d="M357.945,364.066c9.255,7.404,5.463,11.842,34.513-7.666"/>
<path class="dragon-detail" d="M366.773,351.68c0,0,24.774,2.563,25.915,4.413c2.849-2.989,24.972-20.909-2.227-23.473
	C385.908,351.275,367.2,351.964,366.773,351.68L366.773,351.68z"/>
<path class="dragon-detail" d="M72.083,407.117c0,0,9.123,1.336,3.782,8.678"/>
<path class="dragon-detail" d="M68.078,389.759c0,0,6.675,4.229-0.89,9.791"/>
<path class="dragon-detail" d="M78.537,371.291c0,0,3.115,8.01-7.344,6.896"/>
<path class="dragon-detail" d="M71.86,401.109c0,0,12.685-10.461,19.36-4.007c6.454,2.228,10.013,1.779,10.013,1.779"/>
<path class="dragon-detail" d="M186.014,400.441c-0.223,0-3.783,7.563-0.667,11.348"/>
<path class="dragon-detail" d="M72.974,383.975c8.01-0.445,9.735,3.172,17.023,3.172c8.396,0.256,16.577-3.172,27.259-6.064"/>
<path class="dragon-detail" d="M18.678,143.205c0,0,5.118,2.448,10.014-5.117"/>
<path class="dragon-detail" d="M15.563,239.333c0,0,8.233,2.449,6.898,8.681"/>
<path class="dragon-detail" d="M47.383,129.409c0,0,0,4.895,10.236-2.67"/>
<path class="dragon-detail" d="M58.51,152.552c0,0-7.789,20.917,1.557,25.812"/>
<path class="dragon-detail" d="M67.855,146.766c0,0,4.005,8.679,9.569,3.783"/>
<path class="dragon-detail" d="M59.4,91.803l-6.454-10.458l5.786-2.003"/>
<path class="dragon-detail" d="M123.709,38.621c0,0,6.23,7.788,6.452,12.238c0.223,4.451-4.672,7.789-4.672,7.789"/>
<path class="dragon-detail" d="M119.257,48.189c0,0-1.334,4.672-1.779,7.788c0,2.225-7.122,5.118-7.122,5.118"/>
<path class="dragon-detail" d="M204.484,25.047c0.222,0.222-0.891,6.23-4.229,9.791"/>
<path class="dragon-detail" d="M143.513,41.736c0,0,9.774-2.69,17.088-1.165c7.245,1.489,16.958,4.058,16.958,4.058s11.57-1.558,15.354-4.228"
	/>
<path class="dragon-eye" d="M154.417,40.178l12.016,2.225C166.433,42.403,157.977,53.752,154.417,40.178z"/>
<path class="dragon-detail" d="M170.66,73.779l15.8,30.263l7.565-11.349l4.006,7.788l6.453-11.348l11.126,7.12l-4.228-13.796l9.345-0.667
	c0,0-2.448-6.676-10.904-8.011c2.226-1.78,10.014-6.898,10.014-6.898s-4.449-5.118-11.348-5.341c2.225-2.448,5.34-8.456,5.118-8.456
	c-0.222,0-6.899-1.558-6.899-1.558s15.799,5.118,28.038-2.003"/>
<path class="dragon-detail" d="M119.016,94.834l24.274-0.361c7.723-0.115,20.442-10.819,34.684-7.481"/>
<path class="dragon-detail" d="M122.596,94.251c0-0.223,1.78-4.673,1.78-4.673l1.983,5.144l3.193-0.083l2.107-4.987l1.73,5.348h3.173
	l1.957-5.919l2.957,5.357l2.511,0.084l1.978-6.651l4.077,4.738l1.481-0.58l1.27-6.634l4.028,4.637l1.155-0.679l1.868-6.536
	l3.346,4.859l1.685-0.549l1.563-5.493l3.11,5.048"/>
<path class="dragon-detail" d="M223.844,45.741c0,0-12.461-0.445-11.571-5.341c0.892-5.563,13.13-9.568,13.13-9.568
	s16.243-10.458,18.689-14.019"/>
<path class="dragon-detail" d="M226.735,24.602c0,0,4.006-4.005,10.682-2.003"/>
<path class="dragon-detail" d="M127.268,250.684c0,0-1.557,7.787,9.346,23.364c-3.115,17.354,13.195,30.996,19.649,33.222"/>
<path class="dragon-detail" d="M71.573,219.548c-12.238,6.897,6.964,50.494,65.041,54.722"/>
<path class="dragon-detail" d="M118.098,252.789c0,0,4.052,12.803,0.714,18.812"/>
<path class="dragon-detail" d="M101.39,248.201c0,0-4.829,9.381-5.942,13.832"/>
<path class="dragon-detail" d="M83.931,236.527c0,0-3.615,7.703-8.066,9.93"/>
<path class="dragon-detail" d="M289.933,178.363c0,0,15.574-0.222,31.151-42.501C336.439,78.007,458.158,13.476,460.606,1.459"/>
<path class="dragon-detail" d="M334.274,110.138c22.867-12.693,93.476-38.575,140.574-57.562"/>
<path class="dragon-detail" d="M571.385,14.86c0,0-216.192,101.016-219.341,106.367c36.505-11.016,191.333-36.82,195.11-34.617
	c-9.126,2.203-196.998,45.315-205.811,55.701c46.89-1.574,145.074,15.105,160.493,31.153
	c-33.356-7.551-133.113-22.342-163.64-15.734c22.344,5.351,107.939,60.736,107.939,69.547
	c-12.902-12.271-115.809-54.756-119.897-50.665c23.6,14.161,56.96,66.715,56.958,79.618c-6.923-11.015-66.399-74.898-69.861-70.808
	c6.294,8.812,18.768,84.222,12.392,87.718c0-9.127-23.09-75.13-24.979-77.019c-4.721,1.258-34.15,80.528-28.32,87.899
	c-3.775-26.434,0.629-81.604,7.865-79.401c-12.899,1.887-54.077,56.18-49.673,64.676c1.259-13.53,3.102-22.506,26.387-67.508
	c-25.806,1.571-79.303,35.246-88.431,47.203c7.239-21.398,52.556-57.591,72.381-60.107"/>
<path class="dragon-detail" d="M168.936,95.212l12.975,0.161"/>
<path class="dragon-detail" d="M117.681,71.519c0,0,8.722,3.338,26.812-10.983"/>
<path class="dragon-detail" d="M175.936,236.055c-5.168-6.677,3.876-109.188,23.044-135.893c-6.676,48.241,15.506,97.558,21.104,97.343"/>
<path class="dragon-detail" d="M172.92,105.115c0,0,9.046,9.907,19.384,8.184"/>
<path class="dragon-detail" d="M162.8,127.728c0,0,4.522,7.753,21.751,9.045"/>
<path class="dragon-detail" d="M152.843,148.118c0,0,11.679,14.283,27.4,12.13"/>
<path class="dragon-detail" d="M142.34,172.523c0,0,3.229,10.553,34.243,11.199"/>
<path class="dragon-detail" d="M133.294,202.244c0,0,14.43,12.92,41.566,8.83"/>
<path class="dragon-detail" d="M134.802,239.501c0,0,18.52,10.336,41.349-3.662"/>
<path class="dragon-detail" d="M448.153,199.014c0,0-12.922,10.983-0.862,28.643c-40.058-0.646-61.592,17.875-63.313,30.365
	c-51.041-3.66-41.78,11.416-58.364,16.367c-22.182-18.521-54.702-8.183-52.548,10.338c-14.861-20.892-37.688-10.769-40.487-5.601
	c-2.8,5.17-1.723-25.627-1.723-25.627s-14.86,6.676-25.199,18.951c0.217-8.183,0-21.535,0-25.843
	c-12.418,2.513-24.407,2.653-37.257,2.369"/>
<path class="dragon-detail" d="M179.648,249.089c-0.216,0-21.372,33.269,11.794,42.099"/>
<path class="dragon-detail" d="M230.424,268.791c0,0-5.385,2.584-7.321,2.152c-6.461,1.508-5.17,16.584,3.014,15.723
	c2.799-3.23,5.815-7.754,5.815-7.754"/>
<path class="dragon-detail" d="M218.793,277.835c0,0-2.368,3.231-6.03-0.215c-1.939-3.445-8.829,15.506,3.231,16.151
	c2.153-5.602,8.83-7.106,8.83-7.106"/>
<path class="dragon-detail" d="M208.886,284.941c-9.476-0.646-14.644,20.244,3.662,7.108"/>
<path class="dragon-detail" d="M202.21,287.958c0,0-10.553-8.185-10.121,3.229c-0.217,7.105,3.229,8.828,3.229,8.828
	c0.43,5.17,4.954,12.49,8.614,5.814c1.508-6.461-1.076-9.26-1.076-9.26"/>
<path class="dragon-detail" d="M146.862,360.318c-0.215,0,1.723,14.215,11.63,3.445c6.891-14.429,28.643-55.132,33.597-69.132"/>
<path class="dragon-detail" d="M177.013,283.436c0,0-15.291,4.307-9.476,22.396c8.829,7.108,17.444,6.03,17.444,6.03"/>
<path class="dragon-detail" d="M165.814,320.046c0,0,10.337,4.522,13.783,2.8"/>
<path class="dragon-detail" d="M157.959,337.775c0,0,4.624,8.115,11.086,5.313"/>
<path class="dragon-detail" d="M240.115,273.958c0,0,1.291,21.752-5.169,29.504c-6.462,7.754,1.513,23.856,1.513,23.856"/>
<path class="dragon-detail" d="M256.482,272.882c0.215,0.431,4.091,34.673-4.524,44.363"/>
<path class="dragon-detail" d="M289.433,265.992c0,0,12.636,24.447-0.071,36.508"/>
<path class="dragon-detail" d="M325.612,273.527c0,0-7.323,21.752-17.66,29.074"/>
<path class="dragon-detail" d="M361.578,274.389c0,0-34.028,58.147,28.858,58.147"/>
<path class="dragon-detail" d="M315.275,295.062c0-0.215,34.845,0.098,37.213,6.559"/>
<path class="dragon-detail" d="M326.689,331.246c0.431-0.432,24.98-2.801,29.505-11.631"/>
<path class="dragon-detail" d="M356.219,344.458c0.217,0,15.051-8.905,12.035-15.151"/>
<path class="dragon-detail" d="M354.902,257.807c1.722,22.612-26.059,35.534-37.043,33.381"/>
<path class="dragon-detail" d="M352.749,271.375c0,0,19.383,9.477,35.964-5.814"/>
<path class="dragon-detail" d="M384.191,258.238c0,0,7.323,13.137,16.152,12.275c11.629-3.447,15.936,3.659,15.936,3.659"/>
<path class="dragon-detail" d="M433.078,228.087c0,0-0.862,32.733,45.225,39.41c51.474,14.215,75.809,6.676,78.823,64.394
	c-1.938,21.967-4.668,46.778-20.604,37.301"/>
<path class="dragon-detail" d="M542.267,352.564c0,0,7.605,6.393,12.774-2.006"/>
<path class="dragon-detail" d="M543.274,335.628c0,0,9.397,1.697,13.706-7.349"/>
<path class="dragon-detail" d="M540.639,313.688c0,0,10.167,2.533,13.396-4.144"/>
<path class="dragon-detail" d="M540.974,286.88c0,0-7.729,15.125-10.526,16.634"/>
<path class="dragon-detail" d="M520.945,277.189c0,0,0.432,16.151-6.46,22.612"/>
<path class="dragon-detail" d="M499.194,273.312c0,0-0.215,13.354-11.199,22.612"/>
<path class="dragon-detail" d="M458.706,291.833c0.215-0.215,17.659-19.383,13.138-25.196"/>
<path class="dragon-detail" d="M452.892,258.882c0,0-2.301,18.453-20.82,21.252"/>
<path class="dragon-detail" d="M174.522,222.979c0,0,35.657-21.381,37.595-37.103"/>
<path class="dragon-detail" d="M175.721,204.396c0-0.215,22.33-5.691,31.591-30.244"/>
<path class="dragon-detail" d="M176.366,190.83c1.94,0.859,26.367-16.732,27.014-29.654"/>
<path class="dragon-detail" d="M177.874,175.108c7.107-1.938,20.183-17.753,22.767-26.152"/>
<path class="dragon-detail" d="M181.105,158.094c0,0,10.122-7.107,17.875-17.875"/>
<path class="dragon-detail" d="M185.025,137.906c0.215,5.815,9.437-2.048,13.098-7.002"/>
<path class="dragon-detail" d="M205.01,199.66l4.308,5.383"/>
<path class="dragon-detail" d="M195.902,208.046l2.862,4.535"/>
<path class="dragon-detail" d="M186.059,216.242c0,0.215,3.445,4.953,3.445,4.953"/>
<path class="dragon-detail" d="M180.028,219.688c0,0,0.215,6.893,3.661,7.321"/>
<path class="dragon-detail" d="M181.535,202.244c0,0,3.877,13.137,7.323,10.982"/>
<path class="dragon-detail" d="M191.442,195.998c0.215,0.432,4.307,12.275,4.307,12.275"/>
<path class="dragon-detail" d="M200.057,188.029l5.168,10.338"/>
<path class="dragon-detail" d="M194.236,178.119c0.216,0.215,5.606,7.973,7.112,6.896"/>
<path class="dragon-detail" d="M186.489,185.23c0,0,3.015,11.846,5.383,10.768"/>
<path class="dragon-detail" d="M176.195,194.121l5.556,8.338"/>
<path class="dragon-detail" d="M184.336,171.231c0,0,1.938,12.491,3.66,12.062"/>
<path class="dragon-detail" d="M191.54,164.113c0,0.215,5.501,10.563,5.932,10.563"/>
<path class="dragon-detail" d="M180.458,162.616c0.215,0,6.031,6.677,6.031,6.677"/>
<path class="dragon-detail" d="M189.073,152.279c0.215,0.216,4.954,8.184,4.954,8.184"/>
<path class="dragon-detail" d="M191.442,137.851c0,0,0,9.259,1.938,9.476"/>
<path class="dragon-detail" d="M186.92,130.743l4.737,6.891"/>
</svg>
