<?xml version="1.0" encoding="UTF-8"?><!-- Generator: Adobe Illustrator 15.0.2, SVG Export Plug-In . SVG Version: 6.00 Build 0)  --><svg xmlns="http://www.w3.org/2000/svg" xmlns:rdf="http://www.w3.org/1999/02/22-rdf-syntax-ns#" xmlns:svg="http://www.w3.org/2000/svg" xmlns:cc="http://creativecommons.org/ns#" xmlns:dc="http://purl.org/dc/elements/1.1/" xmlns:xlink="http://www.w3.org/1999/xlink" version="1.1" x="0px" y="0px" width="167px" height="202px" viewBox="0 0 167 202" style="enable-background:new 0 0 167 202;" xml:space="preserve" preserveAspectRatio="xMidYMid meet" zoomAndPan="magnify" contentScriptType="text/ecmascript" contentStyleType="text/css">
	<desc>
		In order to adapt the original Inkscape SVG for the purposes of HeDGe (Heraldic Device Generator),
		the following steps were taken:
		1	Saved as plain SVG in Inkscape.
		2	Opened in Adobe Illustrator.
		3	Styles created (and occasionally consolidated for simplicity) and applied to vector objects of same appearance.
		4	One object from each style given a distinctive ID.
		5	Saved as SVG with CSS properties set to Style Elements, which replaces inline styles with classes,
			defined within a style element, which is enclosed in a defs element.
		6 Style classes given distinct names, and class attributes updated with find and replace,
			using distinctive IDs to match generated style names to vector object classes.
		7	The class describing the objects with main charge colour should be split in two:
			a	a class for the stroke;
			b	a class for the fill, which should be given the name 'proper'.
			The 'proper' class will be replaced by the appropriate tincture if required.
			SVG elements affected should be assigned both classes, for example:
				class="proper lion-body"
		8	If there are common style properties, for example if all strokes are black,
			then these can be extracted from the various classes and applied to all objects, for example:
				* {stroke:#000000;}
		9 Metadata section added with appropriate descriptive and licensing information.
		10	If SVG element ID attributes are serving no (further) purpose, they should be removed.
			This can be done with XSLT or a regular expression editor. This will clean up the SVG from
			Inkscape/Illustrator, reducing file size and importantly avoid any potential ID conflicts.
			If some ID attributes are necessary (say, for internal XLink references to definitions or symbols),
			then these should be kept but given distinctive names, probably prefixed with the hyphenated charge type.
	</desc>
	<defs>
		<style type="text/css" xml:space="preserve">
		
			* {stroke:#666666;}
			.proper{fill:#F9E702;}
			.eagle-feather{stroke-width:0.5;stroke-linecap:round;stroke-linejoin:round;}
			.tongue{fill:#FF0000;stroke-width:0.5;stroke-linecap:round;stroke-linejoin:round;}
			.eagle-body{stroke-width:0.7;stroke-linecap:round;stroke-linejoin:round;}
			.eagle-beak{stroke:none;}
			.eagle-detail{fill:none;stroke-width:0.5;stroke-linecap:round;stroke-linejoin:round;}
			.eagle-claws{fill:#FFFFFF;stroke-width:0.5;stroke-linecap:round;stroke-linejoin:round;}
		
		</style>
	</defs>
  <metadata>
  	<rdf:RDF xmlns:rdfs="http://www.w3.org/2000/01/rdf-schema#">
      <cc:Work rdf:about="http://en.wikipedia.org/wiki/File:Heraldic_displayed_eagle.svg">
      	<dc:format>image/svg+xml</dc:format>
        <dc:type rdf:resource="http://purl.org/dc/dcmitype/StillImage"/>
      	<dc:title>displayed (or "spread") eagle</dc:title>
      	<dc:creator>F l a n k e r</dc:creator>
      	<dc:license>
      		<cc:license>This work is licensed under the Creative Commons Attribution-ShareAlike 3.0 Unported License. To view a copy of this license, visit http://creativecommons.org/licenses/by-sa/3.0/ or send a letter to Creative Commons, 171 Second Street, Suite 300, San Francisco, California, 94105, USA.</cc:license>
      	</dc:license>
      </cc:Work>
    </rdf:RDF>
  </metadata>
<path class="proper eagle-body" d="M93.766,6.096c-0.012,0.009-0.022,0.02-0.031,0.031c-0.012,0.009-0.022,0.02-0.031,0.031  c-0.001,0.01-0.001,0.021,0,0.031c-0.001,0.01-0.001,0.021,0,0.031c-0.135,1.241-1.125,2.483-3.031,3.25s-4.736,1.03-8.562,0.281  c-2.738-0.536-6.042-0.476-8.625,0.281c-1.291,0.379-2.383,0.933-3.156,1.688c-0.737,0.72-1.151,1.635-1.094,2.719  c-3.108,0.05-5.506,1.549-6.625,3.656c-1.138,2.143-0.976,4.909,1.062,7.344c0.009,0.012,0.02,0.022,0.031,0.031  c0.009,0.012,0.02,0.022,0.031,0.031c0.01,0.001,0.021,0.001,0.031,0c0.01,0.001,0.021,0.001,0.031,0  c0.01,0.001,0.021,0.001,0.031,0c0.01,0.001,0.021,0.001,0.031,0c0.012-0.009,0.022-0.02,0.031-0.031  c0.012-0.009,0.022-0.02,0.031-0.031c0.015-0.018,0.026-0.04,0.031-0.062c0.137-1.56,1.408-3.048,3-3.812s3.458-0.802,4.875,0.406  c0.01,0.001,0.021,0.001,0.031,0c0.01,0.001,0.021,0.001,0.031,0c0.005,0.005,0.025-0.004,0.031,0  c0.011,0.009,0.019,0.025,0.031,0.031c0.021-0.004,0.042,0.004,0.062,0c0.023-0.005,0.044-0.016,0.062-0.031  c3.573-0.63,6.338,0.018,8.125,1.344c0.886,0.657,1.542,1.491,1.938,2.406c-1.76-1.104-4.003-2.031-6.688-2.031  c-2.232,0-4.691,1.207-7.062,2.406c-2.372,1.199-4.673,2.406-6.438,2.406c-2.63,0-4.154-1.045-5.469-2.188  c-0.021-0.019-0.042-0.044-0.062-0.062c0.001-0.01,0.001-0.021,0-0.031c-0.01-0.001-0.021-0.001-0.031,0  c-0.01-0.001-0.021-0.001-0.031,0c-0.01-0.001-0.021-0.001-0.031,0c-0.01-0.001-0.021-0.001-0.031,0  c-0.01-0.001-0.021-0.001-0.031,0c-0.012,0.009-0.022,0.02-0.031,0.031c-0.012,0.009-0.022,0.02-0.031,0.031  c-0.001,0.01-0.001,0.021,0,0.031c-0.012,0.009-0.022,0.02-0.031,0.031c-0.001,0.01-0.001,0.021,0,0.031  c0.171,0.937,0.915,2.181,2.031,3.219s2.63,1.875,4.375,1.875c2.166,0,4.436-1.09,6.656-2.156c2.221-1.066,4.378-2.125,6.344-2.125  c1.569,0,2.967,0.613,4.156,1.406c-1.904,0.085-3.89,0.425-5.625,1.062c-2.671,0.981-4.78,2.671-5.062,5.156  c-0.001,0.01-0.001,0.021,0,0.031c0.009,0.012,0.02,0.022,0.031,0.031c-0.001,0.01-0.001,0.021,0,0.031  c0.009,0.012,0.02,0.022,0.031,0.031c0.009,0.012,0.02,0.022,0.031,0.031c0.01,0.001,0.021,0.001,0.031,0  c0.01,0.001,0.021,0.001,0.031,0c0.01,0.001,0.021,0.001,0.031,0c0.01,0.001,0.021,0.001,0.031,0  c3.046-1.065,7.243-1.153,10.562-0.875c1.021,0.085,1.869,0.015,2.594-0.156c0.342,6.421-4.105,11.917-8.875,14.656  c-2.396,1.376-4.865,2.062-6.812,1.812s-3.367-1.401-3.781-3.719c-0.009-0.012-0.02-0.022-0.031-0.031  c-0.009-0.012-0.02-0.022-0.031-0.031c-0.009-0.012-0.02-0.022-0.031-0.031c-0.01-0.001-0.021-0.001-0.031,0  c-0.009-0.012-0.02-0.022-0.031-0.031c-0.012,0.009-0.022,0.02-0.031,0.031c-0.01-0.001-0.021-0.001-0.031,0  c-0.01-0.001-0.021-0.001-0.031,0c-0.902,0.687-1.22,1.77-1.156,2.844c0.064,1.073,0.491,2.164,1.188,2.906  c0.99,1.055,2.682,1.721,4.5,1.844c1.3,0.088,2.668-0.113,3.906-0.656c-1.121,1-2.108,2.021-2.938,3.094  c-0.323-0.31-1.046-0.818-2-1.25c-0.966-0.438-2.146-0.812-3.312-0.812c-2.676,0-4.951,1.027-7.156,2.031  c-2.205,1.003-4.337,2-6.719,2c-6.416,0-10.844-5.127-10.844-11.219c0-3.543,2.039-5.791,4.094-7.719  c1.028-0.964,2.059-1.864,2.844-2.781s1.312-1.877,1.312-3c0-1.716-0.865-3.13-2.219-4.312c-1.354-1.183-3.183-2.148-5.156-2.969  c-2.719-1.13-5.694-2.885-7.219-4.969c-0.763-1.042-1.174-2.142-1.031-3.312c0.143-1.171,0.836-2.428,2.312-3.719  c0.012-0.009,0.022-0.02,0.031-0.031c0.015-0.018,0.026-0.04,0.031-0.062c0.001-0.01,0.001-0.021,0-0.031  c-0.005-0.023-0.016-0.044-0.031-0.062c-0.009-0.012-0.02-0.022-0.031-0.031c-0.009-0.012-0.02-0.022-0.031-0.031  c-0.01-0.001-0.021-0.001-0.031,0c-0.01-0.001-0.021-0.001-0.031,0c-0.01-0.001-0.021-0.001-0.031,0  c-0.026,0.004-0.037,0.027-0.062,0.031c-1.934,0.303-3.26,1.203-4,2.438c-0.75,1.251-0.895,2.795-0.594,4.375  c0.437,2.297,1.874,4.617,4,6.094c-6.064-2.246-9.931-5.756-13.469-9.562c-0.018-0.015-0.04-0.026-0.062-0.031  c-0.01-0.001-0.021-0.001-0.031,0c-0.803-0.187-1.472-0.101-2,0.25s-0.903,0.95-1.094,1.688c-0.381,1.475-0.079,3.577,0.938,5.844  c1.522,3.395,4.677,7.172,9.844,9.688c-6.33-1.482-11.977-4.327-14.656-8.094c-0.009-0.012-0.02-0.022-0.031-0.031  c-0.009-0.012-0.02-0.022-0.031-0.031c-0.01-0.001-0.021-0.001-0.031,0c-0.01-0.001-0.021-0.001-0.031,0  c-0.01-0.001-0.021-0.001-0.031,0c-0.01-0.001-0.021-0.001-0.031,0c-0.01-0.001-0.021-0.001-0.031,0  c-0.015,0.018-0.026,0.04-0.031,0.062c-0.012,0.009-0.022,0.02-0.031,0.031c-0.001,0.01-0.001,0.021,0,0.031  c0,0.023,0.031,0.07,0.031,0.094c0.003,1.239,0.934,3.461,3.438,5.812c1.985,1.864,4.971,3.774,9.219,5.25  c-2.396-0.335-4.731-0.777-6.844-1.375c-3.804-1.076-6.924-2.66-8.531-4.906c-0.009-0.012-0.02-0.022-0.031-0.031  c-0.01-0.001-0.021-0.001-0.031,0c0.001-0.01,0.001-0.021,0-0.031c-0.687-0.226-1.283-0.19-1.781,0.031s-0.89,0.65-1.156,1.156  c-0.534,1.013-0.621,2.406-0.219,3.656c0.856,2.662,3.522,5.861,7.281,8.219c1.97,1.235,4.229,2.223,6.688,2.781  c-1.86,0.062-3.909,0.037-5.906-0.125c-4.103-0.333-8.02-1.271-9.812-3.125c-0.009-0.012-0.02-0.022-0.031-0.031  c-0.01-0.001-0.021-0.001-0.031,0c-0.01-0.001-0.021-0.001-0.031,0c-0.01-0.001-0.021-0.001-0.031,0  c-0.01-0.001-0.021-0.001-0.031,0c-0.01-0.001-0.021-0.001-0.031,0c-0.012,0.009-0.022,0.02-0.031,0.031  c-0.015,0.018-0.026,0.04-0.031,0.062c-0.001,0.01-0.001,0.021,0,0.031c-0.001,0.01-0.001,0.021,0,0.031  c0.005,0.033,0.026,0.061,0.031,0.094c0.42,2.51,2.73,4.504,6.5,5.625c2.877,0.855,6.606,1.218,11.031,0.906  c-2.545,1.209-5.155,1.946-7.5,2.25c-1.991,0.258-3.776,0.215-5.188-0.094s-2.438-0.872-2.875-1.625  c-0.009-0.012-0.02-0.022-0.031-0.031c-0.009-0.012-0.02-0.022-0.031-0.031c-0.018-0.015-0.04-0.026-0.062-0.031  c-0.023,0.005-0.044,0.016-0.062,0.031c-0.01-0.001-0.021-0.001-0.031,0c-0.012,0.009-0.022,0.02-0.031,0.031  c-0.001,0.01-0.001,0.021,0,0.031c-1.263,2.737-1.107,4.938,0.031,6.562s3.224,2.665,5.781,3.219  c3.012,0.652,6.693,0.607,10.281-0.031c-5.993,3.632-13.169,5.164-16,5.562c-0.01-0.001-0.021-0.001-0.031,0  c-0.012,0.009-0.022,0.02-0.031,0.031c-0.012,0.009-0.022,0.02-0.031,0.031c-0.012,0.009-0.022,0.02-0.031,0.031  c-0.001,0.01-0.001,0.021,0,0.031c-0.001,0.01-0.001,0.021,0,0.031c-0.001,0.01-0.001,0.021,0,0.031  c0.009,0.012,0.02,0.022,0.031,0.031c0.009,0.012,0.02,0.022,0.031,0.031c1.036,1.029,2.804,1.369,4.938,1.25  s4.615-0.717,7.094-1.562c2.3-0.785,4.589-1.808,6.562-2.906c-2.7,2.39-5.653,4.103-8.438,5.281  c-4.419,1.871-8.435,2.382-10.219,2.094c-0.01-0.001-0.021-0.001-0.031,0c-0.01-0.001-0.021-0.001-0.031,0  c-0.023,0.005-0.044,0.016-0.062,0.031c-0.012,0.009-0.022,0.02-0.031,0.031c-0.001,0.01-0.001,0.021,0,0.031  c-0.236,0.782-0.129,1.532,0.25,2.219s1.024,1.303,1.844,1.812c1.639,1.019,4.014,1.648,6.531,1.594  c3.166-0.069,6.771-0.863,10.094-2.25c-4.7,4.503-10.855,7.757-14.938,9.156c-0.012,0.009-0.022,0.02-0.031,0.031  c-0.012,0.009-0.022,0.02-0.031,0.031c-0.001,0.01-0.001,0.021,0,0.031c-0.012,0.009-0.022,0.02-0.031,0.031  c-0.001,0.01-0.001,0.021,0,0.031c-0.001,0.01-0.001,0.021,0,0.031c0.005,0.023,0.016,0.044,0.031,0.062  c0.009,0.012,0.02,0.022,0.031,0.031c0.01,0.001,0.021,0.001,0.031,0c0.009,0.012,0.02,0.022,0.031,0.031  c0.01,0.001,0.021,0.001,0.031,0c0.01,0,0.021,0,0.031,0c6.284-0.175,12.349-3.464,17.094-7.188  c-1.162,1.372-2.388,2.754-3.688,4.062c-4.764,4.798-10.291,8.794-15.094,9.438c-0.023,0.005-0.044,0.016-0.062,0.031  c-0.001,0.01-0.001,0.021,0,0.031c-0.564,0.551-0.848,1.168-0.844,1.781s0.278,1.205,0.781,1.719c1.006,1.028,2.903,1.75,5.406,1.75  c6.015,0,12.356-4.136,17.719-9.188c-4.854,6.484-11.145,13.601-17.438,17.781c-0.012,0.009-0.022,0.02-0.031,0.031  c-0.015,0.018-0.026,0.039-0.031,0.062c-0.001,0.01-0.001,0.021,0,0.031c-0.001,0.01-0.001,0.021,0,0.031  c0.009,0.012,0.02,0.021,0.031,0.031c-0.001,0.01-0.001,0.021,0,0.031c0.009,0.012,0.02,0.021,0.031,0.031  c0.018,0.015,0.04,0.025,0.062,0.031c0.01,0,0.021,0,0.031,0c0.028,0,0.065-0.032,0.094-0.031c1.576,0.027,3.616-0.965,5.969-2.656  c2.395-1.722,5.101-4.144,7.844-6.907c1.756-1.77,3.523-3.673,5.25-5.625c-4.606,7.785-9.067,13.972-14.219,18.094  c-2.275,1.82-4.117,2.566-5.406,3.094c-0.645,0.263-1.134,0.455-1.5,0.75s-0.594,0.705-0.594,1.25c0,0.908,0.721,1.758,1.781,2.406  s2.475,1.094,3.969,1.094c4.893,0,10.869-3.549,16.062-8.25c4.089-3.703,8.791-9.793,12.719-16.063  c2.309-3.685,4.353-7.417,5.844-10.781c-1.087,5.318-2.911,10.751-4.438,13.906c-1.025,2.117-3.144,6.166-4.062,7.938  c-0.358,0.691-1.104,1.502-1.781,2.219c-0.338,0.357-0.67,0.672-0.906,0.969s-0.406,0.554-0.406,0.812c0,0.697,0.22,1.4,0.781,1.906  s1.449,0.81,2.75,0.75c0.75,0,1.741-0.387,2.969-1.094c1.228-0.708,2.673-1.763,4.375-3.125  c5.134-4.111,10.916-13.017,13.344-28.844c-0.001,2.793-0.113,6.01-0.344,9c-0.302,3.924-0.827,7.481-1.562,9.219  c-0.001,0.01-0.001,0.021,0,0.031c-0.001,0.01-0.001,0.021,0,0.031c-0.001,0.01-0.001,0.021,0,0.031  c0.005,0.023,0.016,0.044,0.031,0.062c0.009,0.012,0.02,0.022,0.031,0.031c0.01,0.001,0.021,0.001,0.031,0  c0.009,0.012,0.02,0.022,0.031,0.031c0.01,0.001,0.021,0.001,0.031,0c0.01,0.001,0.021,0.001,0.031,0  c1.268-0.348,2.211-1.568,2.906-3.219s1.158-3.771,1.469-6.031c0.575-4.191,0.609-8.779,0.562-11.781  c0.525,1.562,1.121,3.111,1.719,4.656c1.7,4.393,3.406,8.625,3.406,12c0,0.772-0.461,1.637-1.219,2.562s-1.797,1.901-2.938,2.906  c-2.281,2.01-4.953,4.131-6.406,6.219c-0.457,0.655-0.939,1.744-1.531,3.031s-1.277,2.764-2.125,4.156  c-1.695,2.784-3.986,5.219-7.312,5.219c-1.126,0-1.993-0.314-2.562-0.844s-0.862-1.279-0.812-2.125c0.001-0.011,0.001-0.021,0-0.031  c0.001-0.011,0.001-0.021,0-0.031c-0.009-0.012-0.02-0.022-0.031-0.031c-0.009-0.012-0.02-0.022-0.031-0.031  c-0.018-0.016-0.04-0.025-0.062-0.031c-0.01-0.001-0.021-0.001-0.031,0c-0.01-0.001-0.021-0.001-0.031,0  c-0.012,0.009-0.022,0.02-0.031,0.031c-0.01-0.001-0.021-0.001-0.031,0c-1.124,0.953-1.474,2.591-0.906,4  c0.568,1.409,2.076,2.594,4.656,2.594c2.09,0,3.895-0.683,5.438-1.594c-3.303,5.206-9.955,11.946-17.406,18.781  c-1.301,0.84-3.202,1.359-4.625,1.344c-1.138-0.013-2.518-0.66-3.906-1.312c-1.389-0.653-2.785-1.312-4.031-1.312  c-0.834,0-1.637,0.239-2.25,0.656c-0.719-0.482-1.475-0.686-2.188-0.656c-2.566,0.104-4.529,3.027-1.719,5.25  c-0.354-1.519,1.081-2.651,2.812-1.875c0.257,1.534,1.406,2.5,2.781,2.5c0.511,0,0.972-0.282,1.438-0.531s0.933-0.469,1.438-0.469  c0.309,0,0.623,0.202,0.969,0.469s0.694,0.595,1.156,0.719c0.233,0.062,0.503,0.104,0.781,0.125  c-0.103,0.021-0.213,0.047-0.312,0.062c-1.13,0.184-3.38-0.188-5.406-0.188c-0.905,0-1.646,0.46-2.125,1.094  c-0.454-0.105-0.895-0.178-1.312-0.188c-0.202-0.004-0.402,0.016-0.594,0.031c-1.276,0.101-2.304,0.66-2.969,1.562  c-1.01,1.371-0.754,4.156,1.719,4.75c-0.814-1.754,0.583-3.59,2.906-2.969c0.111,0.241,0.236,0.477,0.406,0.688  c0.508,0.629,1.295,1.094,2.281,1.094c0.577,0,1.011-0.185,1.344-0.438s0.568-0.586,0.75-0.906s0.325-0.626,0.469-0.844  s0.262-0.312,0.438-0.312c0.57,0,1.031,0.1,1.531,0.188c0.339,0.059,0.687,0.097,1.094,0.094c-0.379,0.227-0.75,0.464-1.125,0.688  c-1.102,0.656-2.166,1.303-3,1.969s-1.453,1.366-1.656,2.125c-0.073,0.272-0.079,0.539-0.062,0.812  c-1.319,0.85-2.161,2.189-2.25,3.594c-0.107,1.699,1.308,3.811,3.812,3.5c-1.297-1.116-0.938-2.924,0.406-3.656  c0.505,0.49,1.289,0.842,2.094,0.875s1.634-0.247,2.188-1c0.687-0.934,0.812-2.277,0.969-3.531s0.363-2.402,1.156-3.062  c0.849-0.706,1.629-1.022,2.469-1.219s1.741-0.268,2.781-0.5c1.781-0.397,3.366-1.59,4.625-3.781c0.867-0.327,2.149-0.515,3,0  c0.444,0.268,0.889,0.813,1.406,1.312s1.145,0.969,1.938,0.969c0.788,0,1.66-0.295,2.344-0.812s1.156-1.275,1.156-2.219  c0-0.146-0.022-0.291-0.031-0.438c1.575-0.93,3.561,0.085,3.469,2c2.022-2.137,1.651-4.159,0.344-5.25  c-0.86-0.718-2.115-1.031-3.406-0.938c-0.65,0.047-1.301,0.205-1.906,0.469c-0.593-0.603-1.349-1-2.219-1  c-0.761,0-1.855,0.435-2.969,0.969c-0.72,0.346-1.312,0.719-1.938,1.094c3.798-4.033,9.913-8.531,14-13.062  c0.206-0.229,0.661-0.43,1.25-0.625s1.315-0.402,2.062-0.625c1.42-0.424,2.911-0.975,3.812-2.031c0.17,0.438,0.36,0.859,0.594,1.25  c0.756,1.262,1.915,2.212,3.75,2.469c0.01,0.001,0.021,0.001,0.031,0c0.01,0.001,0.021,0.001,0.031,0  c0.023-0.005,0.044-0.016,0.062-0.031c0.012-0.009,0.022-0.02,0.031-0.031c0.001-0.01,0.001-0.021,0-0.031  c0.001-0.01,0.001-0.021,0-0.031c0.001-0.01,0.001-0.021,0-0.031c0.001-0.01,0.001-0.021,0-0.031  c-0.842-4.005-0.646-7.223,0.25-9.562c0.868-2.268,2.414-3.66,4.281-4.156c0.287,1.276,0.265,3.508-0.094,6.156  c-0.372,2.748-1.077,5.901-2.156,8.75s-2.512,5.396-4.281,6.969s-3.873,2.168-6.344,1.156c-0.01-0.001-0.021-0.001-0.031,0  c-0.01-0.001-0.021-0.001-0.031,0c-0.01-0.001-0.021-0.001-0.031,0c-0.012,0.01-0.022,0.02-0.031,0.031  c-0.01-0.001-0.021-0.001-0.031,0c-0.001,0.011-0.001,0.021,0,0.031c-0.012,0.01-0.022,0.02-0.031,0.031  c-0.001,0.011-0.001,0.021,0,0.031c-0.001,0.01-0.001,0.021,0,0.031c-0.001,0.01-0.001,0.021,0,0.031  c0.778,3.186,3.625,4.812,6.5,4.812c2.392,0,4.352-1.015,5.875-2.625c0.05-0.053,0.107-0.102,0.156-0.156  c-0.344,1.511-1.026,3.33-2.281,4.906c-1.636,2.055-4.25,3.688-8.438,3.688c-2.949,0-5.794,0.615-7.469,2.75  c-0.712,0.907-1.266,2.333-1.375,3.875s0.236,3.23,1.375,4.562c0.018,0.016,0.04,0.025,0.062,0.031c0.01,0.001,0.021,0.001,0.031,0  c0.01,0.001,0.021,0.001,0.031,0c0.01,0.001,0.021,0.001,0.031,0c0.023-0.005,0.044-0.016,0.062-0.031  c0.015-0.018,0.026-0.039,0.031-0.062c0.001-0.011,0.001-0.021,0-0.031c0.076-1.28,0.598-2.365,1.656-3.125s2.675-1.188,5-1.188  c4.023,0,7.681-1.494,10.312-4.094c-0.965,2.35-2.521,4.887-4.375,7.031c-1.994,2.307-4.527,3.984-6.781,4.656  c-1.127,0.336-2.18,0.392-3.062,0.188c-0.883-0.205-1.591-0.674-2.062-1.5c-0.009-0.012-0.02-0.022-0.031-0.031  c-0.009-0.012-0.02-0.022-0.031-0.031c-0.01-0.001-0.021-0.001-0.031,0c-0.01-0.001-0.021-0.001-0.031,0  c-0.76-0.091-1.352,0.143-1.75,0.594s-0.611,1.085-0.656,1.781c-0.09,1.394,0.445,3.032,1.531,3.969  c0.921,0.795,2.242,1.256,3.562,1.406c1.039,0.118,1.985-0.117,2.875-0.375c-7.634,5.02-15.688,0.116-15.688-5.406  c0-1.257,0.463-2.793,1.281-3.875s1.951-1.717,3.375-1.281c0.009,0.012,0.02,0.022,0.031,0.031c0.01,0.001,0.021,0.001,0.031,0  c0.012-0.009,0.022-0.02,0.031-0.031c0.01,0.001,0.021,0.001,0.031,0c0.012-0.009,0.022-0.02,0.031-0.031  c0.012-0.009,0.022-0.02,0.031-0.031c0.001-0.01,0.001-0.021,0-0.031c0.001-0.01,0.001-0.021,0-0.031  c0.001-0.01,0.001-0.021,0-0.031c0.001-0.01,0.001-0.021,0-0.031c-0.017-0.041-0.075-0.053-0.094-0.094  c-0.619-1.363-1.798-2.469-3.5-2.469c-2.314,0-4.428,1.264-5.938,3.156c-1.509,1.894-2.438,4.441-2.438,7.031  c0,3.195,1.114,6.443,3.562,8.906c2.449,2.465,6.25,4.125,11.562,4.125c3.212,0,6.107-1.068,8.719-2.781  c-5.046,10.179,3.861,17.327,9.656,11.531c-5.493-0.555-4.194-6.965-0.219-9.594c3.935-2.602,6.063-6.061,7.094-9.906  c-0.435,8.475-0.862,16.418-4.906,22.188c-1.212,1.729,1.106,2.688,4,2.688c0.058,1.829,2.116,3.469,4.125,3.469  c2.01,0,4.067-1.64,4.125-3.469c2.894,0,5.213-0.958,4-2.688c-4.045-5.77-4.471-13.713-4.906-22.188  c1.03,3.846,3.159,7.305,7.094,9.906c3.976,2.629,5.273,9.039-0.219,9.594c5.795,5.796,14.703-1.353,9.656-11.531  c2.615,1.717,5.533,2.781,8.75,2.781c5.312,0,9.113-1.66,11.562-4.125c2.449-2.463,3.531-5.711,3.531-8.906  c0-2.59-0.928-5.137-2.438-7.031c-1.51-1.893-3.592-3.156-5.906-3.156c-1.701,0-2.881,1.105-3.5,2.469  c-0.019,0.041-0.076,0.053-0.094,0.094c-0.012,0.01-0.022,0.02-0.031,0.031c-0.001,0.011-0.001,0.021,0,0.031  c-0.001,0.011-0.001,0.021,0,0.031c0.01,0.012,0.02,0.022,0.031,0.031c-0.001,0.011-0.001,0.021,0,0.031  c0.01,0.012,0.02,0.022,0.031,0.031c0.01,0.001,0.021,0.001,0.031,0c0.018,0.016,0.039,0.025,0.062,0.031  c0.012-0.009,0.022-0.02,0.031-0.031c1.424-0.436,2.588,0.199,3.406,1.281s1.281,2.618,1.281,3.875  c0,5.523-8.084,10.432-15.719,5.406c0.896,0.265,1.856,0.494,2.906,0.375c1.32-0.15,2.609-0.611,3.531-1.406  c1.086-0.937,1.621-2.575,1.531-3.969c-0.045-0.697-0.227-1.33-0.625-1.781s-1.021-0.685-1.781-0.594  c-0.011-0.001-0.021-0.001-0.031,0c-0.012,0.01-0.022,0.02-0.031,0.031c-0.012,0.009-0.022,0.02-0.031,0.031  c-0.471,0.826-1.18,1.295-2.062,1.5c-0.883,0.204-1.936,0.148-3.062-0.188c-2.254-0.672-4.787-2.35-6.781-4.656  c-1.854-2.145-3.41-4.682-4.375-7.031c2.631,2.6,6.289,4.094,10.312,4.094c2.325,0,3.941,0.428,5,1.188s1.58,1.845,1.656,3.125  c-0.001,0.01-0.001,0.021,0,0.031c-0.001,0.01-0.001,0.021,0,0.031c0.01,0.012,0.02,0.022,0.031,0.031  c0.009,0.012,0.02,0.022,0.031,0.031c0.01,0.001,0.021,0.001,0.031,0c0.01,0.001,0.021,0.001,0.031,0  c0.01,0.001,0.021,0.001,0.031,0c0.01,0.001,0.021,0.001,0.031,0c0.012-0.01,0.021-0.02,0.031-0.031c0.01,0.001,0.021,0.001,0.031,0  c1.139-1.332,1.484-3.021,1.375-4.562s-0.664-2.968-1.375-3.875c-1.675-2.135-4.52-2.75-7.469-2.75  c-4.188,0-6.803-1.633-8.438-3.688c-1.256-1.577-1.938-3.396-2.281-4.906c0.049,0.054,0.105,0.104,0.156,0.156  c1.523,1.61,3.483,2.625,5.875,2.625c2.875,0,5.721-1.628,6.5-4.812c0-0.011,0-0.021,0-0.031c0-0.011,0-0.021,0-0.031  c0-0.011,0-0.021,0-0.031c-0.01-0.012-0.02-0.022-0.031-0.031c-0.01-0.012-0.02-0.022-0.031-0.031  c-0.01-0.012-0.02-0.022-0.031-0.031c-0.011-0.001-0.021-0.001-0.031,0c-0.011-0.001-0.021-0.001-0.031,0  c-0.011-0.001-0.021-0.001-0.031,0c-0.01-0.001-0.021-0.001-0.031,0c-2.471,1.012-4.543,0.416-6.312-1.156s-3.202-4.12-4.281-6.969  s-1.784-6.002-2.156-8.75c-0.358-2.648-0.381-4.88-0.094-6.156c1.868,0.496,3.382,1.889,4.25,4.156  c0.896,2.34,1.123,5.558,0.281,9.562c-0.012,0.01-0.022,0.02-0.031,0.031c0.006,0.023,0.016,0.045,0.031,0.062  c-0.001,0.011-0.001,0.021,0,0.031c0.009,0.012,0.02,0.022,0.031,0.031c0.009,0.012,0.02,0.022,0.031,0.031  c0.01,0.001,0.021,0.001,0.031,0c0.01,0.001,0.021,0.001,0.031,0c0.01,0.001,0.021,0.001,0.031,0  c1.836-0.257,2.994-1.207,3.75-2.469c0.227-0.379,0.396-0.795,0.562-1.219c0.906,1.045,2.432,1.578,3.844,2  c0.748,0.223,1.473,0.43,2.062,0.625s1.044,0.396,1.25,0.625c4.088,4.531,10.201,9.029,14,13.062  c-0.625-0.375-1.217-0.748-1.938-1.094c-1.113-0.534-2.207-0.969-2.969-0.969c-0.87,0-1.626,0.397-2.219,1  c-0.85-0.367-1.795-0.521-2.688-0.469c-1.016,0.059-1.969,0.363-2.656,0.938c-1.308,1.091-1.646,3.113,0.375,5.25  c-0.092-1.906,1.866-2.906,3.438-2c-0.01,0.146-0.031,0.291-0.031,0.438c0,0.943,0.504,1.701,1.188,2.219s1.557,0.812,2.344,0.812  c0.793,0,1.42-0.47,1.938-0.969s0.963-1.045,1.406-1.312c0.868-0.525,2.165-0.34,3.031,0c1.258,2.18,2.818,3.385,4.594,3.781  c1.041,0.232,1.941,0.304,2.781,0.5s1.62,0.513,2.469,1.219c0.793,0.66,1,1.809,1.156,3.062s0.252,2.598,0.938,3.531  c0.553,0.753,1.414,1.033,2.219,1s1.589-0.385,2.094-0.875c1.345,0.732,1.703,2.54,0.406,3.656c2.505,0.311,3.92-1.801,3.812-3.5  c-0.089-1.403-0.932-2.744-2.25-3.594c0.017-0.273,0.011-0.54-0.062-0.812c-0.203-0.759-0.822-1.459-1.656-2.125  s-1.898-1.312-3-1.969c-0.375-0.224-0.746-0.461-1.125-0.688c0.407,0.003,0.754-0.034,1.094-0.094  c0.5-0.088,0.961-0.188,1.531-0.188c0.176,0,0.293,0.095,0.438,0.312s0.287,0.523,0.469,0.844s0.417,0.653,0.75,0.906  c0.334,0.253,0.767,0.438,1.344,0.438c0.986,0,1.773-0.464,2.281-1.094c0.17-0.211,0.295-0.446,0.406-0.688  c2.318-0.621,3.689,1.215,2.875,2.969c2.473-0.594,2.76-3.379,1.75-4.75c-0.797-1.082-2.143-1.661-3.781-1.562  c-0.352,0.021-0.721,0.076-1.094,0.156c-0.479-0.633-1.221-1.094-2.125-1.094c-2.025,0-4.276,0.371-5.406,0.188  c-0.1-0.016-0.21-0.041-0.312-0.062c0.268-0.021,0.521-0.064,0.75-0.125c0.463-0.124,0.842-0.452,1.188-0.719  s0.66-0.469,0.969-0.469c0.505,0,0.973,0.22,1.438,0.469s0.926,0.531,1.438,0.531c1.375,0,2.524-0.966,2.781-2.5  c1.731-0.776,3.167,0.356,2.812,1.875c2.811-2.223,0.848-5.146-1.719-5.25c-0.713-0.029-1.469,0.174-2.188,0.656  c-0.613-0.417-1.416-0.656-2.25-0.656c-1.246,0-2.643,0.659-4.031,1.312c-1.389,0.652-2.768,1.3-3.906,1.312  c-1.479,0.017-3.481-0.537-4.781-1.438c-7.422-6.814-14.034-13.534-17.312-18.719c1.557,0.93,3.383,1.625,5.5,1.625  c2.58,0,4.089-1.185,4.656-2.594c0.568-1.409,0.217-3.047-0.906-4c-0.01-0.001-0.021-0.001-0.031,0  c-0.009-0.012-0.02-0.022-0.031-0.031c-0.01-0.001-0.021-0.001-0.031,0c-0.01-0.001-0.021-0.001-0.031,0  c-0.01-0.001-0.021-0.001-0.031,0c-0.012,0.009-0.021,0.02-0.031,0.031c-0.012,0.009-0.021,0.02-0.031,0.031  c-0.012,0.009-0.021,0.02-0.031,0.031c0,0.01,0,0.021,0,0.031c0,0.01,0,0.021,0,0.031c0.05,0.846-0.242,1.596-0.812,2.125  c-0.569,0.529-1.436,0.844-2.562,0.844c-3.326,0-5.617-2.434-7.312-5.219c-0.848-1.393-1.532-2.869-2.125-4.156  c-0.592-1.287-1.074-2.375-1.531-3.031c-1.463-2.101-4.654-4.27-7.469-6.344c-1.406-1.037-2.731-2.05-3.688-3  c-0.955-0.951-1.531-1.838-1.531-2.594c0-7.402,1.326-12.394,5.312-19.906c0.104,0.087,0.211,0.155,0.312,0.25  c0.541,0.501,1.061,1.07,1.594,1.594c0,0.01,0,0.021,0,0.031c0,0.01,0,0.021,0,0.031c-0.062,2.943-0.068,8.238,0.562,12.969  c0.316,2.365,0.803,4.583,1.5,6.312c0.672,1.663,1.584,2.848,2.781,3.25c0.048,0.016,0.077,0.08,0.125,0.094  c0.011,0.001,0.021,0.001,0.031,0c0.011,0.001,0.021,0.001,0.031,0c0.012-0.009,0.023-0.02,0.031-0.031  c0.011,0.001,0.021,0.001,0.031,0c0.016-0.019,0.026-0.04,0.031-0.062c0.016-0.019,0.026-0.04,0.031-0.062  c-0.005-0.023-0.016-0.045-0.031-0.062c-0.734-1.738-1.26-5.295-1.562-9.219c-0.23-2.99-0.32-6.207-0.312-9  c2.426,15.828,8.178,24.732,13.312,28.844c1.702,1.362,3.178,2.417,4.406,3.125c1.229,0.707,2.219,1.094,2.969,1.094  c1.301,0.06,2.188-0.244,2.75-0.75s0.781-1.209,0.781-1.906c0-0.259-0.17-0.516-0.406-0.812s-0.568-0.611-0.906-0.969  c-0.676-0.717-1.453-1.527-1.812-2.219c-0.918-1.771-3.006-5.821-4.031-7.938c-1.527-3.155-3.35-8.588-4.438-13.906  c1.491,3.364,3.535,7.096,5.844,10.781c3.928,6.27,8.629,12.359,12.719,16.062c5.193,4.701,11.139,8.25,16.031,8.25  c1.494,0,2.939-0.445,4-1.094s1.781-1.497,1.781-2.406c0-0.545-0.227-0.955-0.594-1.25c-0.366-0.295-0.887-0.486-1.531-0.75  c-1.289-0.527-3.1-1.273-5.375-3.094c-5.151-4.122-9.612-10.31-14.219-18.094c1.728,1.951,3.494,3.855,5.25,5.625  c2.742,2.763,5.449,5.185,7.844,6.906c2.354,1.691,4.393,2.684,5.969,2.656c0.028-0.001,0.066,0.032,0.094,0.031  c0.011,0.001,0.021,0.001,0.031,0c0.012-0.01,0.022-0.02,0.031-0.031c0.01,0.001,0.021,0.001,0.031,0  c0.016-0.019,0.025-0.039,0.031-0.062c0.016-0.019,0.025-0.039,0.031-0.062c-0.005-0.023-0.016-0.045-0.031-0.062  c0.001-0.011,0.001-0.021,0-0.031c-0.009-0.012-0.02-0.022-0.031-0.031c-0.01-0.001-0.021-0.001-0.031,0  c-0.018-0.012-0.045-0.02-0.062-0.031c-6.283-4.19-12.545-11.308-17.375-17.781c5.369,5.066,11.723,9.219,17.75,9.219  c2.504,0,4.4-0.722,5.406-1.75c0.504-0.514,0.777-1.106,0.781-1.719c0.004-0.613-0.279-1.23-0.844-1.781  c-0.009-0.012-0.02-0.022-0.031-0.031c-0.009-0.012-0.02-0.022-0.031-0.031c-0.01-0.001-0.021-0.001-0.031,0  c-4.803-0.643-10.299-4.64-15.062-9.438c-1.299-1.309-2.525-2.691-3.688-4.062c4.727,3.707,10.777,6.993,17.031,7.188  c0.011,0,0.021,0,0.031,0c0.021,0,0.042,0,0.062,0c0.011,0.001,0.021,0.001,0.031,0c0.012-0.009,0.022-0.02,0.031-0.031  c0.012-0.009,0.022-0.02,0.031-0.031c0.012-0.009,0.022-0.02,0.031-0.031c0.016-0.018,0.025-0.04,0.031-0.062  c-0.005-0.023-0.016-0.044-0.031-0.062c-0.009-0.012-0.02-0.022-0.031-0.031c-0.009-0.012-0.02-0.022-0.031-0.031  c-0.009-0.012-0.02-0.022-0.031-0.031c-0.008-0.003-0.023,0.002-0.031,0c-4.09-1.406-10.223-4.678-14.906-9.188  c3.333,1.397,6.947,2.212,10.125,2.281c2.518,0.055,4.893-0.575,6.531-1.594c0.819-0.509,1.465-1.126,1.844-1.812  s0.486-1.437,0.25-2.219c-0.009-0.012-0.02-0.022-0.031-0.031c0.002-0.01,0.002-0.021,0-0.031c-0.018-0.015-0.039-0.026-0.062-0.031  c-0.01-0.001-0.021-0.001-0.031,0c-0.01-0.001-0.021-0.001-0.031,0c-0.01-0.001-0.021-0.001-0.031,0  c-1.783,0.289-5.768-0.223-10.188-2.094c-2.783-1.179-5.736-2.892-8.438-5.281c1.967,1.099,4.23,2.122,6.531,2.906  c2.479,0.846,4.992,1.444,7.125,1.562c2.134,0.119,3.902-0.221,4.938-1.25c0.012-0.009,0.023-0.02,0.031-0.031  c0.002-0.01,0.002-0.021,0-0.031c0.012-0.009,0.023-0.02,0.031-0.031c0.002-0.01,0.002-0.021,0-0.031  c-0.009-0.012-0.02-0.022-0.031-0.031c0.002-0.01,0.002-0.021,0-0.031c-0.009-0.012-0.02-0.022-0.031-0.031  c-0.009-0.012-0.02-0.022-0.031-0.031c-0.01-0.001-0.021-0.001-0.031,0c-0.01-0.001-0.021-0.001-0.031,0  c-2.832-0.399-10.004-1.956-16-5.594c3.6,0.645,7.291,0.716,10.312,0.062c2.559-0.554,4.643-1.594,5.781-3.219  s1.295-3.825,0.031-6.562c-0.009-0.012-0.02-0.022-0.031-0.031c-0.008-0.012-0.02-0.022-0.031-0.031  c-0.01-0.001-0.021-0.001-0.031,0c-0.008-0.012-0.02-0.022-0.031-0.031c-0.022,0.005-0.044,0.016-0.062,0.031  c-0.01-0.001-0.021-0.001-0.031,0c-0.012,0.009-0.021,0.02-0.031,0.031c0,0.01,0,0.021,0,0.031  c-0.437,0.753-1.463,1.316-2.875,1.625c-1.411,0.309-3.195,0.352-5.188,0.094c-2.344-0.304-4.954-1.041-7.5-2.25  c4.426,0.312,8.154-0.051,11.031-0.906c3.771-1.121,6.081-3.114,6.5-5.625c0.006-0.033,0.027-0.061,0.031-0.094  c0.002-0.01,0.002-0.021,0-0.031c0.002-0.01,0.002-0.021,0-0.031c-0.008-0.012-0.019-0.022-0.031-0.031  c0.002-0.01,0.002-0.021,0-0.031c-0.018-0.015-0.039-0.026-0.062-0.031c-0.01-0.001-0.02-0.001-0.03,0  c-0.011-0.001-0.021-0.001-0.031,0c-0.011-0.001-0.021-0.001-0.031,0c-0.011-0.001-0.021-0.001-0.031,0  c-0.011-0.001-0.021-0.001-0.031,0c-0.001,0.01-0.001,0.021,0,0.031c-1.792,1.854-5.741,2.792-9.844,3.125  c-2.009,0.163-4.046,0.188-5.906,0.125c2.458-0.558,4.718-1.546,6.688-2.781c3.759-2.357,6.456-5.557,7.312-8.219  c0.402-1.25,0.315-2.644-0.219-3.656c-0.267-0.506-0.657-0.935-1.156-1.156s-1.095-0.257-1.781-0.031  c-0.012,0.009-0.022,0.02-0.031,0.031c-0.012,0.009-0.022,0.02-0.031,0.031c-0.011-0.001-0.021-0.001-0.031,0  c-1.606,2.246-4.696,3.83-8.5,4.906c-2.112,0.598-4.448,1.04-6.844,1.375c4.249-1.476,7.233-3.386,9.219-5.25  c2.504-2.352,3.435-4.574,3.438-5.812c0-0.023,0.032-0.071,0.031-0.094c-0.005-0.023-0.017-0.044-0.031-0.062  c-0.009-0.012-0.019-0.022-0.031-0.031c-0.009-0.012-0.019-0.022-0.031-0.031c-0.011-0.001-0.021-0.001-0.03,0  c-0.012-0.001-0.021-0.001-0.031,0c-0.012-0.001-0.021-0.001-0.031,0c-0.012-0.001-0.021-0.001-0.031,0  c-0.012-0.001-0.021-0.001-0.031,0c-0.002,0.01-0.002,0.021,0,0.031c-0.012,0.009-0.023,0.02-0.031,0.031  c-2.688,3.779-8.366,6.616-14.719,8.094c5.189-2.516,8.381-6.288,9.906-9.688c1.016-2.267,1.287-4.369,0.906-5.844  c-0.191-0.737-0.535-1.336-1.062-1.688c-0.529-0.351-1.229-0.437-2.031-0.25c-0.011-0.001-0.021-0.001-0.031,0  c-0.012,0.009-0.023,0.02-0.031,0.031c-3.536,3.804-7.412,7.316-13.469,9.562c2.125-1.477,3.562-3.797,4-6.094  c0.301-1.58,0.125-3.124-0.625-4.375c-0.736-1.228-2.053-2.129-3.969-2.438c-0.037-0.006-0.057-0.026-0.094-0.031  c-0.011-0.001-0.021-0.001-0.031,0c-0.011-0.001-0.021-0.001-0.031,0c-0.011-0.001-0.021-0.001-0.031,0  c-0.012,0.009-0.022,0.02-0.031,0.031c-0.001,0.01-0.001,0.021,0,0.031c-0.012,0.009-0.022,0.02-0.031,0.031  c-0.001,0.01-0.001,0.021,0,0.031c-0.001,0.01-0.001,0.021,0,0.031c-0.001,0.01-0.001,0.021,0,0.031  c0.009,0.012,0.02,0.022,0.031,0.031c0.009,0.012,0.02,0.022,0.031,0.031c1.476,1.291,2.139,2.547,2.281,3.719  c0.143,1.171-0.238,2.271-1,3.312c-1.525,2.084-4.5,3.838-7.219,4.969c-1.974,0.82-3.803,1.786-5.156,2.969  c-1.354,1.183-2.25,2.597-2.25,4.312c0,1.123,0.559,2.083,1.344,3s1.816,1.817,2.844,2.781c2.055,1.928,4.062,4.176,4.062,7.719  c0,6.092-4.396,11.219-10.812,11.219c-4.967,0-7.918-1.56-10.781-3.125c-2.865-1.565-5.643-3.156-10.158-3.156  c-3.999,0-6.113,0.961-7.438,1.75c2.544-2.989,4.756-6.86,5-10.844c0.234,1.009,0.734,2.512,1.938,3.906  c1.443,1.672,3.781,2.94,7.344,2.125c0.022-0.005,0.04,0.005,0.062,0c0.023-0.005,0.045-0.016,0.062-0.031  c0.012-0.009,0.022-0.02,0.031-0.031c0.012-0.009,0.022-0.02,0.031-0.031c0.001-0.01,0.001-0.021,0-0.031  c0.001-0.01,0.001-0.021,0-0.031c0.001-0.01,0.001-0.021,0-0.031c0.001-0.01,0.001-0.021,0-0.031  c-0.01-0.012-0.02-0.022-0.031-0.031c-0.01-0.012-0.02-0.022-0.031-0.031c-0.018-0.015-0.039-0.026-0.062-0.031  c-1.913-0.466-3.19-1.392-4.094-2.656s-1.426-2.872-1.719-4.625c-0.57-3.416-0.321-7.406-0.719-10.75  c0.918,0.756,2.176,1.173,3.375,0.969c1.306-0.222,2.5-1.152,2.906-2.938c0.001-0.01,0.001-0.021,0-0.031  c-0.009-0.012-0.02-0.022-0.031-0.031c0.001-0.01,0.001-0.021,0-0.031c-0.009-0.012-0.02-0.022-0.031-0.031  c-0.009-0.012-0.02-0.022-0.031-0.031c-0.01-0.001-0.021-0.001-0.031,0c-0.01-0.001-0.021-0.001-0.031,0  c-0.01-0.001-0.021-0.001-0.031,0c-0.01-0.001-0.021-0.001-0.031,0c-1.569,0.523-2.59,0.485-3.312,0.094  c-0.722-0.392-1.161-1.167-1.562-2.156c-0.732-1.808-1.41-4.291-3.125-6.375c0.966,0.763,2.246,1.41,3.594,1.438  c1.577,0.032,3.104-0.802,3.969-3c0.004-0.007,0.029,0.007,0.031,0c0.011-0.026,0.021-0.036,0.031-0.062  c0.012-0.009,0.022-0.02,0.031-0.031c0.001-0.01,0.001-0.021,0-0.031c0.001-0.01,0.001-0.021,0-0.031  c-0.009-0.012-0.02-0.022-0.031-0.031c0.002-0.01,0.002-0.021,0-0.031c-0.018-0.015-0.039-0.026-0.062-0.031  c-0.018-0.015-0.039-0.026-0.062-0.031c-0.023,0.005-0.044,0.016-0.062,0.031c-0.01-0.001-0.021-0.001-0.031,0  c-0.814,0.531-1.9,0.839-2.938,0.844c-1.035,0.004-1.99-0.302-2.594-0.906c-0.965-0.965-1.467-2.159-2.188-3.25  c-0.664-1.007-1.633-1.847-3.25-2.281c3.528-0.379,4.537-5.206,2-6.844c-0.01-0.001-0.021-0.001-0.031,0  c-0.01-0.001-0.021-0.001-0.031,0c-0.01-0.001-0.021-0.001-0.031,0c-0.01-0.001-0.021-0.001-0.031,0  C93.787,6.095,93.775,6.095,93.766,6.096z"/>
<path class="proper eagle-feather" d="M136.094,36.11c8.051-1.017,15.887-4.273,19.229-8.974c0.062,2.273-3.679,9.129-16.498,12.15"/>
<path class="proper eagle-feather" d="M142.393,47.48c5.05,0.817,17.145,0.983,20.846-2.842c-0.729,4.959-9.075,8.003-21.961,5.963"/>
<path class="proper eagle-feather" d="M139.885,57.122c6.129,7.005,17.799,9.605,21.625,10.144c-3.942,3.916-19.988-2.428-23.465-7.134  "/>
<path class="proper eagle-feather" d="M137.854,68.314c3.912,8.02,14.179,13.963,20.125,16c-9.85-0.258-19.256-8.28-23.688-13.5"/>
<path class="proper eagle-feather" d="M129.979,77.314c4.292,7.286,14.148,20.955,24,27.5c-6.059,0.256-21.129-16.637-28.75-27.25"/>
<path class="proper eagle-feather" d="M103.416,74.314c-0.178,6.5,0.367,17.188,1.875,20.75c-4.801-1.319-4.982-16.587-4.857-22.465"/>
<path class="proper eagle-feather" d="M136.986,39.064c8.74-0.702,18.009-2.38,21.291-6.967c2.634-0.865,3.744,2.221,2.964,4.646  c-1.679,5.215-10.643,12.769-20.911,11.183l0,0"/>
<path class="proper eagle-feather" d="M140.609,48.149c7.848,6.555,19.019,6.977,20.9,3.734c4.996,10.824-12.554,12.247-23.02,7.357"/>
<path class="proper eagle-feather" d="M138.49,59.296c7.165,10.307,19.498,12.971,23.188,12.374c0.896,2.976-3.487,5.538-8.469,5.429  c-6.98-0.152-16.229-3.797-19.455-9.777"/>
<path class="proper eagle-feather" d="M133.729,67.314c3.813,7.471,16.138,22.321,25.875,23.625c2.166,2.117-0.301,5-5.25,5  c-12.229,0-26.133-17.238-29.625-24.625"/>
<path class="proper eagle-feather" d="M124.604,71.439c8.869,16.603,15.568,29.521,24.338,36.537c4.58,3.666,7.441,2.918,7.441,4.955  c0,1.657-2.674,3.359-5.603,3.359c-4.819,0-10.778-3.533-15.957-8.222c-8.143-7.372-18.803-24.33-20.72-33.13"/>
<path class="proper eagle-feather" d="M115.104,74.814c0.406,6.832,3.188,15.979,5.375,20.5c1.027,2.122,3.125,6.163,4.043,7.935  c0.753,1.45,3.082,3.238,3.082,3.94c0,1.332-0.824,2.617-3.375,2.5c-1.397,0-3.871-1.447-7.268-4.166  c-5.338-4.275-11.415-13.821-13.607-31.084"/>
<path class="tongue" d="M56.333,26.356c1.338,1.17,2.917,2.285,5.629,2.285c3.66,0,9.133-4.793,13.488-4.793  c3.616,0,6.454,1.719,8.322,3.241l-0.575,4.506c-1.143-1.337-3.934-4.542-7.608-4.542c-4.036,0-8.783,4.264-13.014,4.264  C59.18,31.316,56.656,28.125,56.333,26.356z"/>
<path class="proper eagle-feather" d="M63.575,74.314c0.178,6.5-0.368,17.188-1.875,20.75c4.801-1.319,4.938-15.748,4.812-21.625"/>
<path class="eagle-detail" d="M27.107,57.122c-6.13,7.005-17.799,9.605-21.625,10.144c3.942,3.916,19.988-2.428,23.465-7.134"/>
<path class="eagle-detail" d="M29.138,68.314c-3.912,8.02-14.179,13.963-20.125,16c9.85-0.258,19.256-8.28,23.688-13.5"/>
<path class="eagle-detail" d="M37.013,77.314c-4.292,7.286-14.148,20.955-24,27.5c6.059,0.256,21.129-16.637,28.75-27.25"/>
<path class="proper eagle-feather" d="M24.599,47.48c-5.05,0.817-17.145,0.983-20.845-2.842c0.728,4.959,9.075,8.003,21.96,5.963"/>
<path class="proper eagle-feather" d="M30.897,36.11c-8.05-1.017-15.886-4.273-19.229-8.974c-0.062,2.273,3.678,9.129,16.498,12.15"/>
<path class="eagle-detail" d="M84.427,20.049c3.712,1.091,5.306,4.995,5.069,12.103"/>
<path class="eagle-detail" d="M84.703,13.537c1.545,0.203,3.102,0.531,4.793,2.341"/>
<path class="eagle-detail" d="M80.132,13.425c-1.905,2.918-6.951,1.191-10.757,1.17c-0.421-4.44,7.28-5.744,12.708-4.682  c7.692,1.506,11.476-1.065,11.761-3.679c2.503,1.616,1.466,6.688-2.285,6.688c3.709,0.753,3.698,3.682,5.682,5.665  c1.287,1.287,4.057,1.176,5.744,0.076c-1.677,4.458-6.105,3.036-7.971,1.17c4.196,4.282,2.164,11.208,8.527,9.085  c-0.789,3.471-4.527,3.452-6.298,1.728c0.882,6.744-1.085,16.554,6.688,18.449c-7.109,1.673-9.143-4.957-9.363-6.577  c0,8.462-9.902,16.888-11.956,16.888c-0.687,0-1.176-0.398-1.449-0.808"/>
<path class="eagle-detail" d="M84.312,50.936c4.586-3.829,7.312-9.088,7.524-13.544"/>
<path class="eagle-detail" d="M73.36,14.944c0.849,0.058,3.172,2.359,3.679,3.553"/>
<path class="eagle-detail" d="M76.886,15.125c0.22,0.824,0.006,1.813-0.362,2.383"/>
<path class="eagle-detail" d="M82.585,33.825c0.792,13.072-18.093,22.38-19.787,12.903c-1.712,1.304-1.277,4.087,0.061,5.512  c1.907,2.031,6.6,2.64,9.607,0.359"/>
<path class="eagle-detail" d="M96.574,65.594c-3.059-1.349-7.605,2.67-9.754,6.131"/>
<path d="M72.203,83.346c-0.022,0.007-0.043,0.018-0.062,0.031c-0.039,0.022-0.071,0.055-0.094,0.094  c-0.017,0.029-0.027,0.061-0.031,0.094c0,0.043-0.013,0.112,0.004,0.152c0.916,2.165,1.722,3.428,2.527,4.723  s1.652,2.593,1.719,4.969c-0.006,0.031-0.006,0.062,0,0.094c0.025,0.056,0.069,0.1,0.125,0.125c0.029,0.017,0.061,0.027,0.094,0.031  c0.031,0.006,0.063,0.006,0.094,0c0.036-0.014,0.068-0.035,0.094-0.062c0.011-0.01,0.022-0.02,0.031-0.031  c0.013-0.02,0.024-0.041,0.031-0.062c0.017-0.029,0.027-0.061,0.031-0.094c-0.068-2.455-0.577-4.072-1.406-5.406  s-1.918-2.404-2.809-4.508c-0.038-0.089-0.13-0.138-0.223-0.148c-0.031-0.004-0.063-0.006-0.094,0  C72.224,83.345,72.213,83.345,72.203,83.346z"/>
<path class="eagle-detail" d="M94.568,96.75c2.295,1.474,4.634,2.819,6.354,6.019"/>
<path d="M73.266,105.564c-1.744,0.248-3.456,1.645-4.719,3.781c-0.017,0.029-0.027,0.061-0.031,0.094  c-0.006,0.031-0.006,0.062,0,0.094c0.017,0.051,0.05,0.094,0.094,0.125c0.019,0.014,0.041,0.023,0.062,0.031  c0.029,0.016,0.061,0.027,0.094,0.031c0.033-0.004,0.065-0.016,0.094-0.031c0.051-0.018,0.094-0.051,0.125-0.094  c1.206-2.039,2.82-3.029,4.375-3.25s3.069,0.287,4.188,2c0.017,0.024,0.038,0.045,0.062,0.062c0.019,0.014,0.041,0.023,0.062,0.031  c0.029,0.016,0.061,0.027,0.094,0.031c0.033-0.004,0.065-0.016,0.094-0.031c0.056-0.025,0.1-0.07,0.125-0.125  c0.017-0.029,0.027-0.061,0.031-0.094c0-0.044-0.01-0.087-0.031-0.125c-0.009-0.012-0.02-0.021-0.031-0.031  C76.751,106.225,75.01,105.316,73.266,105.564L73.266,105.564z"/>
<path class="proper eagle-beak" d="M85.037,30.704c0,2.368-1.858,3.506-5.186,3.228c-3.333-0.279-7.559-0.182-10.643,0.896  c0.548-4.818,8.203-6.571,13.488-6.02c0.613-4.308-3.421-8.317-10.757-6.967c-2.937-2.504-7.851,0.25-8.137,3.511  c-4.011-4.791-0.703-10.757,5.574-10.757c1.408,0,2.883,0.229,4.046,0.344c1.428,1.08,2.941,2.106,3.688,3.688  c0.855,1.812,3.155,2.931,5.375,3.938C84.473,25.277,85.037,27.865,85.037,30.704z"/>
<path class="eagle-detail" d="M71.995,21.841c-0.296-1.161-1.084-2.27-2.118-3.177"/>
<path class="eagle-detail" d="M79.463,20.002c2.258-0.329,4.263,0.288,4.763,0.003c0.311-0.176,0.535-0.567,0.504-1.118"/>
<path class="eagle-detail" d="M83.496,184.701v-18.504"/>
<path class="eagle-detail" d="M83.496,115.689v19.5"/>
<path class="eagle-detail" d="M35.245,52.273c0.875,9.205,11.047,13.449,17.167,12.15"/>
<path class="eagle-detail" d="M65.955,59.909c-1.802-1.097-3.604-0.553-5.407-0.223"/>
<path class="proper eagle-feather" d="M35.021,28.418c-7.849-2.103-12.206-6.212-16.275-10.59c-6.18-1.44-3.732,15.239,13.655,19.229"/>
<path class="proper eagle-feather" d="M30.005,39.064c-8.741-0.702-18.009-2.38-21.292-6.967c-2.634-0.865-3.745,2.221-2.964,4.646  c1.678,5.215,10.643,12.769,20.911,11.183l0,0"/>
<path class="proper eagle-feather" d="M26.382,48.149c-7.849,6.555-19.019,6.977-20.901,3.734C0.486,62.707,18.035,64.13,28.5,59.24"/>
<path class="proper eagle-feather" d="M28.5,59.296C21.336,69.603,9.003,72.267,5.314,71.669c-0.897,2.976,3.487,5.538,8.468,5.429  c6.981-0.152,16.229-3.797,19.456-9.777"/>
<path class="proper eagle-feather" d="M33.263,67.314c-3.813,7.471-16.138,22.321-25.875,23.625c-2.166,2.117,0.301,5,5.25,5  c12.228,0,26.133-17.238,29.625-24.625"/>
<path class="proper eagle-feather" d="M42.388,71.439c-8.87,16.603-15.568,29.521-24.337,36.537c-4.581,3.666-7.441,2.918-7.441,4.955  c0,1.657,2.673,3.359,5.602,3.359c4.82,0,10.778-3.533,15.957-8.222c8.143-7.372,18.803-24.33,20.72-33.13"/>
<path class="proper eagle-feather" d="M51.888,74.814c-0.406,6.832-3.187,15.979-5.375,20.5c-1.027,2.122-3.125,6.163-4.043,7.935  c-0.752,1.45-3.082,3.238-3.082,3.94c0,1.332,0.825,2.617,3.375,2.5c1.397,0,3.871-1.447,7.267-4.166  c5.339-4.275,11.416-13.821,13.608-31.084"/>
<path d="M22.606,26.596c-0.062,0.01-0.118,0.044-0.156,0.094c-0.013,0.019-0.024,0.04-0.031,0.062  c-0.021,0.038-0.032,0.081-0.031,0.125c0.004,0.033,0.015,0.065,0.031,0.094c0.017,0.024,0.038,0.045,0.062,0.062  c3.071,3.043,6.521,4.892,10.75,6.125l0.75-0.75c-4.191-1.222-8.171-2.761-11.156-5.719c-0.009-0.011-0.02-0.022-0.031-0.031  c-0.019-0.013-0.04-0.024-0.062-0.031C22.693,26.605,22.65,26.595,22.606,26.596z M13.919,39.189  c-0.062,0.01-0.118,0.044-0.156,0.094c-0.013,0.019-0.024,0.04-0.031,0.062c-0.017,0.029-0.027,0.061-0.031,0.094  c-0.006,0.068,0.017,0.136,0.062,0.188c2.963,3.148,8.197,4.875,14.594,4.531l0.906-0.844c-6.299,0.338-12.328-1.059-15.125-4.031  c-0.009-0.011-0.02-0.022-0.031-0.031c-0.019-0.013-0.04-0.024-0.062-0.031C14.006,39.199,13.963,39.188,13.919,39.189z   M26.388,54.408c-2.139,1.65-5.218,2.792-8,3.219c-2.781,0.427-5.372,0.377-6.719,0.094c-0.031-0.006-0.062-0.006-0.094,0  c-0.058,0.002-0.113,0.024-0.156,0.062c-0.045,0.051-0.068,0.119-0.062,0.188c0.004,0.033,0.015,0.065,0.031,0.094  c0.039,0.069,0.109,0.115,0.188,0.125c1.455,0.307,4.165,0.561,7,0.125s6.068-1.487,8-3L26.388,54.408z M32.169,63.221l-1.031,0.094  c-3.615,4.461-8.279,8.075-14.625,9.438c-0.011,0.009-0.021,0.02-0.031,0.031c-0.022,0.007-0.043,0.018-0.062,0.031  c-0.011,0.009-0.021,0.02-0.031,0.031c-0.038,0.043-0.06,0.099-0.062,0.156c-0.006,0.068,0.017,0.136,0.062,0.188  c0.02,0.013,0.041,0.024,0.062,0.031c0.029,0.017,0.061,0.027,0.094,0.031c0.031,0.006,0.063,0.006,0.094,0  c6.568-1.266,11.891-5.033,15.562-9.562L32.169,63.221z M36.95,69.846c-3.882,7.526-9.645,12.671-15.625,17.719  c-0.011,0.009-0.021,0.02-0.031,0.031c-0.045,0.051-0.068,0.119-0.062,0.188c0.004,0.033,0.015,0.065,0.031,0.094  c0.007,0.022,0.018,0.043,0.031,0.062c0.043,0.038,0.099,0.061,0.156,0.062c0.041,0.011,0.084,0.011,0.125,0  c0.024-0.017,0.045-0.038,0.062-0.062c5.98-5.047,12.22-9.995,16.156-17.625L36.95,69.846z M57.2,72.877  c-0.305,8.969-2.709,16.734-7,23.594c0,0.01,0,0.021,0,0.031c-0.021,0.038-0.032,0.081-0.031,0.125  c0.004,0.033,0.015,0.065,0.031,0.094c0.025,0.055,0.07,0.1,0.125,0.125c0.041,0.01,0.084,0.01,0.125,0  c0.033-0.004,0.065-0.015,0.094-0.031c0.022-0.007,0.043-0.018,0.062-0.031c0.013-0.02,0.024-0.041,0.031-0.062  c4.332-6.926,7.129-14.756,7.438-23.812L57.2,72.877z M45.606,73.439c-2.6,12.113-8.933,20.423-17.812,30.25  c-0.045,0.051-0.068,0.119-0.062,0.188c0.004,0.033,0.015,0.064,0.031,0.094c0.007,0.021,0.018,0.043,0.031,0.062  c0.026,0.027,0.058,0.049,0.094,0.062c0.031,0.006,0.063,0.006,0.094,0c0.058-0.002,0.113-0.024,0.156-0.062  c0.011-0.01,0.021-0.021,0.031-0.031c7.084-7.149,16.022-17.414,18.469-30.438L45.606,73.439z"/>
<path class="proper eagle-feather" d="M29.248,50.475c-5.003,2.981-2.136,8.758,2.073,5.842"/>
<path class="proper eagle-feather" d="M29.966,56.941c-4.197,4.398,0.393,9.037,3.805,4.947"/>
<path class="proper eagle-feather" d="M33.439,61.414c-3.588,4.907,1.567,8.908,4.417,4.409"/>
<path class="proper eagle-feather" d="M37.81,64.981c-4.474,5.519,1.955,10.018,5.508,4.958"/>
<path class="proper eagle-feather" d="M31.438,42.805c-6.608,1.19-6.063,8.739-0.907,7.239"/>
<path class="proper eagle-feather" d="M31.438,42.805c-3.654-0.091-1.66-5.641,1.879-5.079"/>
<path class="proper eagle-feather" d="M36.342,32.772c-2.851-1.823-5.856,3.21-3.025,4.954"/>
<path class="proper eagle-feather" d="M44.22,67.545c-4.474,5.519,1.955,10.018,5.508,4.958"/>
<path class="proper eagle-feather" d="M51.257,67.991c-4.191,5.519,1.83,10.018,5.159,4.958"/>
<path class="proper eagle-feather" d="M57.539,67.656c-3.581,4.853,0.961,8.822,4.57,5.462"/>
<path class="proper eagle-feather" d="M62.443,67.656c-3.433,4.652,0.6,8.492,4.119,5.842"/>
<path class="eagle-detail" d="M43.075,32.564c0.424,1.021-0.844,2.542-1.875,3.438"/>
<path class="eagle-detail" d="M131.746,52.273c-0.874,9.205-11.047,13.449-17.166,12.15"/>
<path class="eagle-detail" d="M101.036,59.909c1.802-1.097,3.604-0.553,5.407-0.223"/>
<path class="proper eagle-feather" d="M131.97,28.418c7.849-2.103,12.206-6.212,16.274-10.59c6.18-1.44,3.732,15.239-13.654,19.229"/>
<path d="M144.388,26.596c-0.044-0.001-0.087,0.01-0.125,0.031c-0.022,0.007-0.043,0.018-0.062,0.031  c-0.011,0.009-0.021,0.02-0.031,0.031c-2.985,2.958-6.964,4.497-11.156,5.719l0.75,0.75c4.229-1.233,7.679-3.082,10.75-6.125  c0.024-0.017,0.046-0.038,0.062-0.062c0.017-0.029,0.027-0.061,0.031-0.094c0.001-0.044-0.01-0.087-0.031-0.125  c-0.007-0.022-0.019-0.043-0.031-0.062C144.506,26.64,144.449,26.606,144.388,26.596L144.388,26.596z M153.075,39.189  c-0.044-0.001-0.087,0.01-0.125,0.031c-0.022,0.007-0.043,0.018-0.062,0.031c-0.011,0.009-0.021,0.02-0.031,0.031  c-2.798,2.973-8.825,4.369-15.125,4.031l0.906,0.844c6.397,0.343,11.632-1.383,14.594-4.531c0.046-0.051,0.068-0.119,0.062-0.188  c-0.004-0.033-0.015-0.065-0.031-0.094c-0.007-0.022-0.018-0.043-0.031-0.062C153.193,39.233,153.138,39.2,153.075,39.189  L153.075,39.189z M140.606,54.408l-0.219,0.906c1.933,1.513,5.196,2.564,8.031,3s5.545,0.182,7-0.125  c0.079-0.01,0.148-0.056,0.188-0.125c0.017-0.029,0.027-0.061,0.031-0.094c0.006-0.068-0.017-0.136-0.062-0.188  c-0.044-0.038-0.099-0.061-0.156-0.062c-0.03-0.006-0.063-0.006-0.094,0c-1.347,0.284-3.937,0.333-6.719-0.094  C145.825,57.2,142.746,56.059,140.606,54.408z M134.825,63.221l-0.031,0.469c3.671,4.53,8.995,8.297,15.562,9.562  c0.031,0.006,0.063,0.006,0.094,0c0.033-0.004,0.065-0.015,0.094-0.031c0.022-0.007,0.044-0.018,0.062-0.031  c0.046-0.051,0.068-0.119,0.062-0.188c-0.002-0.058-0.024-0.113-0.062-0.156c-0.009-0.011-0.021-0.022-0.031-0.031  c-0.019-0.013-0.04-0.024-0.062-0.031c-0.009-0.011-0.021-0.022-0.031-0.031c-6.347-1.363-11.009-4.977-14.625-9.438L134.825,63.221  L134.825,63.221z M130.044,69.846l-0.844,0.469c3.937,7.63,10.177,12.578,16.156,17.625c0.017,0.024,0.038,0.045,0.062,0.062  c0.041,0.011,0.084,0.011,0.125,0c0.058-0.002,0.113-0.024,0.156-0.062c0.013-0.02,0.024-0.041,0.031-0.062  c0.017-0.029,0.027-0.061,0.031-0.094c0.006-0.068-0.017-0.136-0.062-0.188c-0.009-0.011-0.021-0.022-0.031-0.031  C139.689,82.517,133.926,77.372,130.044,69.846L130.044,69.846z M109.794,72.877l-0.875,0.031  c0.308,9.056,3.106,16.887,7.438,23.812c0.007,0.022,0.019,0.043,0.031,0.062c0.02,0.013,0.04,0.024,0.062,0.031  c0.028,0.017,0.061,0.027,0.094,0.031c0.041,0.01,0.084,0.01,0.125,0c0.056-0.025,0.101-0.07,0.125-0.125  c0.017-0.029,0.027-0.061,0.031-0.094c0.001-0.044-0.011-0.087-0.031-0.125c0.001-0.011,0.001-0.021,0-0.031  C112.504,89.611,110.1,81.846,109.794,72.877L109.794,72.877z M121.388,73.439l-1.031,0.125  c2.446,13.023,9.837,21.697,18.469,30.438c0.011,0.01,0.021,0.021,0.031,0.031c0.044,0.038,0.099,0.061,0.156,0.062  c0.031,0.006,0.063,0.006,0.094,0c0.036-0.014,0.067-0.035,0.094-0.062c0.013-0.02,0.024-0.041,0.031-0.062  c0.017-0.029,0.027-0.061,0.031-0.094c0.006-0.068-0.017-0.137-0.062-0.188C130.32,93.862,123.988,85.552,121.388,73.439  L121.388,73.439z"/>
<path class="proper eagle-feather" d="M137.54,50.272c5.409,2.95,2.339,8.961-1.87,6.045"/>
<path class="proper eagle-feather" d="M137.115,57.037c3.599,3.891,0.385,7.92-2.756,5.886"/>
<path class="proper eagle-feather" d="M133.553,61.414c3.588,4.907-1.568,8.908-4.418,4.409"/>
<path class="proper eagle-feather" d="M129.182,64.981c4.474,5.519-1.955,10.018-5.509,4.958"/>
<path class="proper eagle-feather" d="M135.554,42.805c6.608,1.19,6.063,8.739,0.907,7.239"/>
<path class="proper eagle-feather" d="M135.554,42.805c3.654-0.091,1.66-5.641-1.88-5.079"/>
<path class="proper eagle-feather" d="M130.648,32.772c2.852-1.823,5.856,3.21,3.025,4.954"/>
<path class="proper eagle-feather" d="M122.771,67.545c4.475,5.519-1.955,10.018-5.508,4.958"/>
<path class="proper eagle-feather" d="M115.734,67.991c4.19,5.519-1.83,10.018-5.16,4.958"/>
<path class="eagle-detail" d="M123.916,32.564c-0.424,1.021,0.844,2.542,1.875,3.438"/>
<path d="M64.422,114.088c-0.28,1.297-0.426,2.958-0.531,4.227c-0.902,0.273-1.743,0.682-2.281,1.344  c-0.011,0.009-0.022,0.02-0.031,0.031c-0.017,0.029-0.027,0.061-0.031,0.094c-0.006,0.031-0.006,0.062,0,0.094  c0.018,0.066,0.063,0.123,0.125,0.156c0.029,0.016,0.061,0.027,0.094,0.031c0.084,0.008,0.167-0.027,0.219-0.094  c0.434-0.533,1.336-0.84,2.438-0.969c0.079-0.01,0.148-0.057,0.188-0.125c0.017-0.029,0.027-0.061,0.031-0.094  c0.094-1.584,0.168-3.021,0.281-4.469L64.422,114.088z"/>
<path class="eagle-detail" d="M56.379,116.283c-3.495,5.857-11.515,13.82-20.219,21.656c-1.864,1.678-3.833,2.561-5.375,2.812  c-1.19,0.193-3.431-0.188-5.438-0.188c-1.527,0-2.562,1.381-2.562,2.625c0,1.453,0.992,3.125,2.875,3.125c2.194,0,2.037-2.5,3-2.5  c1.177,0,1.887,0.441,3.25,0.25"/>
<path class="eagle-detail" d="M36.035,140.814c-2.375,3.188-9.618,5.428-10.375,8.25c-0.381,1.419,0.642,2.926,1.875,4.125  c0.945,0.919,3.02,1.295,4.062-0.125c1.298-1.768,0.427-5.213,2.125-6.625c1.734-1.443,3.253-1.291,5.312-1.75  c1.756-0.393,3.312-1.541,4.562-3.75c0.895-0.351,2.25-0.566,3.188,0c0.963,0.582,1.777,2.25,3.25,2.25  c1.502,0,3.375-1.094,3.375-2.875c0-2.453-1.421-5-3.625-5c-1.408,0-4.381,1.617-5.875,2.625c3.704-4.25,10.542-9.072,14.875-13.875  c0.979-1.085,5.6-1.199,7.281-3.438"/>
<path class="eagle-detail" d="M38.973,135.439c-1.312,1.062-3.551,1.705-5.188,1.688c-2.384-0.026-5.554-2.625-7.938-2.625  c-1.727,0-3.25,1.035-3.25,2.562c0,1.844,1.204,3,2.688,3c0.913,0,1.774-1,2.875-1c0.747,0,1.349,0.963,2.188,1.188  c0.634,0.17,1.562,0.188,2.188,0"/>
<path class="proper eagle-feather" d="M71.936,162.431c-1.154,1.048-2.378,2.228-3.69,3.54  c-13.061,13.061-1.741,24.491,5.156,17.594c-5.493-0.556-4.194-6.965-0.219-9.594c3.935-2.602,6.063-6.062,7.094-9.906  c-0.435,8.475-0.862,16.418-4.906,22.188c-1.212,1.729,1.106,2.688,4,2.688c0.058,1.829,2.116,3.469,4.125,3.469  s4.067-1.64,4.125-3.469c2.893,0,5.212-0.958,4-2.688c-4.045-5.77-4.472-13.713-4.906-22.188c1.029,3.845,3.158,7.305,7.094,9.906  c3.975,2.629,5.273,9.038-0.219,9.594c6.896,6.897,18.217-4.533,5.156-17.594c-1.387-1.387-2.675-2.625-3.887-3.717"/>
<path class="proper eagle-feather" d="M74.688,143.68c-0.343,3.061-2.527,7.326-5.405,10.655c-4.022,4.651-10.188,6.78-12.152,3.335  c-2.883-0.346-2.827,4.317-0.752,6.107c1.779,1.534,5.11,1.797,7.051,0.915c-7.887,5.778-16.561,0.639-16.561-5.183  c0-2.587,1.885-6.205,4.856-5.295c-0.582-1.381-1.777-2.459-3.465-2.459c-4.521,0-8.209,4.909-8.209,10.018  c0,6.32,4.391,12.893,14.953,12.893c13.503,0,21.795-18.489,24.478-28.59"/>
<path class="proper eagle-feather" d="M92.303,143.68c0.344,3.061,2.527,7.326,5.405,10.655c4.022,4.651,10.188,6.78,12.152,3.335  c2.884-0.346,2.827,4.317,0.753,6.107c-1.779,1.534-5.111,1.797-7.051,0.915c7.887,5.778,16.561,0.639,16.561-5.183  c0-2.587-1.885-6.205-4.856-5.295c0.581-1.381,1.776-2.459,3.466-2.459c4.52,0,8.209,4.909,8.209,10.018  c0,6.32-4.391,12.893-14.953,12.893c-13.503,0-21.795-18.489-24.479-28.59"/>
<path class="proper eagle-feather" d="M74.739,135.537c-0.695,3.496-3.169,9.146-10.948,9.146c-2.928,0-5.719,0.623-7.351,2.703  c-1.376,1.754-2.225,5.627-0.007,8.221c0.156-2.63,2.11-4.459,6.8-4.459c7.144,0,13.085-4.671,14.157-12.039"/>
<path class="proper eagle-feather" d="M92.242,135.488c0.682,3.492,3.145,9.195,10.957,9.195c2.928,0,5.719,0.623,7.352,2.703  c1.375,1.754,2.225,5.627,0.007,8.221c-0.157-2.63-2.11-4.459-6.8-4.459c-7.145,0-13.086-4.671-14.157-12.039"/>
<path class="eagle-detail" d="M76.731,49.598c-7.331,4.621-11.593,9.5-11.593,16.163c0,8.182,6.8,18.231,6.8,25.082  c0,3.32-7.709,7.66-10.573,11.772c-1.76,2.527-4.306,12.476-11.106,12.476c-2.311,0-3.617-1.354-3.514-3.124  c-2.141,1.817-1.431,6.311,3.642,6.311c6.447,0,10.091-6.479,12.076-6.479c4.346,0,0.738,11.649,7.915,12.652  c-1.693-8.051,0.79-13.064,4.793-13.99c1.331,5.154-2.97,27.536-13.042,23.41c0.761,3.113,3.547,4.703,6.366,4.703  c9.397,0,11.469-15.833,10.578-22.428"/>
<path class="proper eagle-feather" d="M109.734,67.991c4.19,5.519-1.83,10.018-5.16,4.958"/>
<path class="eagle-detail" d="M98.356,70.449c-4.062,7.619-5.425,12.668-5.425,20.144c0,3.32,9.834,7.91,12.697,12.022  c1.761,2.527,4.307,12.476,11.107,12.476c2.311,0,3.616-1.354,3.513-3.124c2.142,1.817,1.431,6.311-3.642,6.311  c-6.447,0-10.091-6.479-12.076-6.479c-4.346,0-0.738,11.649-7.914,12.652c1.693-8.051-0.789-13.064-4.793-13.99  c-1.332,5.154,2.97,27.536,13.042,23.41c-0.761,3.113-3.547,4.703-6.366,4.703c-9.396,0-11.469-15.833-10.578-22.428"/>
<path class="eagle-detail" d="M110.615,116.283c3.495,5.857,11.516,13.82,20.219,21.656c1.863,1.678,3.833,2.561,5.375,2.812  c1.19,0.193,3.432-0.188,5.438-0.188c1.527,0,2.562,1.381,2.562,2.625c0,1.453-0.991,3.125-2.875,3.125c-2.194,0-2.037-2.5-3-2.5  c-1.177,0-1.887,0.441-3.25,0.25"/>
<path class="eagle-detail" d="M130.959,140.814c2.375,3.188,9.619,5.428,10.375,8.25c0.381,1.419-0.642,2.926-1.875,4.125  c-0.945,0.919-3.02,1.295-4.062-0.125c-1.298-1.768-0.426-5.213-2.125-6.625c-1.733-1.443-3.253-1.291-5.312-1.75  c-1.756-0.393-3.312-1.541-4.562-3.75c-0.895-0.351-2.25-0.566-3.188,0c-0.963,0.582-1.777,2.25-3.25,2.25  c-1.502,0-3.375-1.094-3.375-2.875c0-2.453,1.421-5,3.625-5c1.408,0,4.381,1.617,5.875,2.625  c-3.703-4.25-10.542-9.072-14.875-13.875c-0.979-1.085-5.6-1.199-7.281-3.438"/>
<path class="eagle-detail" d="M128.021,135.439c1.312,1.062,3.552,1.705,5.188,1.688c2.385-0.026,5.555-2.625,7.938-2.625  c1.727,0,3.25,1.035,3.25,2.562c0,1.844-1.203,3-2.688,3c-0.912,0-1.774-1-2.875-1c-0.746,0-1.348,0.963-2.188,1.188  c-0.633,0.17-1.562,0.188-2.188,0"/>
<path d="M102.422,118.408c-0.024,0.018-0.045,0.038-0.062,0.062c-0.012,0.009-0.021,0.02-0.031,0.031  c-0.017,0.029-0.027,0.061-0.031,0.094c-0.01,0.041-0.01,0.084,0,0.125c0.008,0.021,0.02,0.042,0.031,0.062  c0.523,0.907,1.457,1.816,2.625,2.5c0.013,0.007,0.02,0.021,0.031,0.031c0.029,0.016,0.061,0.027,0.094,0.031  c0.033-0.004,0.064-0.016,0.094-0.031c0.129-0.045,0.197-0.184,0.156-0.312c-0.008-0.022-0.018-0.043-0.031-0.062  c-0.018-0.024-0.038-0.046-0.062-0.062c-1.062-0.756-1.996-1.611-2.5-2.375c-0.01-0.012-0.02-0.021-0.031-0.031  c-0.051-0.046-0.119-0.068-0.188-0.062C102.484,118.402,102.453,118.402,102.422,118.408L102.422,118.408z"/>
<path class="proper eagle-feather" d="M105.703,67.656c3.58,4.853-1.027,8.318-4.57,5.462"/>
<path class="eagle-detail" d="M101.133,73.119c-1.596-1.286-2.943-3.617-5.058-3.617c-1.3,0-2.094,0.897-2.438,1.562"/>
<path d="M73.828,15.033c1.06,0.711,1.992,1.549,2.719,2.594c0.276-0.654,0.538-1.325,0.406-2.469  C75.912,15.233,74.87,15.208,73.828,15.033z"/>
<path class="eagle-detail" d="M68.125,56.732c-0.575-0.562-2.967-2.006-5.235-2.006c-5.275,0-9.033,4.013-13.878,4.013  c-6.496,0-10.98-5.206-10.98-11.37c0-7.2,8.249-9.188,8.249-13.488c0-3.331-3.366-5.508-7.297-7.142  c-5.467-2.273-11.946-7.027-5.968-12.254c-7.767,1.142-5.047,12.044,2.006,13.934"/>
<path class="eagle-detail" d="M85.037,30.704c0,2.368-1.858,3.506-5.186,3.228c-3.333-0.279-7.559-0.182-10.643,0.896  c0.548-4.818,8.203-6.571,13.488-6.02c0.613-4.308-3.421-8.317-10.757-6.967c-2.937-2.504-7.851,0.25-8.137,3.511  c-4.011-4.791-0.703-10.757,5.574-10.757c1.408,0,2.883,0.229,4.046,0.344c1.428,1.08,2.941,2.106,3.688,3.688"/>
<path class="eagle-detail" d="M89.18,54.482c1.262-0.812,3.404-2.006,7.859-2.006c8.963,0,10.946,6.263,20.941,6.263  c6.496,0,10.979-5.206,10.979-11.37c0-7.2-8.249-9.188-8.249-13.488c0-3.331,3.366-5.508,7.297-7.142  c5.468-2.273,11.947-7.027,5.969-12.254c7.766,1.142,5.047,12.044-2.007,13.934"/>
<path class="eagle-claws" d="M21.422,134.346c-2.566,0.104-4.529,3.027-1.719,5.25c-0.403-1.728,1.498-2.947,3.531-1.438  c0.83-0.349,1.403-1.944,0.812-2.844C23.213,134.593,22.277,134.311,21.422,134.346z M145.578,134.346  c-0.855-0.035-1.791,0.247-2.625,0.969c-0.591,0.899-0.018,2.495,0.812,2.844c2.033-1.51,3.935-0.29,3.531,1.438  C150.107,137.373,148.145,134.45,145.578,134.346z M53.922,135.689c-0.774,0.057-1.551,0.26-2.25,0.625  c-1.34,1.271-0.785,3.666,1,4.312c1.578-2.027,4.421-1.029,4.312,1.25c2.022-2.137,1.651-4.159,0.344-5.25  C56.468,135.909,55.213,135.596,53.922,135.689z M112.297,135.689c-1.016,0.059-1.969,0.363-2.656,0.938  c-1.308,1.091-1.646,3.113,0.375,5.25c-0.109-2.279,2.734-3.277,4.312-1.25c1.785-0.646,2.34-3.042,1-4.312  C114.396,135.828,113.312,135.631,112.297,135.689z M21.922,141.314c-0.202-0.004-0.402,0.016-0.594,0.031  c-1.276,0.101-2.304,0.66-2.969,1.562c-1.01,1.371-0.754,4.156,1.719,4.75c-0.899-1.938,0.891-3.968,3.656-2.688  c0.892-0.615,1.042-2.397,0.125-3.312C23.18,141.447,22.529,141.328,21.922,141.314z M144.859,141.346  c-0.546,0.033-1.115,0.125-1.719,0.312c-0.916,0.915-0.768,2.697,0.125,3.312c2.766-1.28,4.523,0.75,3.625,2.688  c2.473-0.594,2.76-3.379,1.75-4.75C147.844,141.826,146.498,141.247,144.859,141.346z M26.641,149.252  c-1.988,0.684-3.324,2.398-3.438,4.188c-0.107,1.699,1.308,3.811,3.812,3.5c-1.729-1.488-0.494-4.218,2.062-3.969  C29.837,151.23,28.484,149.153,26.641,149.252z M140.359,149.252c-1.844-0.099-3.196,1.979-2.438,3.719  c2.557-0.249,3.791,2.48,2.062,3.969c2.505,0.311,3.92-1.801,3.812-3.5C143.684,151.65,142.348,149.936,140.359,149.252z"/>
</svg>
