<?xml version="1.0" encoding="UTF-8"?>
<!-- Generator: Adobe Illustrator 15.0.2, SVG Export Plug-In . SVG Version: 6.00 Build 0)  -->
<svg xmlns="http://www.w3.org/2000/svg" xmlns:svg="http://www.w3.org/2000/svg"
	xmlns:rdf="http://www.w3.org/1999/02/22-rdf-syntax-ns#" xmlns:cc="http://creativecommons.org/ns#"
	xmlns:dc="http://purl.org/dc/elements/1.1/" xmlns:xlink="http://www.w3.org/1999/xlink"
	version="1.1" x="0px" y="0px" width="420px" height="350px" viewBox="0 0 420 350"
	style="enable-background:new 0 0 420 350;" xml:space="preserve"
	preserveAspectRatio="xMidYMid meet" zoomAndPan="magnify"
	contentScriptType="text/ecmascript" contentStyleType="text/css">
	<desc>
		In order to adapt the original Inkscape SVG for the purposes of HeDGe (Heraldic Device Generator),
		the following steps were taken:
		1	Saved as plain SVG in Inkscape.
		2	Opened in Adobe Illustrator.
		3	Styles created (and occasionally consolidated for simplicity) and applied to vector objects of same appearance.
		4	One object from each style given a distinctive ID.
		5	Saved as SVG with CSS properties set to Style Elements, which replaces inline styles with classes,
			defined within a style element, which is enclosed in a defs element.
		6 Style classes given distinct names, and class attributes updated with find and replace,
			using distinctive IDs to match generated style names to vector object classes.
		7	The class describing the objects with main charge colour should be split in two:
			a	a class for the stroke;
			b	a class for the fill, which should be given the name 'proper'.
			The 'proper' class will be replaced by the appropriate tincture if required.
			SVG elements affected should be assigned both classes, for example:
				class="proper lion-body"
		8	If there are common style properties, for example if all strokes are black,
			then these can be extracted from the various classes and applied to all objects, for example:
				* {stroke:#000000;}
		9 Metadata section added with appropriate descriptive and licensing information.
		10	If SVG element ID attributes are serving no (further) purpose, they should be removed.
			This can be done with XSLT or a regular expression editor. This will clean up the SVG from
			Inkscape/Illustrator, reducing file size and importantly avoid any potential ID conflicts.
			If some ID attributes are necessary (say, for internal XLink references to definitions or symbols),
			then these should be kept but given distinctive names, probably prefixed with the hyphenated charge type.
	</desc>
	<defs>
		<style type="text/css" xml:space="preserve">
		<![CDATA[
			* {stroke:#666666;}
			.proper{fill:#F8DE00;}
			.lion-body{stroke-width:3;}
			.lion-tongue{fill:#FF2A2A;stroke-width:2.5;}
			.lion-detail-line{fill:none;stroke-width:2.5;}
			.lion-ear-hole{stroke-width:2.5;}
			.lion-claw-tooth-eye{fill:#FFFFFF;stroke-width:2.5;}
		]]>		
		</style>
	</defs>
  <metadata>
  	<rdf:RDF xmlns:rdfs="http://www.w3.org/2000/01/rdf-schema#">
      <cc:Work rdf:about="http://en.wikipedia.org/wiki/File:Lion_Rampant.svg">
      	<dc:format>image/svg+xml</dc:format>
        <dc:type rdf:resource="http://purl.org/dc/dcmitype/StillImage"/>
      	<dc:title>A Heraldic Lion in Passant Attitude</dc:title>
      	<dc:creator>Sodacan</dc:creator>
      	<dc:license>
      		<cc:license>This work is licensed under the Creative Commons Attribution-ShareAlike 3.0 Unported License. To view a copy of this license, visit http://creativecommons.org/licenses/by-sa/3.0/ or send a letter to Creative Commons, 171 Second Street, Suite 300, San Francisco, California, 94105, USA.</cc:license>
      	</dc:license>
      </cc:Work>
    </rdf:RDF>
  </metadata>
	<g>
		<g>
			<g>
				<g transform="translate(-25.163704,-65.527947)">
					<g>
						<path class="proper lion-body" d="M77.144,175.33c0,0,3.666-11.744,7.829-14.321c1.267-0.785,2.989,0.442,4.964-0.191        c2.125-0.681,6.858-1.858,7.447-4.01c0.602-2.202-2.292-7.256-2.292-7.256s-6.607-5.628-10.12-6.11        c-3.828-0.526-12.412,3.437-12.412,3.437l-2.482,10.312L77.144,175.33z"/>
						<path class="proper lion-body" d="M254.588,349.277c0,0-14.093,2.146-17.398-1.218c-1.027-1.045-0.275-2.662-0.869-4.002        c-0.705-1.586-1.756-2.938-3.48-3.131c-2.733-0.308-5.362,3.213-6.785,5.566c-1.9,3.143-2.088,11.309-2.088,11.309l5.567,7.307        l17.065-1.195L254.588,349.277L254.588,349.277z"/>
						<path class="proper lion-body" d="M363.517,271.929c0,0-30.646,22.737-41.675,34.698c-2.632,2.854-6.445,6.833-7.448,10.584        c-0.879,3.287-0.128,8.095,1.027,11.295c1.279,3.55,3.547,9.154,7.119,10.369c3.264,1.109,10.931-3.545,10.931-3.545        s-3.877,7.725-6.922,9.508c-2.248,1.316-6.063,1.504-8.622,1.021c-1.924-0.363-5.754-3.076-5.754-3.076        s0.057,4.608-1.045,6.369c-1.465,2.342-6.322,5.818-6.322,5.818s0.147-3.46,0.106-4.852c-0.069-2.369-0.688-5.137-1.95-7.144        c-0.764-1.213-4.176-2.319-4.176-2.319s1.506,2.516,1.855,3.711c0.746,2.553,1.293,6.182,0.928,8.815        c-0.205,1.485-2.011,3.148-1.855,4.64c0.208,1.996,0.074,3.16,1.8,4.187c1.321,0.786,3.079,1.765,4.466,1.102        c0.906-0.433,3.053-1.292,3.344-2.253c0.241-0.799,1.062-2.571,1.062-2.571s1.333,2.812,1.184,5.437        c-0.081,1.426-1.273,2.797-1.81,3.631c-0.278,0.432-1.11,2.344-3.354,2.949c-2.183,0.588-4.819,0.301-5.31,0.209        c0,0-4.34-0.257-5.937-1.115c-2.446-1.314-5.028-4.256-6.445-6.645c-0.79-1.332-0.676-3.636-1.526-4.93        c-0.704-1.072-2.599-1.676-3.247-2.783c-0.718-1.226-0.716-1.135-0.716-1.135s1.289,0.23,1.875,2.526        c0.649,2.544,2.088,9.278,2.088,9.278L281,364.686l-4.098-3.283c0,0-1.402-1.08-1.312-1.725        c0.096-0.689,1.622-0.736,1.855-1.392c0.576-1.622-1.855-3.712-1.855-3.712s2.255,2.2,1.662,3.844        c-0.216,0.6-1.639,0.684-1.662,1.32c-0.088,2.303,2.605,3.211,5.629,5.221c2.198,1.461,4.936,2.336,5.506,3.998        c0.515,1.501-1.393,5.104-1.393,5.104l-11.135,5.567c0,0-4.876,0.191-6.495-0.928c-2.613-1.807-7.19-8.815-7.19-8.815        l-0.697,0.465v6.959c0,0,5.352,4.895,4.64,7.423c-0.505,1.798-5.567,2.784-5.567,2.784l-14.383,0.928        c0,0-3.195-2.225-3.711-3.712c-0.781-2.251,0.928-7.888,0.928-7.888l-5.567,1.856c0,0-2.1,7.022-4.64,8.351        c-1.24,0.648-3.326,0.018-4.64-0.463c-2.538-0.93-7.423-5.104-7.423-5.104l-4.175-17.631c0,0,2.255-2.986,3.711-3.248        c3.079-0.552,9.743,3.712,9.743,3.712s10.438-3.101,13.918-6.031c3.691-3.108,5.715-9.757,8.814-13.454        c2.088-2.49,5.129-5.706,7.888-7.424c1.01-0.629,2.532-1.244,3.712-1.393c2.502-0.311,5.916,0.277,8.352,0.929        c2.348,0.628,5.02,2.882,7.423,3.247c1.246,0.189,4.176-0.463,4.176-0.463s-8.497-1.744-12.063-2.784        c-4.395-1.282-9.837-4.553-14.383-5.104c-1.388-0.169-3.33,0.958-4.639,0.464c-2.488-0.939-5.06-4.02-6.031-6.495        c-0.152-0.389,0.295-1.097,0-1.392c-1.083-1.083-3.631,0.418-5.104,0c-3.307-0.941-7.399-3.518-9.743-6.031        c-2.038-2.186-4.648-5.827-4.64-8.816c0.006-2.365,2.063-5.262,3.711-6.959c2.346-2.414,9.744-5.566,9.744-5.566        s-3.33,4.623-3.712,6.959c-0.274,1.67-0.078,4.205,0.928,5.566c0.555,0.752,1.879,1.162,2.784,1.393        c3.914,0.996,13.454,0.464,13.454,0.464s4.18-7.724,6.495-10.671c2.92-3.715,7.371-8.28,11.135-11.135        c2.036-1.544,5.088-3.141,7.424-4.176c2.816-1.248,7.416-1.229,9.743-3.248c1.411-1.223,2.106-3.826,2.784-5.566        c0.734-1.889,1.889-4.47,1.855-6.496c-0.067-4.093-4.176-12.99-4.176-12.99s-105.582,47.127-153.642,45.638        c-8.833-0.274-20.452-5.013-27.663-10.12c-3.637-2.577-9.445-11.471-9.445-11.471s-7.43,3.711-8.771,6.748        c-0.985,2.229-0.104,5.786,0.674,8.096c0.843,2.501,4.723,7.422,4.723,7.422s-7.78-2.325-10.121-4.723        c-2.469-2.53-3.999-7.336-4.723-10.795c-0.663-3.17-0.246-6.178,1.349-8.996c1.163-2.055,4.676-6.208,4.676-6.208        s-4.837-7.541-6.655-11.244c-1.593-3.245-3.955-11.474-3.955-11.474s-3.651-0.914-4.74-0.24        c-0.974,0.602-2.196,1.67-2.699,2.698c-0.717,1.466-1.519,4.001-0.675,5.397c0.895,1.48,5.397,2.024,5.397,2.024        s-2.084,2.562-3.373,2.698c-2.701,0.287-6.556-1.812-8.097-4.048c-2.309-3.35-1.824-7.829-0.796-11.765        c0.625-2.391,2.881-5.1,4.723-6.747c1.891-1.691,7.422-4.048,7.422-4.048s-3.98-4.39-4.723-6.747        c-0.547-1.737,0.486-4.317,0-6.072c-0.63-2.275-3.942-4.389-4.048-6.747c-0.313-6.963,10.12-20.915,10.12-20.915        s-6.356,12.229-11.47,14.168c-2.302,0.874-8.096-1.349-8.096-1.349l-4.723-12.819c0,0,0.555-4.485,2.024-5.398        c3.455-2.147,13.494,1.35,13.494,1.35l-8.771-2.699V178.64l7.422-3.373c0,0-8.522,4.457-12.145,3.373        c-2.062-0.616-4.723-5.397-4.723-5.397l2.024-10.12c0,0,2.185-4.625,4.048-4.723c5.004-0.264,12.145,11.47,12.145,11.47        l-7.421-8.771l2.699-4.048l7.421,7.421l-7.421-8.096l0.675-7.421h2.699c0,0-5.072-1.297-6.072-2.924        c-1.171-1.904-1.639-4.628-0.45-6.522c1.839-2.929,10.57-4.498,10.57-4.498s8.072-0.319,10.121,1.799        c1.74,1.8,2.351,4.265,2.024,6.747c-0.272,2.066-3.823,5.847-3.823,5.847s2.411,12.218,4.498,17.092        c2.432,5.681,6.906,12.74,10.795,17.542c3.694,4.562,10.491,8.918,14.168,13.494c5.632,7.007,11.428,17.631,15.518,25.638        c5.199,10.177,14.843,35.084,14.843,35.084l126.167-28.337l54.65,2.024l37.107,15.517L363.517,271.929L363.517,271.929z"/>
						<path class="lion-detail-line" d="M245.609,323.651c0,0,3.517-1.074,4.871-1.855c1.242-0.717,3.711-3.016,3.711-3.016"/>
						<path class="lion-detail-line" d="M262.308,319.476c0,0-3.338,0.704-4.406,1.624c-1.204,1.035-2.418,3.055-2.551,4.638        c-0.143,1.688,1.854,5.335,1.854,5.335"/>
						<path class="lion-detail-line" d="M265.787,321.563c0,0-3.014,1.715-3.479,3.016c-0.688,1.928,0.385,4.83,1.16,6.726        c0.416,1.019,2.087,3.015,2.087,3.015"/>
						<path class="lion-detail-line" d="M272.281,322.723c0,0-2.804,2.65-3.246,4.174c-0.41,1.41-0.076,3.506,0.463,4.871        c0.711,1.799,3.943,5.103,3.943,5.103"/>
						<path class="lion-detail-line" d="M259.525,370.268c0,0,0.411-3.955,0.695-5.334c0.389-1.881,4.407-4.639,4.407-4.639"/>
						<path class="lion-detail-line" d="M242.594,375.37c0,0-0.108-2.745,0.464-3.711c0.787-1.328,4.175-3.014,4.175-3.014"/>
						<path class="lion-detail-line" d="M85.482,273.648c0,0,3.957-3.807,5.41-5.41c1.183-1.306,2.855-3.003,4.328-3.968        c0.891-0.584,3.246-1.442,3.246-1.442"/>
						<path class="lion-detail-line" d="M74.661,250.204c0,0,3.233-1.225,4.689-1.443c2.14-0.321,5.191,0.77,7.214,0        c2.436-0.926,4.85-3.747,6.492-5.771c1.099-1.354,2.885-5.05,2.885-5.05"/>
						<path class="lion-detail-line" d="M71.415,236.137c0,0,5.297,0.037,7.548-1.825"/>
						<path class="lion-detail-line" d="M74.063,207.04c0,0,2.822,15.938,8.234,20.709c3.819,3.367,12.389,4.964,12.389,4.964"/>
						<path class="lion-claw-tooth-eye" d="M84.965,148.628c0.136,1.538,1.023,3.636,2.176,4.663        c0.88,0.785,2.582,1.515,3.73,1.244c1.54-0.364,3.001-0.899,3.623-2.354c1.685-3.946,2.327-8.998,0.933-13.055        c-1.056-3.072-3.95-6.908-6.838-8.393c-1.33-0.684-2.585-1.271-4.041-0.933c-1.464,0.34-4.973,1.865-4.973,1.865        s3.281,1.184,4.352,2.176c1.197,1.108,2.327,3.101,2.797,4.662c0.593,1.966-0.294,3.421-0.515,5.463        C86.053,145.404,84.838,147.186,84.965,148.628L84.965,148.628z"/>
						<path class="lion-claw-tooth-eye" d="M48.18,133.529c0,0,0.83-5.312,3.108-7.149c2.295-1.851,6.377-3.195,9.325-3.108        c2.008,0.059,4.709,1.159,6.217,2.486c2.882,2.539,5.271,6.16,5.906,9.947c0.266,1.587,0.483,3.573-0.311,4.974        c-0.913,1.61-2.812,2.46-4.663,2.486c-1.325,0.019-3.14-1.826-4.041-2.797c-2.322-2.503-1.87-7.36-4.663-9.325        c-0.869-0.612-2.356-0.896-3.419-0.933c-0.951-0.032-2.176,0.436-3.108,0.622C51.132,131.012,48.18,133.529,48.18,133.529z"/>
						<path class="lion-claw-tooth-eye" d="M48.801,171.141c0.957-0.178,2.501-0.171,3.108-0.933c0.874-1.096,0.847-3.367,0.311-4.663        c-0.758-1.832-1.563-3.344-3.419-4.041c-1.047-0.394-5.786,0.554-6.838,0.933c-2.618,0.941-4.272,2.215-5.595,4.663        c-1.205,2.229-1.691,5.976-0.933,8.393c0.594,1.892,2.742,3.816,4.352,4.974c0.984,0.708,3.73,1.554,3.73,1.554        s-1.736-5.029-1.244-7.149c0.287-1.235,1.379-2.801,2.487-3.419C45.822,170.859,47.606,171.363,48.801,171.141z"/>
						<path class="lion-claw-tooth-eye" d="M51.288,196.007c1.259-0.926,3.877,0.439,4.973,1.554c1.159,1.178,1.905,3.669,1.554,5.284        c-0.393,1.809-2.468,3.687-4.041,4.663c-2.21,1.371-5.824,2.585-8.393,2.176c-2.733-0.435-6.147-2.732-7.771-4.973        c-1.751-2.417-2.657-6.655-2.486-9.636c0.074-1.296,1.554-4.041,1.554-4.041s1.186,4.298,2.486,5.595        c1.805,1.797,5.237,3.16,7.771,3.419C48.265,200.184,50.537,196.56,51.288,196.007L51.288,196.007z"/>
						<path class="lion-claw-tooth-eye" d="M226.067,355.863c-1.938,0.196-4.399-1.354-6.348-1.372        c-2.937-0.028-9.607,1.887-9.607,1.887s3.043-4.189,4.804-5.49c2.131-1.574,5.415-3.525,8.063-3.603        c2.035-0.06,5.001,0.874,6.348,2.401c0.875,0.993,1.617,3.104,1.029,4.289C229.731,355.235,227.465,355.721,226.067,355.863z"/>
						<path class="lion-claw-tooth-eye" d="M218.35,369.596c1.485-0.048,3.495,0.5,4.812,1.219c1.346,0.734,3.397,1.973,3.791,3.506        c0.251,0.978-0.439,2.392-1.021,3.201c-0.415,0.578-1.253,1.105-1.896,1.372c-1.357,0.563-3.551-0.008-4.812,0.763        c-1.103,0.673-2.136,2.271-2.625,3.506c-0.691,1.744-1.202,2.541-1.021,4.42c0.139,1.439,1.896,5.793,1.896,5.793        s-4.923-2.242-6.27-3.811c-1.968-2.293-3.201-5.155-3.062-8.232c0.087-1.943,1.369-4.383,2.479-5.944        c1.369-1.928,3.819-4.028,5.833-5.183C216.976,369.907,217.755,369.614,218.35,369.596L218.35,369.596z"/>
						<path class="lion-claw-tooth-eye" d="M247.656,383.989c0.548-0.67,1.749-1.194,2.613-1.221c2.136-0.064,5.422,0.848,6.623,2.614        c0.912,1.341,0.342,3.818,0,5.403c-0.508,2.355-1.843,5.408-3.311,7.319c-1.358,1.769-5.752,4.706-5.752,4.706        s1.113-5.122,0.871-7.32c-0.225-2.038-2.162-4.4-2.266-6.448C246.357,387.485,246.668,385.196,247.656,383.989z"/>
						<path class="lion-claw-tooth-eye" d="M276.761,372.835c1.096-1.602,4.341-1.74,6.273-1.568c1.655,0.146,2.738,0.842,3.834,2.091        c1.441,1.642,2.299,4.798,2.092,6.972c-0.129,1.35-1.167,3.016-2.092,4.008c-1.088,1.168-1.803,2.441-3.311,2.963        c-1.741,0.602-6.1,0.697-6.1,0.697s2.76-2.922,3.137-4.531c0.408-1.75,0.055-4.387-0.871-5.926        c-0.502-0.833-2.122-1.078-2.615-1.917C276.682,374.895,276.285,373.53,276.761,372.835L276.761,372.835z"/>
					</g>
				</g>
				<g transform="translate(-25.163704,-65.527947)">
					<path class="proper lion-body" d="M293.248,262.976c-4.193,1.667-8.619,6.194-11.584,9.599c-1.611,1.849-4.303,6.95-4.303,6.95       s6.519-0.749,9.268-1.324c5.446-1.14,12.316-4.661,17.873-4.964c4.922-0.27,11.48,1.279,16.218,2.647       c5.386,1.555,17.211,7.281,17.211,7.281s-11.136-18.508-19.197-21.845C311.654,258.39,300.368,260.145,293.248,262.976       L293.248,262.976z"/>
				</g>
				<path class="proper lion-body" d="M59.51,284.246c0.79-1.045,2.228-2.232,3.469-2.652c0.986-0.334,2.472-0.299,3.469,0      c2.667,0.799,5.16,4.088,7.753,5.102c4.218,1.647,14.895,2.448,14.895,2.448l-11.324,13.262l-17.955,1.632l-3.264-5.61      c0,0-0.448-4.53-0.102-6.427C56.897,289.539,58.003,286.242,59.51,284.246z"/>
				<path class="proper lion-body" d="M356.24,291.441c0,0-8.99,1.035-12.236-0.692c-2.226-1.185-2.837-5.542-5.079-6.695      c-2.156-1.11-5.865-1.218-8.081-0.231c-1.66,0.74-3.925,4.617-3.925,4.617l4.156,11.775l5.771,0.924l9.835-0.186L356.24,291.441z      "/>
				<path class="proper lion-body" d="M153.268,154.357L83.741,278.645l-7.999,19.688l-6.153,1.23      c0,0-7.79-2.59-11.075-1.846c-2.197,0.498-6.153,4.308-6.153,4.308l6.768,15.381c0,0,3.275,2.345,4.922,2.462      c1.747,0.124,5.538-1.847,5.538-1.847l2.461-5.537c0-0.981,12.227-10.858,15.171-11.691c0.71-0.201,0.691-2.202,0-2.461      c-0.754-0.284-1.769,2.241-3.28,3.674c-1.973,1.869-2.447,3.508-3.41,4.29c-3.695,3.001-3.378,3.468-4.173,7.419      c-0.345,1.717,1.846,5.538,1.846,5.538l19.689,2.461c0,0,6.195-3.47,6.769-6.153c0.673-3.152-3.647-6.688-4.307-9.844      c-0.491-2.35-2.366-7.602,0-7.999c2.248-0.378-1.138,4.45-0.337,8.074c0.983,4.452,5.875,7.923,5.875,7.923l7.999,0.615      c0,0,8.78-7.294,10.46-11.689c0.263-0.69,0.447-1.874,0-2.462c-2.087-2.745-11.075-3.076-11.075-3.076s-0.348-1.431,0.209-2.254      c1.242-1.834,5.943-0.822,5.943-0.822l1.846-12.921l3.077,7.998c0,0,4.27-5.847,5.328-9.432c0.784-2.654,0.875-6.602,0-9.229      c-0.583-1.751-0.812-3.688-0.812-3.688s4.297,3.69,5.736,6.764c0.865,1.847,0.204,7.797,0.204,7.797s2.611-3.156,3.277-4.756      c1.416-3.4,2.775-8.42,2.264-12.068c-0.4-2.861-2.529-6.336-4.307-8.613c-2.095-2.684-2.855-3.476-2.855-3.476      s1.285,0.138,3.174,1.474c2.082,1.473,4.854,4.268,6.449,6.924c1.546,2.576,1.846,9.845,1.846,9.845l3.215-6.313l1.092-7.223      l-2.461-15.998c0,0,9.063-11.464,14.767-12.92c6.595-1.686,15.347,5.15,22.15,4.922c6.538-0.221,14.823-3.781,20.92-6.152      c9.771-3.801,21.753-11.23,31.379-15.383c7.241-3.123,16.919-7.494,24.611-9.229c8.493-1.916,20.574-4.947,28.919-2.462      c5.166,1.54,11.572,6.341,14.151,11.075c3.9,7.162,1.121,18.452,1.219,26.607c0.017,1.359-2.393,3.154-2.126,7.453      c0.278,4.473,3.21,11.451,1.999,12.695c-2.124,2.18-8.368,3.387-8.368,3.387s3.042,2.607,6.716,3.133      c2.929,0.418,6.541-1.109,7.28-1.812c1.843-1.751,3.358-5.191,3.74-5.933c1.942-3.775,0-14.152,0-14.152      s0.208,15.617,4.307,20.305c1.806,2.066,5.033,2.08,6.543,4.371c1.629,2.471,3.171,5.311,1.197,7.515      c-2.876,3.21-8.198,5.826-8.198,5.826s4.86,1.569,9.331,0.425c2.781-0.713,5.22-2.65,6.509-5.216      c2.849-5.667,4.08-14.655,3.076-20.919c-0.587-3.668-5.537-11.076-5.537-11.076s4.34,13.992,9.229,17.229      c3.399,2.251,10.688,1.748,10.688,1.748s-3.548,6.688-4.536,10.558c-1.559,6.104,1.846,20.919,1.846,20.919      s-8.036,3.271-11.69,3.692c-2.391,0.274-5.851-1.7-7.998-0.615c-1.555,0.785-3.077,4.923-3.077,4.923l8.614,15.381      c0,0,4.886,2.076,6.769,1.23c3.166-1.42,3.57-7.135,6.021-9.878c2.423-2.712,8.746-6.733,8.746-6.733l-4.307,14.766l3.076,4.308      h14.151c0,0,4.416-5.276,4.307-7.999c-0.15-3.734-6.768-10.459-6.768-10.459s3.675,0.346,5.474,1.357      c2.241,1.26,4.37,5.41,4.37,5.41h6.769l7.999-6.152c0,0,1.193-5.126,0-6.769c-2.108-2.901-11.368-3.692-11.368-3.692l7.061-8.613      l-4.307-7.383c0,0,9.729,5.727,14.151,4.922c2.837-0.517,6.062-3.591,7.384-6.153c1.104-2.139,0.615-7.999,0.615-7.999      s-2.041,4.098-3.692,4.923c-1.485,0.743-4.397,1.208-5.537,0c-2.156-2.287,0.615-10.46,0.615-10.46s7.352-1.76,9.845-3.691      c1.78-1.381,4.257-3.9,4.307-6.152c0.053-2.406-4.307-6.769-4.307-6.769s0.631,3.575-0.615,4.949      c-1.265,1.395-4.409,3.142-6.153,2.435c-3.32-1.349-6.768-9.846-6.768-9.846s6.52-3.25,7.781-6.496      c0.499-1.284,0.446-4.521-0.829-6.294c-1.917-2.663-3.45-3.405-3.45-3.405s1.349,4.252-0.426,5.736      c-1.791,1.498-5.057,2.65-7.384,2.461c-3.95-0.322-9.016-3.228-11.69-6.152c-3.237-3.543-4.504-8.586-6.372-13.008      c-0.548-1.295-1.312-3.771-1.312-3.771s6.636-0.458,9.31-1.766c1.876-0.918,4.708-4.64,5.143-6.682      c0.649-3.053-1.093-8.038-3.726-9.713c-2.186-1.391-6.414-0.266-6.414-0.266s3.007,2.729,4.018,4.225      c0.717,1.062-1.162,3.869-1.83,4.963c-0.545,0.893-2.41,0.839-3.433,0.615c-5.052-1.104-9.546-6.119-12.611-10.285      c-2.18-2.961-3.691-11.689-3.691-11.689s9.791-0.727,13.536-2.461c6.069-2.812,13.348-8.704,17.228-14.152      c3.083-4.329,5.295-11.368,6.153-16.613c0.984-6.014,0.516-14.316-0.615-20.304c-1.019-5.393-3.342-12.515-6.153-17.228      c-2.545-4.265-11.075-12.306-11.075-12.306s-4.627-2.895-5.537-4.922c-0.832-1.852-1.223-5.147,0-6.768      c0.81-1.073,3.234-2.04,4.307-1.23c1.032,0.778,3.072,7.383,3.072,7.383s2.871-1.612,4.312-4.307      c1.144-2.141-0.29-5.76-1.23-7.999c-0.716-1.702-2.064-4.051-3.692-4.922c-2.934-1.57-8.179-1.997-11.443-1.354      c-4.213,0.83-8.631,3.648-11.444,6.891c-2.028,2.337-3.888,6.765-4.185,9.845c-0.16,1.664,0.246,5.907,0.246,5.907      s-21.008-2.015-31.01-1.6c-10.002,0.415-24.479,3.88-35.071,4.307c-4.431,0.179-10.425,0.281-14.767-0.615      c-6.58-1.357-15.604-3.891-20.92-7.999c-2.513-1.942-4.98-5.663-6.152-8.614c-1.513-3.81-1.9-9.269-0.128-12.964      c1.397-2.911,4.376-5.335,7.511-6.11c3.23-0.799,8.295-1.212,11.075,0.615c1.38,0.907,2.788,3.304,2.462,4.922      c-0.338,1.668-2.661,3.262-4.308,3.692c-1.821,0.476-6.153-1.23-6.153-1.23s-0.83,3.386,0.615,5.31      c1.896,2.521,6.715,4.08,9.846,3.691c2.896-0.359,7.053-2.998,8.943-5.222c2.785-3.28,5.207-10.583,5.207-10.583      s15.139,1.537,21.535,0.615c8.262-1.19,16.898-2.615,24.306-6.463c4.096-2.127,10.544-5.665,13.112-9.498      c2.867-4.277,4.103-11.054,2.963-16.075c-1.015-4.471-4.823-7.887-9.236-9.13c-3.371-0.949-9.532,1.938-9.532,1.938      s5.531,0.511,7.384,1.846c1.952,1.407,4.172,3.382,4.845,5.692c0.31,1.063-0.511,4.353-1.076,5.305      c-1.181,1.989-3.604,3.234-5.692,4.229c-3.062,1.461-7.873,1.588-11.267,1.618c-4.559,0.04-11.607-3.908-16.033-5      c-3.246-0.8-12.151,0.114-12.151,0.114s5.803-7.861,5.844-10.843c0.051-3.737-0.244-8.868-2.693-11.69      c-1.787-2.058-5.313-3.844-8-4.307c-2.393-0.412-4.119-0.488-5.699,1.355c-0.962,1.121-2.555,3.344-2.299,4.798      c0.375,2.128,1.344,3.352,1.344,3.352s1.291-2.074,2.963-3.352c0.881-0.672,2.793-0.647,3.691,0      c0.947,0.683,2.7,3.803,2.49,4.952c-0.682,3.744-6.895,7.962-10.203,9.844c-5.049,2.874-12.617,0.003-18.213,1.562      c-5.978,1.665-14.204,4.153-19.074,7.999c-4.665,3.684-9.775,10.37-11.689,15.997c-2.049,6.016-1.995,14.991-0.531,21.174      c1.445,6.107,5.63,13.809,9.845,18.458c4.917,5.424,13.632,10.522,20.304,13.536c5.223,2.359,12.746,3.898,18.459,4.35      c5.365,0.423,12.487-0.747,17.844-1.273c7.933-0.779,26.457-2.461,26.457-2.461s-13.365,4.21-17.844,7.999      c-3.049,2.579-6.854,7.117-7.383,11.075c-0.388,2.893,0.968,7.21,3.076,9.229c1.941,1.859,8.613,2.461,8.613,2.461      s-4.569-4.375-4.307-6.768c0.086-0.778,1.097-1.619,1.846-1.846c1.802-0.545,4.28,1.421,6.153,1.23      c5.184-0.527,12.39-3.008,15.997-6.768c2.184-2.276,3.691-9.844,3.691-9.844s-2.628,11.589,0,15.382      c1.797,2.593,7.016,5.377,10.104,6.021c3.438,0.717,8.153-0.456,11.432-1.714c2.193-0.842,5.333-3.197,5.537-5.538      c0.197-2.245-4.307-6.153-4.307-6.153s0.914,3.393,0,4.307c-1.175,1.174-3.982,0.584-5.537,0      c-1.837-0.69-4.111-2.521-4.923-4.307c-0.687-1.513-0.676-4.02,0-5.538c1.011-2.269,3.872-4.556,6.153-5.538      c4.252-1.83,10.984-2.678,15.382-1.23c5.344,1.759,11.451,7.37,14.151,12.306c3.044,5.565,4.499,14.738,3.076,20.919      c-1.102,4.79-5.363,10.501-9.229,13.536c-3.722,2.922-14.768,5.538-14.768,5.538s-20.324-0.088-25.495-1.186      c-14.023-2.979-23.336-9.008-37.567-10.73c-5.501-0.666-14.541-1.395-20.079-1.541c-9.413-0.249-24.092,0.761-33.463-0.152      c-15.856-1.545-51.812-5.231-51.812-5.231l-20.474-5.156L153.268,154.357L153.268,154.357z"/>
				<path class="lion-detail-line" d="M246.617,53.707c0,0,7.484-1.014,10.708-0.945c3.62,0.078,7.479,0.878,10.708,2.52      c2.441,1.242,6.424,4.734,7.209,7.359c0.303,1.012-0.629,3.464-0.629,3.464"/>
				<path class="lion-detail-line" d="M279.37,53.707c0,0,8.72,4.961,12.68,6.564c3.369,1.363,15.034,3.198,15.034,3.198"/>
				<path class="lion-detail-line" d="M301.415,52.762c0,0,6.186,3.655,9.133,4.409c3.574,0.915,12.282,0.63,12.282,0.63"/>
				<path class="lion-detail-line" d="M285.983,39.535c0,0-5.559,3.476-8.188,4.409c-1.902,0.676-4.643,1.701-6.613,1.26      c-1.254-0.281-3.464-2.52-3.464-2.52"/>
				<path class="lion-detail-line" d="M339.945,96.397c0,0,3.655-0.342,5.168,0c5.025,1.135,15.505,7.383,15.505,7.383      s-2.426-7.693-2.215-11.075c0.196-3.146,1.258-7.586,3.322-9.967c1.623-1.871,4.974-3.123,7.384-3.692      c0.646-0.153,2.215,0,2.215,0"/>
				<path class="lion-detail-line" d="M297.983,136.208c0,0,1.911-4.59,3.596-6.07c1.878-1.648,6.934-3.157,9.201-4.207      c1.508-0.698,3.606-1.88,4.431-3.323c0.497-0.871,0.369-3.322,0.369-3.322"/>
				<path class="lion-detail-line" d="M327.711,113.142l-2.94,9.148"/>
				<path class="lion-detail-line" d="M355.811,181.756c0,0-6.683-3.062-10.129-3.92c-3.043-0.759-7.402,0.721-10.455,0      c-2.56-0.605-7.842-3.921-7.842-3.921"/>
				<path class="lion-detail-line" d="M327.711,187.638c0,0,6.816,1.246,9.149,2.94c3.521,2.559,4.642,8.554,7.582,11.763      c1.926,2.101,4.706,3.876,5.911,5.843c1.029,1.678,2.508,6.064,2.508,6.064s1.783-4.727,1.71-7.206      c-0.027-0.957-0.067-6.989-0.067-6.989s6.03,8.573,9.802,10.783c1.129,0.66,4.248,0.98,4.248,0.98"/>
				<path class="lion-detail-line" d="M378.506,239.879c0,0,4.503,2.717,6.648,3.324c1.819,0.515,6.278,0.554,6.278,0.554"/>
				<path class="lion-detail-line" d="M394.941,265.547c0,0-1.739-5.673-3.14-7.756c-1.552-2.309-4.235-5.078-6.647-6.463      c-0.897-0.516-3.324-0.924-3.324-0.924"/>
				<path class="lion-detail-line" d="M377.029,258.345c0,0,5.614,2.083,7.201,4.062c2.343,2.924,3.246,8.132,4.986,11.449      c0.878,1.675,1.959,4.046,3.323,5.354c1.057,1.014,4.248,2.401,4.248,2.401"/>
				<path class="lion-detail-line" d="M382.753,278.104c0,0-5.038-7.896-6.278-9.602c-1.038-1.43-4.062-3.324-4.062-3.324"/>
				<path class="lion-detail-line" d="M207.645,161.098l5.188,10.863"/>
				<path class="lion-detail-line" d="M214.193,159.437l3.404,8.797"/>
				<path class="lion-detail-line" d="M220.416,159.013l3.365,5.559"/>
				<path class="lion-detail-line" d="M225.856,157.812l2.999,5.607"/>
				<path class="lion-detail-line" d="M363.009,252.064l-3.373,4.896L352,262.004c0,0,1.146,1.832,2.352,2.564      c0.771,0.469,2.564,0.822,3.42,0.535c1.596-0.535,3.765-1.567,4.81-2.886c0.522-0.659,0.854-2.672,0.854-2.672"/>
				<path class="lion-detail-line" d="M336.5,232.911c0,0,1.053,6.39,2.736,8.457c1.572,1.931,4.844,3.343,7.214,4.104      c2.035,0.654,3.969,1.129,5.97,0.373c1.754-0.663,5.348-4.229,5.348-4.229s-1.313,4.991-2.736,6.592      c-1.875,2.109-5.438,4.056-8.208,4.602c-1.808,0.355-4.352-0.15-6.095-0.746c-2.343-0.803-7.089-4.229-7.089-4.229"/>
				<path class="lion-detail-line" d="M322.695,246.84c0,0,0.266,6.416,1.741,8.707c1.152,1.787,3.835,3.139,5.1,4.85      c1.186,1.605,2.227,3.455,2.86,5.348c0.679,2.027,1.848,8.601,1.848,8.601"/>
				<path class="lion-detail-line" d="M344.346,184.37c0,0,5.096,4.652,6.653,7.129c1.67,2.655,3.802,9.743,3.802,9.743"/>
				<path class="lion-detail-line" d="M198.122,230.543c0,0-8.619-1.439-11.9-3.132c-2.609-1.345-5.861-3.839-7.516-6.263      c-1.842-2.699-3.445-10.335-3.445-10.335"/>
				<path class="lion-detail-line" d="M207.831,225.219c0,0-10.12-0.729-13.688-2.687c-2.109-1.157-4.707-3.175-6.263-5.011      c-1.741-2.053-4.384-7.829-4.384-7.829"/>
				<path class="lion-detail-line" d="M218.165,220.835c0,0-13.477-3.107-18.79-5.638c-2.564-1.221-8.253-7.021-8.253-7.021"/>
				<path class="lion-detail-line" d="M197.405,204.844c0,0,3.625,3.984,5.728,4.717c1.896,0.661,4.359,1.422,6.346,1.715      c1.775,0.262,5.258,0.396,5.258,0.396"/>
				<path class="lion-detail-line" d="M205.952,202.984c0,0,2.014,2.325,3.131,2.818c1.423,0.628,3.806,0.604,5.323,0.939      c1.469,0.326,5.012,0,5.012,0"/>
				<path class="lion-detail-line" d="M214.721,201.105c0,0,5.256,0.903,7.516,1.252c1.312,0.204,4.384,0.627,4.384,0.627"/>
				<path class="lion-detail-line" d="M225.681,197.974c0,0,7.262,0.44,10.335,0.939c1.619,0.263,5.323,1.253,5.323,1.253"/>
				<path class="lion-detail-line" d="M234.763,193.902c0,0,7.071,1.072,10.021,1.879c2.122,0.581,6.891,2.506,6.891,2.506l0,0"/>
				<path class="lion-detail-line" d="M247.916,191.084c0,0,4.875,0.657,6.889,1.253c1.882,0.556,4.43,1.391,6.037,2.518      c1.561,1.096,4.298,4.685,4.298,4.685"/>
				<path class="lion-claw-tooth-eye" d="M65.104,286.436c-1.892-2.163-4.865-3.414-7.737-3.315c-2.47,0.085-5.444,2.134-7.369,3.685      c-1.99,1.603-4.644,4.174-5.342,6.632c-0.366,1.286-0.292,2.338,0.368,3.5c0.623,1.096,2.395,3.132,2.395,3.132      s0.384-2.668,1.105-3.5c1.084-1.252,3.379-1.949,4.974-2.395c1.658-0.464,4.02-0.232,5.711-0.553      c1.186-0.226,2.857-0.447,3.868-1.105c1.085-0.707,2.485-2.052,2.764-3.316C66.025,288.361,65.668,287.082,65.104,286.436z"/>
				<path class="lion-claw-tooth-eye" d="M63.077,303.568c0.77,1.344,0.812,3.742,0.185,5.158c-0.557,1.255-2.218,2.457-3.5,2.947      c-1.652,0.633-4.271-0.518-5.895,0.185c-1.937,0.838-3.899,3.157-4.974,4.974c-0.704,1.189-1.289,3.039-1.29,4.422      c-0.001,1.783,1.658,5.71,1.658,5.71s-6.089-4.624-7.185-7.553c-0.873-2.331-0.39-5.919,0.368-8.29      c0.682-2.132,2.458-4.693,4.053-6.264c1.486-1.463,3.898-3.081,5.895-3.684c1.906-0.576,4.713-0.715,6.632-0.185      C60.413,301.373,62.361,302.317,63.077,303.568z"/>
				<path class="lion-claw-tooth-eye" d="M91.815,317.568c-0.215-2.045-1.879-3.532-3.869-4.053c-2.193-0.572-5.813-0.531-7.553,0.922      c-1.256,1.049-0.805,3.733-1.105,5.342c-0.37,1.982-1.074,4.615-1.105,6.633c-0.032,2.062,0.216,4.877,0.921,6.815      c0.424,1.167,1.172,2.818,2.21,3.5c1.496,0.983,5.895,0.921,5.895,0.921s-3.36-2.451-3.869-4.053      c-0.457-1.438,0.146-3.586,0.737-4.974c0.956-2.248,3.325-4.646,4.974-6.448C90.372,320.732,92.02,319.514,91.815,317.568z"/>
				<path class="lion-claw-tooth-eye" d="M119.448,305.595c2.118,1.079,4.254,2.308,5.342,4.421c1.188,2.311,1.051,6.283,0,8.658      c-0.665,1.503-1.592,2.94-2.947,3.869c-1.427,0.978-5.158,2.579-5.158,2.579s0.961-3.062,1.105-4.421      c0.168-1.596,0.497-3.891-0.184-5.343c-0.88-1.878-4.435-2.661-5.158-4.605c-0.447-1.202-0.237-3.228,0.553-4.237      c0.841-1.074,2.873-1.623,4.237-1.658C117.936,304.84,118.825,305.277,119.448,305.595L119.448,305.595z"/>
				<path class="lion-claw-tooth-eye" d="M332.102,288.918c-1.418-1.43-4.628-1.372-6.625-1.104c-2.35,0.316-3.367,0.701-5.325,2.039      c-1.708,1.168-4.158,2.881-4.968,4.785c-0.865,2.031,0,7.36,0,7.36s4.035-5.247,6.44-6.624c2.614-1.498,5.11,0.015,7.901-1.12      c1.009-0.41,2.663-0.855,3.128-1.84C333.107,291.455,332.85,289.672,332.102,288.918L332.102,288.918z"/>
				<path class="lion-claw-tooth-eye" d="M329.445,303.746c2.041,0.088,3.008-0.374,4.417,1.104c1.229,1.29,2.256,4.026,1.656,5.704      c-0.36,1.01-2.007,1.506-2.944,2.025c-1.579,0.873-4.142,1.228-5.521,2.392c-1.159,0.978-2.328,2.779-2.761,4.232      c-0.346,1.164-0.268,2.864,0,4.048c0.283,1.253,1.391,2.012,2.024,3.129c0.196,0.346-3.149-0.005-4.601-0.736      c-1.5-0.755-3.266-2.379-4.049-3.864c-1.121-2.128-0.561-4.228-0.367-6.624c0.182-2.263,2.038-3.826,3.312-5.705      c1.298-1.913,3.831-3.916,5.889-4.969C327.312,304.068,328.536,303.707,329.445,303.746L329.445,303.746z"/>
				<path class="lion-claw-tooth-eye" d="M356.497,318.469c0,0,3.373-1.814,4.969-2.025c0.882-0.116,1.458-0.111,2.208,0.369      c1.587,1.016,3.235,3.453,3.312,5.336c0.104,2.541-2.559,5.363-3.864,7.545c-0.897,1.498-2.577,4.785-2.577,4.785      s-4.276-9.662-4.508-11.647C355.759,320.451,356.396,318.669,356.497,318.469z"/>
				<path class="lion-claw-tooth-eye" d="M387.045,300.618c1.259-0.417,3.202-0.349,4.416,0.184c1.501,0.659,3.312,2.321,3.864,3.864      c0.768,2.142,0.045,5.409-0.735,7.545c-1.035,2.834-5.705,8.281-5.705,8.281s0.114-4.787-0.184-6.809      c-0.185-1.246-0.338-3.05-1.104-4.049c-0.934-1.217-3.652-1.246-4.417-2.576c-0.494-0.861-0.428-2.416,0-3.312      C383.822,302.4,385.628,301.086,387.045,300.618L387.045,300.618z"/>
				<path class="lion-detail-line" d="M106.257,209.428c0,0,2.223-8.939,4.084-12.641c1.213-2.412,5.623-7.028,5.623-7.028"/>
			</g>
			<g>
				<path class="lion-tongue" d="M145.746,106.738c0,0-9.547-5.723-14.256-6.292      c-3.346-0.404-7.951-0.408-11.256,0.201c-4.747,0.874-11.721,6.154-16.516,6.796c-2.257,0.302-4.146,0.578-5.77-0.831      c-2.905-2.521-0.712-7.534-2.51-10.751c-0.879-1.574-3.063-3.199-4.824-4.028c-2.18-1.026-5.583-1.87-8.04-1.611      c-1.53,0.161-4.594,2.014-4.594,2.014s4.057,1.989,5.054,3.424c2.187,3.148,0.573,8.821,2.527,12.085      c0.77,1.286,2.606,2.522,3.905,3.424c1.334,0.927,3.187,2.21,4.824,2.618c3.646,0.909,8.932,0.709,12.634,0      c4.519-0.866,9.494-5.905,14.013-6.771c3.434-0.658,8.256,0.586,11.715,1.132c2.532,0.399,8.04,2.618,8.04,2.618L145.746,106.738      z"/>
				<path class="lion-claw-tooth-eye" d="M101.329,87.929c0.452-1.46,0.868-0.979,2.309-1.489c1.452-0.514,1.424-0.79,2.579,0.229      c1.046,0.923,1.337,0.573,1.501,1.958c0.424,3.575-0.022,7.16-1.39,10.49c-0.581,1.414-2.172,3.239-2.172,3.239      s-1.166-1.378-1.702-3.074C101.321,95.698,100.217,91.52,101.329,87.929z"/>
				<path class="lion-claw-tooth-eye" d="M103.229,115.386c-0.042,1.528,0.506,1.206,1.707,2.153c1.208,0.954,1.093,1.206,2.515,0.614      c1.288-0.537,1.45-0.112,2.052-1.371c1.552-3.248,2.284-6.786,2.062-10.379c-0.095-1.526-1.014-3.766-1.014-3.766      s-1.547,0.929-2.601,2.362C105.722,108.028,103.332,111.628,103.229,115.386z"/>
				<g transform="translate(-537.30128,8.114194)">
					<path class="proper lion-body" d="M688.439,102.204c0,0-14.548,15.122-22.05,19.95c-7.119,4.581-18.796,6.596-25.899,11.2       c-7.172,4.648-15.853,12.427-21,19.25c-3.535,4.686-6.571,12.05-8.75,17.5c-1.998,4.996-1.865,12.968-5.25,17.15       c-1.36,1.68-4.232,2.867-6.3,3.5c-4.636,1.418-11.792-0.826-16.1,1.399c-4.037,2.087-8.591,7.169-9.8,11.55       c-0.679,2.463-0.202,6.41,1.4,8.4c1.772,2.202,8.75,3.5,8.75,3.5s-3.113-5.369-2.45-7.7c0.529-1.862,3.021-3.73,4.9-4.2       c2.817-0.704,6.568,1.74,9.45,2.1c3.544,0.442,8.341,0.65,11.9,0.351c2.667-0.225,8.75-1.75,8.75-1.75s-2.652,8.405-1.75,11.899       c0.692,2.685,4.661,4.742,5.6,7.35c0.89,2.473,1.078,6.227,0.35,8.75c-1.234,4.282-8.4,12.25-8.4,12.25s11.099-3.415,14.7-6.649       c3.081-2.769,6.183-7.84,7-11.899c0.774-3.844-2.976-9.227-1.75-12.95c1.556-4.726,11.55-11.899,11.55-11.899       s0.481,8.666,1.4,12.249c0.62,2.418,3.724,5.271,3.15,7.7c-0.769,3.259-6.922,4.346-8.4,7.35c-1.486,3.021-1.273,7.883-0.7,11.2       c0.409,2.364,1.55,5.562,3.15,7.35c2.415,2.698,6.999,5.026,10.5,5.95c1.219,0.32,4.2,0,4.2,0s-7.111-4.534-8.4-7.7       c-0.714-1.753-0.45-4.585,0.35-6.3c0.974-2.087,3.841-3.764,5.6-5.25c2.519-2.128,6.663-4.098,8.75-6.65       c2.14-2.617,4.05-6.877,4.9-10.149c0.899-3.461,0.7-11.899,0.7-11.899s-0.272,6.447,1.434,9.461       c1.024,1.809,5.122,4.902,6.266,6.639c0.934,1.416,2.264,3.562,2.1,5.25c-0.206,2.115-2.75,4.13-3.85,5.949       c-0.996,1.65-3.15,5.601-3.15,5.601s9.403-4.362,12.6-7.351c2.872-2.684,6.688-6.974,7.35-10.85       c0.347-2.033-1.116-4.687-1.75-6.649c-0.449-1.392-1.322-3.151-1.75-4.55c-0.41-1.34-1.478-3.217-1.05-4.551       c0.727-2.266,5.95-5.25,5.95-5.25s-1.279,4.398-1.05,6.301c0.382,3.176,4.2,9.8,4.2,9.8s0.441-5.974,2.1-7.7       c2.899-3.017,9.643-2.167,13.3-4.199c4.231-2.352,9.271-6.686,12.25-10.5c3.323-4.257,6.549-10.913,8.05-16.1       c0.88-3.041-0.423-7.698,1.05-10.5c1.665-3.165,7.06-4.763,9.1-7.7c1.591-2.292,1.391-6.585,3.15-8.75       c2.021-2.488,7.712-2.71,9.099-5.6c1.465-3.053-0.403-7.964-1.399-11.2c-1.492-4.847-7.7-15.05-7.7-15.05l-1.75-22.75       l-11.55-13.65l-49.349,13.65L688.439,102.204L688.439,102.204z"/>
					<path class="proper lion-body" d="M729.603,47.735c0,0,2.646-3.466,3.444-6.413c0.487-1.796,0.136-7.063-0.175-9.68       c-0.292-2.452-1.118-3.417-1.118-3.417s-0.485,2.998-1.174,4.544c-1.159,2.602-5.882,7.452-5.882,7.452s0.808-3.446,0.706-4.939       c-0.315-4.613-4.234-14.818-4.234-14.818s-1.755,9.994-4.234,13.407c-2.141,2.947-4.981,1.981-8.423,3.173       c-8.611,2.981-24.292,0.709-34.124,4.657c-4.05,1.626-12.364,7.384-12.364,7.384s-10.349,3.551-16.105,2.503       c-2.115-0.385-4.584-2.315-6.695-1.913c-3.742,0.713-6.753,0.638-9.883,1.594c-3.938,1.203-4.154,9.479-2.87,13.391       c0.43,1.311,2.206,2.49,2.551,3.826c0.575,2.23-1.321,5.452-0.638,7.651c0.807,2.596,3.282,5.85,5.739,7.014       c3.371,1.597,8.582,0.24,12.115-0.957c3.877-1.312,8.075-0.965,10.202-4.463c0.858-1.411,3.507-6.695,3.507-6.695       s6.212,4.493,7.652,8.29c1.255,3.31,1.185,8.591-0.319,11.796c-2.216,4.725-8.207,9.588-13.072,11.478       c-4.369,1.697-11.326-1.558-15.622,0.319c-3.409,1.49-6.787,2.85-7.971,6.376c-0.766,2.283-1.244,7.094,0.319,8.927       c1.807,2.119,5.621,0.139,7.014,2.55c0.789,1.366,0.638,6.695,0.638,6.695s6.188-4.019,7.651-6.695       c0.928-1.697,0.957-6.376,0.957-6.376s15.169,1.021,21.679,0.957c4.504-0.044,12.229,1.055,16.26-0.957       c3.156-1.575,5.658-5.473,6.376-8.927c0.265-1.273-1.275-4.145-1.275-4.145s2.317-1.427,3.507-0.319       c2.947,2.745,4.056,6.176,4.145,10.202c0.157,7.079-0.729,17.544-3.826,23.911c-1.816,3.735-5.066,8.642-8.636,12.172       c-1.451,1.434-2.954,2.641-4.435,3.45c-3.611,1.972-9.583,1.965-13.072,4.145c-2.352,1.47-5.077,4.245-6.376,6.695       c-1.055,1.989-1.739,5.086-1.594,7.333c0.183,2.838,3.188,8.926,3.188,8.926l2.465-7.271l12.53-6.015       c0,0,16.539-3.687,22.554-7.518c6.639-4.228,6.799-6.63,6.799-6.63s-1.48,9.065-9.305,16.152       c-2.447,2.216-9.523,5.514-9.523,5.514s13.477-0.983,18.544-3.509c6.002-2.991,12.641-9.581,16.54-15.036       c3.524-4.931,9.013-21.773,9.013-21.773s-4.276-15.793-7.509-23.335c-1.758-4.102-8.019-12.53-8.019-12.53       s6.107,8.679,8.003,12.789c4.199,9.104,10.041,31.874,10.041,31.874s4.781-14.603,5.513-21.106       c0.539-4.784,0.754-11.391-0.501-16.039c-1.07-3.962-6.516-12.029-6.516-12.029s5.137,8.412,6.46,12.389       c1.505,4.522-0.05,11.692,2.562,15.678c3.039,4.641,9.99,9.965,15.537,10.024c2.295,0.024,5.021-2.268,6.516-4.01       c2.019-2.353,4.366-6.444,4.01-9.523c-0.235-2.032-4.01-5.513-4.01-5.513s-1.847,4.86-3.164,6.335       c-1.142,1.279-3.335,0.784-4.792-0.118c-1.305-0.806-1.121-4.759-1.363-6.273c-1.195-7.477,3.385-16.285,0.775-22.358       c-0.888-2.067-3.801-7.581-6.379-9.232c-1.688-1.08-8.132-3.94-8.132-3.94s4.292-2.757,5.513-4.511       c2.637-3.784,4.25-9.986,5.012-14.535c0.547-3.263,0-11.027,0-11.027s-10.215,0.338-14.535,1.002       C735.282,46.151,729.603,47.735,729.603,47.735L729.603,47.735z"/>
					<g transform="translate(149.02369,7.1978252)">
						<path class="lion-claw-tooth-eye" d="M525.127,50.679c-1.637,3.721,2.163,8.987,8.486,11.763        c6.324,2.775,12.777,2.008,14.414-1.712c0.001-0.003,0.003-0.007,0.004-0.01c1.637-3.721-2.163-8.988-8.486-11.763        s-12.777-2.009-14.414,1.712C525.13,50.672,525.129,50.676,525.127,50.679z"/>
						<path class="lion-claw-tooth-eye" d="M541.272,53.029c0.003,4.422-3.58,8.01-8.002,8.013c-4.422,0.003-8.01-3.58-8.013-8.001        c0-0.004,0-0.008,0-0.011c-0.003-4.422,3.58-8.01,8.001-8.013c4.422-0.003,8.01,3.58,8.013,8.002        C541.272,53.021,541.272,53.025,541.272,53.029z"/>
						<path d="M533.923,46.14c-0.604-0.001-1.145,0.093-1.688,0.156c-1.084,0.128-2,0.312-2,0.312l0.781,3.406        c0,0,0.747-0.146,1.625-0.25c0.879-0.103,1.981,0.044,1.812-0.031c-0.076-0.034,0.632,0.759,0.688,0.938        c0.177,0.572,0.074,2.707-0.213,3.286c-0.1,0.203-0.917,0.921-0.969,0.938c0.26-0.085-0.604-0.01-1.25-0.125        c-0.646-0.115-1.188-0.25-1.188-0.25s-1.771-0.21-2.022,0.368c-0.333,0.768,1.016,2.596,1.016,2.596s0.697,0.165,1.531,0.312        c0.835,0.148,1.686,0.41,2.938,0c1.492-0.488,2.412-1.436,3.031-2.688c0.832-1.68,1.036-3.632,0.469-5.469        c-0.403-1.304-1.102-2.423-2.594-3.094C535.184,46.228,534.527,46.142,533.923,46.14z"/>
						<path class="proper lion-body" d="M532.471,40.772c0,0-2.761,0.431-3.902,0.887c-2.24,0.896-4.5,2.926-4.789,5.321        c-0.151,1.252,0.333,2.317,1.242,3.192c0.977,0.942,2.547,0.826,3.902,0.887c1.985,0.09,4.448-1.473,6.386-1.241        c2.79,0.333,6.407,2.043,8.514,3.902c0.985,0.87,1.204,3.009,2.306,3.725c0.991,0.644,2.847,1.063,3.902,0.532        c1.085-0.546,1.648-2.371,1.951-3.547c0.146-0.567,0.165-1.39,0-1.951c-0.25-0.85-0.984-1.843-1.596-2.483        c-0.766-0.8-3.015-2.128-3.015-2.128"/>
					</g>
					<path class="lion-detail-line" d="M630.654,65.898c0,0,4.877-6.63,7.106-7.553c2.229-0.923,3.064-0.793,3.504,0       c0.439,0.793,0.304,2.044-1.348,3.678C638.265,63.656,630.654,65.898,630.654,65.898z"/>
					<path class="lion-ear-hole" d="M729.188,59.265c0,0,2.727-4.385,4.572-5.461       c2.912-1.698,11.05-2.032,11.05-2.032s1.38,7.074-0.508,9.018c-0.933,0.96-3.499-0.565-4.446,0.381       c-1.245,1.243,0.75,4.612-0.508,5.843c-0.846,0.828-3.938,0.254-3.938,0.254s0.055-5.006-1.27-6.478       C733.101,59.633,729.188,59.265,729.188,59.265z"/>
					<path class="lion-detail-line" d="M721.787,61.847c0,0-5.477,11.054-9.136,14.759c-1.932,1.956-5.107,4.099-7.731,4.919       c-5.035,1.576-18.16,2.472-18.16,2.472l-0.816,1.042c0,0,14.755-3.82,18.976,0c1.571,1.422,1.577,5.098,0.703,7.028       c-0.749,1.652-2.776,3.954-4.33,4.89c-2.423,1.459-8.827,3.234-8.827,3.234"/>
					<path class="lion-detail-line" d="M717.57,118.072c0,0,0.823,8.459,0,11.948c-1.3,5.506-3.731,10.267-6.571,15.16       c-1.145,1.973-4.217,6.325-4.217,6.325"/>
					<path class="lion-detail-line" d="M629.016,189.759c0,0-6.334,4.26-8.634,6.809c-1.701,1.885-4.719,7.951-4.719,7.951"/>
					<path class="lion-detail-line" d="M694.377,179.217c0,0-12.23,3.882-17.295,7.333c-2.344,1.598-4.454,4.981-5.669,7.545       c-1.899,4.005-3.04,11.447-3.04,11.447"/>
					<path class="lion-detail-line" d="M693.014,198.29c0,0,6.946-6.828,9.797-9.234c3.844-3.243,11.233-4.974,14.057-9.137       c1.81-2.669,2.108-10.541,2.108-10.541"/>
					<path class="lion-detail-line" d="M627.61,153.916c0,0-0.542,9.613-2.108,13.354c-2.329,5.562-7.332,12.285-11.948,16.165       c-2.526,2.124-9.839,4.92-9.839,4.92l0,0"/>
				</g>
			</g>
		</g>
	</g>
</svg>
