<?xml version="1.0" encoding="UTF-8"?>
<!-- Generator: Adobe Illustrator 15.0.2, SVG Export Plug-In . SVG Version: 6.00 Build 0)  -->
<svg xmlns="http://www.w3.org/2000/svg" xmlns:cc="http://creativecommons.org/ns#" xmlns:dc="http://purl.org/dc/elements/1.1/" xmlns:rdf="http://www.w3.org/1999/02/22-rdf-syntax-ns#" xmlns:svg="http://www.w3.org/2000/svg" xmlns:xlink="http://www.w3.org/1999/xlink" version="1.1" x="0px" y="0px" width="400px" height="420px" viewBox="0 0 400 420" style="enable-background:new 0 0 400 420;" xml:space="preserve" preserveAspectRatio="xMidYMid meet" zoomAndPan="magnify" contentScriptType="text/ecmascript" contentStyleType="text/css">
	<desc>
		In order to adapt the original Inkscape SVG for the purposes of HeDGe (Heraldic Device Generator),
		the following steps were taken:
		1	Saved as plain SVG in Inkscape.
		2	Opened in Adobe Illustrator.
		3	Styles created (and occasionally consolidated for simplicity) and applied to vector objects of same appearance.
		4	One object from each style given a distinctive ID.
		5	Saved as SVG with CSS properties set to Style Elements, which replaces inline styles with classes,
			defined within a style element, which is enclosed in a defs element.
		6 Style classes given distinct names, and class attributes updated with find and replace,
			using distinctive IDs to match generated style names to vector object classes.
		7	The class describing the objects with main charge colour should be split in two:
			a	a class for the stroke;
			b	a class for the fill, which should be given the name 'proper'.
			The 'proper' class will be replaced by the appropriate tincture if required.
			SVG elements affected should be assigned both classes, for example:
				class="proper lion-body"
		8	If there are common style properties, for example if all strokes are black,
			then these can be extracted from the various classes and applied to all objects, for example:
				* {stroke:#000000;}
		9 Metadata section added with appropriate descriptive and licensing information.
		10	If SVG element ID attributes are serving no (further) purpose, they should be removed.
			This can be done with XSLT or a regular expression editor. This will clean up the SVG from
			Inkscape/Illustrator, reducing file size and importantly avoid any potential ID conflicts.
			If some ID attributes are necessary (say, for internal XLink references to definitions or symbols),
			then these should be kept but given distinctive names, probably prefixed with the hyphenated charge type.
	</desc>
	<defs>
		<style type="text/css" xml:space="preserve">
		<![CDATA[
			* {stroke:#666666;}
			.proper{fill:#F8DE00;}
			.lion-body{stroke-width:3;}
			.lion-tongue{fill:#FF2A2A;stroke-width:2.5;}
			.lion-detail-line-fine{fill:none;stroke-width:1.6;}
			.lion-detail-line{fill:none;stroke-width:2.5;}
			.lion-ear-hole{stroke-width:2.5;}
			.lion-claw-tooth-eye{fill:#FFFFFF;stroke-width:2.5;}
		]]>		
		</style>
	</defs>
  <metadata>
  	<rdf:RDF xmlns:rdfs="http://www.w3.org/2000/01/rdf-schema#">
      <cc:Work rdf:about="http://en.wikipedia.org/wiki/File:Lion_Rampant.svg">
      	<dc:format>image/svg+xml</dc:format>
        <dc:type rdf:resource="http://purl.org/dc/dcmitype/StillImage"/>
      	<dc:title>A Heraldic Lion in Rampant Attitude</dc:title>
      	<dc:creator>Sodacan</dc:creator>
      	<dc:license>
      		<cc:license>This work is licensed under the Creative Commons Attribution-ShareAlike 3.0 Unported License. To view a copy of this license, visit http://creativecommons.org/licenses/by-sa/3.0/ or send a letter to Creative Commons, 171 Second Street, Suite 300, San Francisco, California, 94105, USA.</cc:license>
      	</dc:license>
      </cc:Work>
    </rdf:RDF>
  </metadata>
	<g>
		<g transform="matrix(0.9985421,0.05397915,-0.05397915,0.9985421,7.7696559,-28.362117)">
			<path class="proper lion-body" d="M137.154,305.295c0,0-11.771-8.039-11.896-12.752c-0.039-1.465,1.614-2.136,2.092-3.52     c0.567-1.64,0.719-3.346-0.41-4.664c-1.79-2.088-6.113-1.305-8.759-0.553c-3.532,1.003-9.238,6.848-9.238,6.848l-0.91,9.142     l13.299,10.761L137.154,305.295z"/>
			<path class="proper lion-body" d="M269.576,322.989c0,0-37.922-4.264-54.143-3.033c-3.873,0.293-9.375,0.603-12.666,2.662     c-2.884,1.806-5.613,5.835-6.951,8.964c-1.483,3.469-3.646,9.115-1.861,12.44c1.631,3.036,10.413,4.859,10.413,4.859     s-8.104,3.007-11.547,2.236c-2.542-0.571-5.461-3.034-7.004-5.132c-1.16-1.576-2.112-6.173-2.112-6.173s-3.1,3.411-5.106,3.947     c-2.669,0.713-8.593-0.054-8.593-0.054s2.468-2.432,3.386-3.477c1.564-1.78,2.998-4.229,3.444-6.557     c0.269-1.407-1.473-4.543-1.473-4.543s-0.614,2.868-1.173,3.98c-1.195,2.376-3.269,5.403-5.332,7.081     c-1.163,0.945-3.618,0.931-4.521,2.128c-1.209,1.603-2.1,2.363-1.538,4.29c0.431,1.475,1.05,3.39,2.516,3.85     c0.958,0.3,3.114,1.136,3.981,0.632c0.722-0.42,2.53-1.157,2.53-1.157s-0.943,2.966-2.841,4.784     c-1.032,0.987-2.838,1.176-3.799,1.421c-0.498,0.126-2.411,0.959-4.465-0.129c-1.997-1.058-3.73-3.066-4.026-3.468     c0,0-3-3.146-3.583-4.862c-0.893-2.629-0.777-6.543-0.184-9.256c0.33-1.513,1.984-3.121,2.245-4.647     c0.216-1.265-0.758-2.999-0.478-4.25c0.31-1.386,0.251-1.318,0.251-1.318s0.786,1.047-0.352,3.127     c-1.26,2.304-4.799,8.21-4.799,8.21l-3.829-4.969l-0.758-5.195c0,0-0.29-1.747,0.215-2.156c0.54-0.439,1.689,0.568,2.306,0.247     c1.528-0.794,1.174-3.98,1.174-3.98s0.15,3.147-1.404,3.945c-0.567,0.292-1.665-0.616-2.117-0.167     c-1.634,1.624-0.283,4.125,0.559,7.657c0.612,2.567,2.017,5.074,1.3,6.679c-0.646,1.449-4.498,2.784-4.498,2.784l-11.941-3.52     c0,0-3.697-3.184-4.119-5.107c-0.68-3.104,0.751-11.352,0.751-11.352l-0.826-0.135l-4.745,5.092c0,0,0.577,7.229-1.667,8.593     c-1.595,0.97-5.971-1.759-5.971-1.759l-11.154-9.128c0,0-0.821-3.806-0.184-5.246c0.963-2.179,6.057-5.136,6.057-5.136     l-5.338-2.439c0,0-6.324,3.705-9.088,2.945c-1.349-0.371-2.445-2.255-3.078-3.503c-1.223-2.41-1.95-8.794-1.95-8.794l8.966-15.743     c0,0,3.686-0.647,4.93,0.155c2.629,1.696,4.596,9.358,4.596,9.358s9.749,4.848,14.294,5.078c4.82,0.244,10.833-3.241,15.622-3.831     c3.225-0.397,7.642-0.677,10.831-0.052c1.167,0.228,2.701,0.814,3.664,1.511c2.043,1.478,4.139,4.236,5.477,6.374     c1.289,2.06,1.707,5.531,3.216,7.437c0.782,0.989,3.371,2.507,3.371,2.507s-5.027-7.069-6.926-10.26     c-2.341-3.936-4.092-10.038-7.041-13.54c-0.901-1.07-3.09-1.57-3.71-2.824c-1.178-2.384-0.96-6.39,0.017-8.864     c0.154-0.388,0.964-0.6,0.949-1.018c-0.054-1.531-2.942-2.17-3.733-3.479c-1.777-2.944-3.014-7.618-3.015-11.056     c-0.001-2.989,0.573-7.431,2.617-9.611c1.618-1.727,5.097-2.443,7.46-2.561c3.363-0.167,10.923,2.57,10.923,2.57     s-5.588,1.114-7.46,2.561c-1.34,1.035-2.925,3.023-3.117,4.704c-0.106,0.928,0.582,2.132,1.087,2.916     c2.184,3.398,9.525,9.513,9.525,9.513s8.324-2.8,12.027-3.377c4.668-0.726,11.038-1.031,15.738-0.552     c2.542,0.259,5.863,1.171,8.277,2.006c2.912,1.008,6.262,4.158,9.342,4.268c1.866,0.067,4.15-1.363,5.832-2.173     c1.825-0.881,4.43-1.982,5.786-3.487c1.229-1.362,53.03-21.492,37.386-30.907l-32.621-19.633l49.794,27.158l23.915,32.032     L269.576,322.989L269.576,322.989z"/>
			<path class="lion-detail-line" d="M148.06,280.429c0,0,3.305,1.611,4.828,1.963c1.397,0.323,4.771,0.325,4.771,0.325"/>
			<path class="lion-detail-line" d="M163.122,288.761c0,0-2.923-1.761-4.331-1.818c-1.587-0.063-3.852,0.588-5.029,1.655     c-1.255,1.138-2.28,5.167-2.28,5.167"/>
			<path class="lion-detail-line" d="M164.243,292.659c0,0-3.374-0.801-4.601-0.166c-1.819,0.941-3.012,3.796-3.738,5.71     c-0.39,1.029-0.529,3.63-0.529,3.63"/>
			<path class="lion-detail-line" d="M168.203,297.936c0,0-3.859,0.028-5.222,0.84c-1.261,0.752-2.446,2.513-2.981,3.879     c-0.707,1.801-0.595,6.42-0.595,6.42"/>
			<path class="lion-detail-line" d="M126.454,324.017c0,0,2.997-2.612,4.146-3.427c1.565-1.112,6.386-0.388,6.386-0.388"/>
			<path class="lion-detail-line" d="M110.59,316.206c0,0,1.793-2.082,2.869-2.398c1.482-0.436,5.109,0.64,5.109,0.64"/>
			<path class="lion-claw-tooth-eye" d="M111.801,290.667c-1.552-1.178-2.295-3.99-3.708-5.332c-2.129-2.024-8.315-5.171-8.315-5.171     s5.083-0.989,7.257-0.74c2.632,0.303,6.365,1.114,8.355,2.864c1.529,1.343,3.062,4.05,3.005,6.085     c-0.037,1.322-0.933,3.372-2.171,3.839C114.909,292.706,112.92,291.517,111.801,290.667z"/>
			<path class="lion-claw-tooth-eye" d="M96.793,295.451c1.118,0.978,2.215,2.75,2.688,4.173c0.484,1.455,1.14,3.758,0.383,5.149     c-0.483,0.887-1.952,1.449-2.93,1.646c-0.698,0.14-1.67-0.046-2.322-0.289c-1.377-0.513-2.593-2.427-4.04-2.723     c-1.266-0.259-3.112,0.206-4.311,0.776c-1.695,0.805-2.611,1.039-3.761,2.537c-0.88,1.147-2.563,5.53-2.563,5.53     s-2.072-4.997-1.988-7.063c0.123-3.019,1.174-5.953,3.373-8.109c1.389-1.362,3.99-2.272,5.867-2.658     c2.316-0.477,5.54-0.344,7.801,0.186C95.576,294.741,96.345,295.059,96.793,295.451L96.793,295.451z"/>
			<path class="lion-claw-tooth-eye" d="M108.416,325.961c0.858-0.116,2.094,0.32,2.744,0.89c1.606,1.409,3.387,4.317,3.062,6.428     c-0.247,1.602-2.353,3.026-3.684,3.952c-1.978,1.377-5.036,2.7-7.413,3.097c-2.199,0.367-7.416-0.479-7.416-0.479     s4.307-2.988,5.629-4.761c1.226-1.643,1.419-4.693,2.739-6.261C105.082,327.632,106.87,326.17,108.416,325.961z"/>
			<path class="lion-claw-tooth-eye" d="M137.312,337.648c1.893-0.423,4.362,1.687,5.659,3.13c1.111,1.236,1.428,2.484,1.379,4.144     c-0.065,2.182-1.59,5.077-3.223,6.525c-1.015,0.901-2.91,1.41-4.263,1.507c-1.592,0.111-2.983,0.556-4.443-0.09     c-1.683-0.748-4.937-3.65-4.937-3.65s4.011-0.255,5.384-1.176c1.492-1,3.032-3.17,3.403-4.928     c0.201-0.952-0.817-2.236-0.605-3.185C135.849,339.102,136.489,337.831,137.312,337.648L137.312,337.648z"/>
		</g>
		<g transform="matrix(0.6657292,-0.7461935,0.7461935,0.6657292,-305.90808,388.32235)">
			<path class="proper lion-body" d="M510.843,71.578c0,0,10.689-6.091,15.492-5.138c1.462,0.29,1.885,2.362,3.762,3.246     c2.018,0.951,6.284,3.317,8.182,2.145c1.942-1.2,3.272-6.87,3.272-6.87s-0.996-8.621-3.237-11.37     c-2.442-2.994-11.423-5.948-11.423-5.948l-8.847,5.85L510.843,71.578L510.843,71.578z"/>
			<path class="proper lion-body" d="M563.222,215.807c0,0-62.866,22.268-97.005-11.591c-6.274-6.223-11.543-17.611-13.334-26.265     c-0.904-4.365,0.911-14.83,0.911-14.83s-7.964-2.351-11.016-1.045c-2.241,0.959-4.021,4.162-5.027,6.382     c-1.089,2.404-1.606,8.649-1.606,8.649s-4.106-7.006-4.183-10.355c-0.081-3.534,2.076-8.092,3.906-11.117     c1.676-2.771,4.032-4.687,7.121-5.66c2.251-0.71,7.654-1.353,7.654-1.353s1.603-8.814,2.798-12.763     c1.047-3.46,4.734-11.082,4.734-11.082s-2.626-1.523-3.881-1.773c-1.123-0.224-2.745-0.275-3.814,0.134     c-1.524,0.583-3.84,1.891-4.174,3.488c-0.355,1.693,2.568,5.161,2.568,5.161s-3.272,0.453-4.308-0.326     c-2.17-1.633-3.56-5.796-3.162-8.482c0.595-4.025,4.777-8.612,8.214-10.791c2.087-1.323,5.585-1.766,8.055-1.715     c2.536,0.052,8.189,2.099,8.189,2.099s0.082-5.925,1.145-8.156c0.784-1.644,3.299-2.826,4.14-4.442     c1.09-2.094,0.109-5.898,1.639-7.695c4.519-5.307,21.664-8.399,21.664-8.399s-12.988,4.611-18.051,2.544     c-2.28-0.931-5.002-6.508-5.002-6.508l5.286-12.597c0,0,3.464-2.902,5.161-2.568c3.992,0.785,8.95,10.188,8.95,10.188     l-4.576-7.955l6.9-7.403l7.729,2.593c0,0-9.272-2.55-11.184-5.813c-1.088-1.857,0.226-7.169,0.226-7.169l8.381-6.023     c0,0,4.751-1.894,6.181-0.695c3.841,3.219,1.063,16.671,1.063,16.671l0.552-11.476l4.734-1.121l0.369,10.49l0.091-10.983     l5.554-4.969l1.974,1.84c0,0-2.826-4.407-2.449-6.279c0.442-2.192,1.957-4.503,4.118-5.077c3.343-0.889,10.799,3.917,10.799,3.917     s6.122,5.27,6.176,8.217c0.046,2.503-1.188,4.723-3.12,6.315c-1.608,1.326-6.784,1.67-6.784,1.67s-6.566,10.582-8.364,15.57     c-2.094,5.814-3.635,14.028-4.064,20.192c-0.408,5.856,1.593,13.678,1.163,19.532c-0.658,8.966-6.567,23.746-9.035,32.392     c-3.136,10.989,0.481,28.878,0.481,28.878l63.639,41.147L563.222,215.807L563.222,215.807z"/>
			<path class="lion-detail-line" d="M449.905,149.183c0,0,5.49-0.087,7.647-0.269c1.755-0.149,4.135-0.25,5.871,0.049     c1.05,0.18,3.358,1.158,3.358,1.158"/>
			<path class="lion-detail-line" d="M457.975,124.655c0,0,3.2,1.309,4.414,2.142c1.785,1.224,3.273,4.102,5.277,4.919     c2.413,0.983,6.103,0.566,8.684,0.205c1.728-0.241,5.554-1.726,5.554-1.726"/>
			<path class="lion-detail-line" d="M465.191,112.152c0,0,3.85,3.639,6.766,3.811"/>
			<path class="lion-detail-line" d="M486.969,92.673c0,0-8.803,13.583-8.097,20.763c0.498,5.067,5.678,12.078,5.678,12.078"/>
			<path class="lion-claw-tooth-eye" d="M534.771,57.378c-0.949,1.218-1.731,3.357-1.588,4.895     c0.109,1.174,0.856,2.868,1.881,3.453c1.375,0.784,2.808,1.389,4.255,0.748c3.923-1.738,7.837-4.995,9.584-8.914     c1.322-2.966,1.821-7.746,0.72-10.802c-0.507-1.406-1.024-2.692-2.32-3.437c-1.304-0.75-4.91-2.027-4.91-2.027     s1.592,3.103,1.7,4.559c0.12,1.627-0.412,3.854-1.133,5.318c-0.907,1.842-2.547,2.302-4.101,3.645     C537.765,55.762,535.661,56.237,534.771,57.378z"/>
			<path class="lion-claw-tooth-eye" d="M518.157,21.252c0,0,4.229-3.319,7.148-3.11c2.942,0.211,6.844,2.012,8.941,4.085     c1.429,1.412,2.655,4.059,2.852,6.057c0.377,3.822-0.345,8.1-2.462,11.303c-0.887,1.343-2.083,2.943-3.618,3.426     c-1.766,0.556-3.734-0.117-5.106-1.36c-0.982-0.89-1.052-3.476-1.048-4.801c0.008-3.415,3.65-6.659,2.947-10     c-0.219-1.041-1.113-2.263-1.865-3.014c-0.673-0.672-1.888-1.165-2.697-1.665C522.034,21.424,518.157,21.252,518.157,21.252     L518.157,21.252z"/>
			<path class="lion-claw-tooth-eye" d="M492.967,49.189c0.822,0.522,1.947,1.58,2.91,1.437c1.386-0.206,2.916-1.886,3.406-3.199     c0.694-1.857,1.136-3.511,0.254-5.287c-0.498-1.003-4.61-3.54-5.638-3.981c-2.556-1.096-4.635-1.292-7.272-0.404     c-2.401,0.809-5.311,3.218-6.404,5.503c-0.855,1.789-0.596,4.661-0.208,6.606c0.237,1.189,1.669,3.68,1.669,3.68     s2.159-4.862,3.965-6.077c1.052-0.708,2.919-1.108,4.15-0.806C490.98,46.95,491.941,48.536,492.967,49.189z"/>
			<path class="lion-claw-tooth-eye" d="M477.831,69.074c1.552,0.182,2.536,2.965,2.578,4.528c0.044,1.652-1.109,3.983-2.466,4.925     c-1.521,1.055-4.319,1.014-6.135,0.655c-2.551-0.504-6.023-2.08-7.622-4.131c-1.703-2.182-2.634-6.19-2.294-8.937     c0.367-2.963,2.594-6.681,4.751-8.744c0.938-0.898,3.892-1.896,3.892-1.896s-2.064,3.953-1.996,5.788     c0.094,2.545,1.676,5.883,3.353,7.8C472.771,70.068,476.905,68.966,477.831,69.074z"/>
		</g>
		<g transform="matrix(0.9991947,0.04012533,-0.04012533,0.9991947,-775.01391,74.06139)">
			<path class="proper lion-body" d="M823.321,58.239c1.29-0.226,3.151-0.114,4.346,0.425c0.948,0.428,2.012,1.467,2.537,2.365     c1.407,2.403,0.988,6.508,2.194,9.017c1.962,4.081,9.226,11.947,9.226,11.947l-17.326,1.98L810.05,72.925l1.438-6.33     c0,0,2.761-3.619,4.308-4.771C817.801,60.329,820.858,58.671,823.321,58.239z"/>
			<path class="proper lion-body" d="M980.469,27.153l-66.806,13.054l-68.797,30.455l-19.276,8.949l-5.34-3.295     c0,0-3.932-7.206-6.843-8.901c-1.947-1.134-7.437-1.045-7.437-1.045l-5.538,15.867c0,0,0.798,3.948,1.923,5.156     c1.193,1.282,5.309,2.426,5.309,2.426l5.576-2.373c0.669-0.718,16.347,0.394,19.07,1.791c0.657,0.337,2.007-1.139,1.678-1.801     c-0.358-0.721-2.823,0.434-4.905,0.452c-2.718,0.022-4.182,0.898-5.42,0.813c-4.748-0.325-4.836,0.233-8.111,2.581     c-1.423,1.02-2.425,5.309-2.425,5.309l12.724,15.225c0,0,6.897,1.687,9.146,0.114c2.642-1.847,1.893-7.379,3.562-10.137     c1.242-2.053,3.451-7.174,5.454-5.851c1.902,1.256-3.867,2.479-5.752,5.676c-2.316,3.927-1.105,9.801-1.105,9.801l5.432,5.904     c0,0,11.397,0.651,15.623-1.419c0.663-0.326,1.604-1.066,1.678-1.801c0.154-1.535,1.752-6.06,0.394-7.939     c-1.676-2.318-4.774-3.623-4.774-3.623s-0.741,0.301,0.227,0.079c2.159-0.495,4.747,3.627,4.747,3.627l10.16-8.194     c0,0,0.696,2.589,0.515,3.693c-0.308,1.876-2.835,5.667-2.835,5.667s6.406-1.012,9.624-2.912c2.384-1.407,6.915-4.5,8.065-7.019     c0.767-1.679,1.92-3.252,1.92-3.252s0.626,5.63-0.416,8.86c-0.626,1.94-3.215,4.713-3.215,4.713s3.713,0.062,6.859-0.747     c2.869-0.736,5.156-2.33,5.909-2.672c0.147-0.067,3.706-1.962,6.021-6.311c2.184-4.103,0.945-3.906,3.674-5.436     c0.701-0.392,1.034,3.082,0.325,6.696c-0.629,3.206-2.278,6.577-2.241,6.671c3.499-0.565,13.765-3.876,17.882-6.935     c6.905-5.129,9.415-16.183,10.867-15.58c6.286,2.612,22.212,2.379,27.345,6.85c4.933,4.297,16.556-3.739,22.633-1.316     c9.738,3.883,23.139-44.66,23.139-44.66l-11.461-17.732L980.469,27.153L980.469,27.153z"/>
			<path class="lion-claw-tooth-eye" d="M825.919,63.655c0.092-2.873-1.23-5.816-3.399-7.701c-1.865-1.622-5.437-2.151-7.903-2.329     c-2.548-0.184-6.243-0.113-8.43,1.209c-1.144,0.691-1.808,1.511-2.117,2.811c-0.291,1.226-0.383,3.924-0.383,3.924     s2.1-1.69,3.195-1.807c1.647-0.176,3.801,0.878,5.271,1.64c1.529,0.791,3.098,2.571,4.554,3.49     c1.021,0.644,2.395,1.621,3.584,1.829c1.275,0.223,3.216,0.193,4.282-0.541C825.281,65.691,825.892,64.512,825.919,63.655z"/>
			<path class="lion-claw-tooth-eye" d="M812.756,74.805c-0.354,1.508-1.958,3.292-3.382,3.899c-1.263,0.538-3.297,0.285-4.57-0.23     c-1.64-0.664-2.771-3.291-4.438-3.885c-1.988-0.708-5.005-0.348-7.03,0.247c-1.325,0.389-3.015,1.345-3.958,2.355     c-1.217,1.304-2.681,5.308-2.681,5.308s-1.301-7.534-0.105-10.424c0.951-2.3,3.751-4.595,5.922-5.813     c1.952-1.095,4.998-1.757,7.235-1.818c2.085-0.057,4.953,0.404,6.824,1.324c1.786,0.878,3.935,2.691,4.977,4.387     C812.304,71.383,813.085,73.402,812.756,74.805z"/>
			<path class="lion-claw-tooth-eye" d="M824.232,104.641c1.237-1.643,1.034-3.865-0.067-5.602c-1.214-1.914-3.89-4.352-6.153-4.476     c-1.634-0.089-3.134,2.182-4.451,3.154c-1.623,1.198-3.932,2.643-5.33,4.098c-1.43,1.487-3.167,3.715-3.974,5.614     c-0.485,1.143-1.064,2.861-0.77,4.067c0.424,1.74,3.684,4.694,3.684,4.694s-0.787-4.083-0.067-5.602     c0.646-1.363,2.552-2.523,3.93-3.136c2.232-0.993,5.6-1.132,8.035-1.325C821.019,105.971,823.055,106.203,824.232,104.641z"/>
			<path class="lion-claw-tooth-eye" d="M852.609,114.723c0.814,2.234,1.539,4.589,0.893,6.877c-0.706,2.499-3.515,5.311-5.903,6.334     c-1.511,0.645-3.169,1.065-4.794,0.82c-1.71-0.258-5.531-1.631-5.531-1.631s2.791-1.584,3.823-2.481     c1.211-1.051,3.016-2.507,3.508-4.034c0.637-1.974-1.43-4.97-0.633-6.885c0.492-1.184,2.027-2.523,3.293-2.723     c1.349-0.212,3.208,0.772,4.23,1.676C852.018,113.14,852.37,114.066,852.609,114.723L852.609,114.723z"/>
		</g>
		<g>
			<g transform="matrix(0.8168394,0.5768652,-0.5768652,0.8168394,164.39684,-142.18342)">
				<path class="proper lion-body" d="M289.055,263.426c-4.193,1.667-8.619,6.195-11.584,9.598c-1.61,1.849-4.303,6.951-4.303,6.951      s6.519-0.749,9.268-1.324c5.447-1.141,12.317-4.661,17.873-4.965c4.922-0.269,11.483,1.281,16.219,2.648      c5.386,1.556,17.21,7.282,17.21,7.282s-11.136-18.507-19.196-21.846C307.462,258.84,296.175,260.594,289.055,263.426      L289.055,263.426z"/>
			</g>
			<path class="proper lion-body" d="M253.609,371.892c0,0-7.282-5.373-8.479-8.851c-0.82-2.383,1.703-5.988,0.85-8.36     c-0.821-2.282-3.46-4.89-5.753-5.679c-1.72-0.592-6.02,0.701-6.02,0.701l-4.988,11.447l3.592,4.611l7.32,6.57L253.609,371.892     L253.609,371.892z"/>
			<path class="proper lion-body" d="M164.665,131.522c0,0-29.726,59.46-24.592,63.931     c4.933,4.297,33.235,11.696,39.312,14.119c9.739,3.883,30.641,15.705,40.514,19.231c7.427,2.651,17.486,8.544,24.297,12.52     c7.52,4.39,18.423,10.409,22.832,17.917c2.729,4.648,4.142,12.529,2.8,17.75c-2.03,7.899-11.761,14.263-17.249,20.295     c-0.916,1.006-3.902,0.676-6.638,4.002c-2.847,3.463-5.46,10.566-7.194,10.65c-3.04,0.146-8.43-3.229-8.43-3.229     s0.447,3.981,2.776,6.871c1.856,2.303,5.54,3.648,6.561,3.639c2.541-0.023,5.996-1.508,6.78-1.79     c3.995-1.437,9.649-10.352,9.649-10.352s-10.495,11.565-10.694,17.789c-0.087,2.743,2.265,4.953,1.807,7.659     c-0.494,2.917-1.301,6.047-4.248,6.312c-4.293,0.387-9.97-1.328-9.97-1.328s2.485,4.463,6.536,6.673     c2.521,1.375,5.625,1.621,8.317,0.624c5.948-2.205,12.978-7.939,16.515-13.205c2.07-3.084,3.5-11.878,3.5-11.878     s-6.364,13.194-4.995,18.896c0.952,3.965,6.627,8.566,6.627,8.566s-7.156,2.474-10.517,4.63     c-5.303,3.403-12.914,16.562-12.914,16.562s-8.109-3.087-11.068-5.271c-1.937-1.429-3.12-5.233-5.432-5.903     c-1.672-0.486-5.606,1.502-5.606,1.502l-4.187,17.126c0,0,2.158,4.849,4.111,5.515c3.285,1.12,7.478-2.785,11.141-3.121     c3.62-0.331,10.988,1.037,10.988,1.037l-13.219,7.865l-0.687,5.248l10.353,9.65c0,0,6.827-0.848,8.604-2.915     c2.437-2.834,2.182-12.267,2.182-12.267s2.451,2.76,3.078,4.727c0.781,2.449-0.492,6.938-0.492,6.938l4.951,4.614l10.046,0.953     c0,0,4.368-2.936,4.615-4.95c0.436-3.56-5.799-10.452-5.799-10.452l11.038-1.487l1.885-8.337c0,0,3.211,10.823,6.995,13.249     c2.427,1.557,6.882,1.507,9.596,0.534c2.266-0.812,5.904-5.432,5.904-5.432s-4.286,1.605-6.057,1.083     c-1.593-0.469-4.041-2.113-4.051-3.775c-0.019-3.143,7.582-7.231,7.582-7.231s6.577,3.726,9.719,4.012     c2.243,0.204,5.773,0.05,7.346-1.563c1.679-1.725,1.464-7.889,1.464-7.889s-1.977,3.046-3.824,3.201     c-1.876,0.158-5.367-0.707-6.161-2.414c-1.51-3.25,1.762-11.816,1.762-11.816s6.986,2.068,10.122,0.554     c1.241-0.6,3.409-3.003,3.685-5.17c0.414-3.255-0.201-4.844-0.201-4.844s-1.913,4.03-4.223,3.906     c-2.332-0.126-5.507-1.509-7.079-3.233c-2.67-2.93-4.396-8.51-4.356-12.473c0.047-4.799,2.559-9.352,4.207-13.859     c0.482-1.32,1.612-3.653,1.612-3.653s5.167,4.19,8.014,5.057c1.998,0.608,6.607-0.185,8.318-1.382     c2.557-1.791,4.682-6.625,3.897-9.646c-0.651-2.508-4.512-4.567-4.512-4.567s0.34,4.047,0.059,5.829     c-0.199,1.266-3.488,2.038-4.722,2.384c-1.008,0.281-2.336-1.031-2.931-1.891c-2.943-4.253-2.811-10.985-2.213-16.123     c0.425-3.652,5.271-11.068,5.271-11.068s7.657,6.145,11.579,7.43c2.865,0.938,4.229-4.032,2.748-8.455     c-1.804-5.392-6.898-10.555-6.898-10.555s-14.808-13.922-17.841-18.251c-8.227-11.741-10.929-22.501-20.165-33.464     c-3.569-4.238-9.686-10.935-13.637-14.818c-6.716-6.6-18.142-15.87-24.374-22.928c-10.546-11.942-34.334-39.154-34.334-39.154     L213.388,132.7L164.665,131.522L164.665,131.522z"/>
			<path class="lion-detail-line" d="M328.082,291.363c0,0-2.8-6.796-4.735-9.773c-1.71-2.631-5.907-4.521-7.648-7.129     c-1.461-2.188-3.062-8.215-3.062-8.215"/>
			<path class="lion-detail-line" d="M303.518,276.507c0,0,4.136,5.56,4.688,8.389c0.832,4.272-2.438,9.422-2.474,13.774     c-0.023,2.85,0.799,6.044,0.34,8.305c-0.392,1.93-2.3,6.146-2.3,6.146s4.526-2.241,6.163-4.104     c0.632-0.719,4.716-5.158,4.716-5.158s-1.435,10.383-0.182,14.57c0.375,1.253,2.438,3.613,2.438,3.613"/>
			<path class="lion-detail-line" d="M305.054,349.355c0,0,1.441,5.057,2.597,6.964c0.979,1.617,4.215,4.687,4.215,4.687"/>
			<path class="lion-detail-line" d="M299.574,379.338c0,0,2.597-5.336,2.992-7.814c0.438-2.746,0.364-6.603-0.456-9.261     c-0.306-0.989-1.802-2.941-1.802-2.941"/>
			<path class="lion-detail-line" d="M291.382,361.855c0,0,2.688,5.352,2.498,7.883c-0.279,3.736-3.17,8.161-4.159,11.774     c-0.499,1.823-1.325,4.296-1.22,6.184c0.081,1.462,1.47,4.651,1.47,4.651"/>
			<path class="lion-detail-line" d="M282.098,380.213c0,0,1.697-9.211,1.954-11.305c0.215-1.754-0.706-5.202-0.706-5.202"/>
			<g transform="matrix(0.9558356,0.2939019,-0.2939019,0.9558356,69.224149,-63.141087)">
				<path class="lion-detail-line" d="M240.271,181.843l-3.611,11.484"/>
				<path class="lion-detail-line" d="M246.194,185.092l-3.507,8.757"/>
				<path class="lion-detail-line" d="M251.035,189.026l-1.328,6.36"/>
				<path class="lion-detail-line" d="M255.833,191.857l-1.629,6.146"/>
			</g>
			<path class="lion-detail-line" d="M285.408,347.702l-5.806,1.282l-9.024-1.518c0,0-0.41,2.121-0.028,3.479     c0.245,0.869,1.315,2.349,2.138,2.724c1.531,0.695,3.822,1.42,5.485,1.168c0.832-0.127,2.447-1.371,2.447-1.371"/>
			<path class="lion-detail-line" d="M279.077,315.617c0,0-3.587,5.392-3.765,8.052c-0.167,2.484,1.264,5.747,2.479,7.921     c1.043,1.867,2.133,3.532,4.111,4.344c1.735,0.711,6.795,0.553,6.795,0.553s-4.363,2.756-6.495,2.956     c-2.811,0.265-6.743-0.741-9.142-2.23c-1.564-0.972-3.082-3.077-3.949-4.701c-1.167-2.185-2.303-7.927-2.303-7.927"/>
			<path class="lion-detail-line" d="M259.482,316.394c0,0-4.181,4.874-4.663,7.556c-0.376,2.094,0.665,4.912,0.424,7.025     c-0.227,1.982-0.728,4.045-1.555,5.861c-0.885,1.945-4.512,7.551-4.512,7.551"/>
			<path class="lion-detail-line" d="M317.913,285.458c0,0,0.556,6.878,0.006,9.751c-0.589,3.082-3.861,9.72-3.861,9.72"/>
			<path class="lion-detail-line" d="M209.242,207.894c0,0,4.449,3.839,5.863,5.635c0.822,1.044,4.406,6.292,4.406,6.292"/>
			<path class="lion-detail-line" d="M220.615,212.873c0,0,6.027,5.68,7.936,8.141c1.005,1.297,3.242,5.766,3.242,5.766"/>
			<path class="lion-detail-line" d="M231.254,217.713c0,0,4.441,5.605,6.049,8.208c1.156,1.87,3.332,6.53,3.332,6.53l0,0"/>
			<path class="lion-detail-line" d="M242.797,224.619c0,0,3.117,3.805,4.186,5.615c0.996,1.689,2.292,4.037,2.698,5.957     c0.396,1.865-0.05,6.357-0.05,6.357"/>
			<path class="lion-claw-tooth-eye" d="M237.672,353.588c-0.062-2.015-2.449-4.16-4.094-5.325c-1.935-1.372-2.941-1.783-5.285-2.14     c-2.047-0.311-5.007-0.729-6.897,0.112c-2.019,0.897-5.019,5.385-5.019,5.385s6.529-1.087,9.229-0.454     c2.933,0.688,3.728,3.496,6.543,4.568c1.018,0.388,2.531,1.189,3.543,0.787C236.678,356.128,237.704,354.649,237.672,353.588z"/>
			<path class="lion-claw-tooth-eye" d="M225.618,362.623c1.434,1.455,2.455,1.776,2.478,3.818c0.021,1.783-1.096,4.484-2.678,5.303     c-0.952,0.492-2.494-0.268-3.534-0.527c-1.751-0.437-3.866-1.925-5.669-2.014c-1.515-0.074-3.599,0.445-4.905,1.214     c-1.047,0.616-2.148,1.913-2.761,2.962c-0.646,1.109-0.354,2.419-0.652,3.668c-0.092,0.388-2.3-2.151-2.863-3.675     c-0.582-1.575-0.767-3.968-0.326-5.587c0.631-2.322,2.473-3.475,4.248-5.098c1.675-1.531,4.1-1.408,6.312-1.914     c2.253-0.516,5.473-0.252,7.695,0.381C223.838,361.403,224.98,361.975,225.618,362.623L225.618,362.623z"/>
			<path class="lion-claw-tooth-eye" d="M235.368,391.836c0,0,3.704,0.974,5.015,1.908c0.725,0.516,1.145,0.912,1.365,1.774     c0.467,1.825,0.011,4.732-1.217,6.162c-1.656,1.931-5.527,2.179-7.971,2.884c-1.678,0.484-5.146,1.744-5.146,1.744     s3.459-9.984,4.643-11.594C233.477,392.784,235.158,391.915,235.368,391.836L235.368,391.836z"/>
			<path class="lion-claw-tooth-eye" d="M269.885,399.608c1.205,0.555,2.58,1.929,3.105,3.146c0.648,1.506,0.84,3.955,0.191,5.461     c-0.898,2.09-3.655,3.987-5.683,5.018c-2.688,1.367-9.819,2.168-9.819,2.168s3.348-3.424,4.508-5.105     c0.715-1.037,1.832-2.462,1.953-3.715c0.146-1.527-1.822-3.402-1.475-4.896c0.227-0.967,1.334-2.059,2.259-2.422     C266.313,398.715,268.529,398.984,269.885,399.608z"/>
			<path class="lion-detail-line-fine" d="M331.568,293.361l-5.917-7.782"/>
		</g>
		<g transform="translate(-6.626506,7.2289158)">
			<path class="proper lion-body" d="M344.474,274.942c0,0,3.739,3.294,8.209,3.218c3.881-0.065,8.732-3.783,10.862-7.027     c1.279-1.95,2.754-14.934,1.916-17.891c-1.087-3.837-4.899-9.148-7.667-10.861c-2.767-1.713-5.87-1.929-8.306-1.277     c-1.186,0.316-2.309,1.706-3.194,2.555c-0.669,0.641-1.977,1.4-2.028,2.325c-0.03,0.541,0.644,1.103,1.027,1.484     c1.413,1.409,5.48,3.769,5.48,3.769s-5.064,2.447-7.308,2.055c-2.031-0.355-4.651-2.162-5.595-3.996     c-1.223-2.376-0.946-6.408,0-8.906c0.843-2.225,3.235-4.678,5.252-5.938c2.171-1.357,8.222-2.284,8.222-2.284     s-9.297,1.251-13.131,0.343c-3.251-0.77-7.334-3.021-9.82-5.252c-1.266-1.137-2.804-3.027-3.197-4.682     c-0.479-2.018-0.092-5.039,0.914-6.852c0.991-1.787,3.268-3.85,5.252-4.339c1.938-0.478,4.79,0.356,6.509,1.37     c1.443,0.851,3.653,4.225,3.653,4.225s-3.288-0.608-4.566-0.114c-1.018,0.394-2.598,1.423-2.627,2.513     c-0.042,1.599,2.307,3.021,3.654,3.882c1.552,0.991,5.823,1.94,5.823,1.94l7.193-0.228l5.71,0.8c0,0-6.725-14.369-9.536-19.803     c-1.605-3.104-4.026-11.138-5.024-14.485c-1.323-4.438-0.989-4.937-2.453-9.331c-1.687-5.063-4.702-11.97-8.679-15.529     c-2.299-2.058-7.373-4.278-10.351-5.089c-2.501-0.681-5.143-0.526-7.69-0.05c-1.959,0.366-4.694,1.555-5.823,3.197     c-1.292,1.88-1.791,5.386-1.027,7.536c0.251,0.708,1.184,1.324,1.827,1.713c1.334,0.808,3.358,1.548,4.909,1.713     c2.197,0.233,5.305,0.017,7.309-0.914c0.549-0.255,1.484-1.37,1.484-1.37s-1.381,5.341-2.969,6.965     c-1.684,1.721-4.914,3.061-7.309,3.311c-2.687,0.281-6.51-0.496-8.792-1.941c-2.929-1.854-6.155-5.793-7.079-9.135     c-1.066-3.858-0.327-9.737,1.598-13.246c1.664-3.03,5.712-5.99,8.907-7.308c2.004-0.826,7.193-0.685,7.193-0.685l3.083,1.028     c0,0-3.796-1.089-5.366-1.713c-1.695-0.673-4.107-1.428-5.481-2.626c-2.721-2.374-5.793-6.535-6.623-10.048     c-0.531-2.25,0.146-5.47,0.914-7.65c0.967-2.743,2.863-6.409,5.139-8.221c2.296-1.829,6.315-3.075,9.248-3.197     c1.802-0.075,4.34,0.46,5.824,1.484c1.963,1.355,4.257,4.143,4.567,6.508c0.142,1.085-1.257,3.425-1.257,3.425     s-2.534-3.255-4.11-3.882c-1.623-0.646-4.232-0.722-5.823,0c-0.995,0.451-1.964,1.738-2.397,2.74     c-0.834,1.927-1.537,5.046-0.686,6.965c0.934,2.104,4.102,3.55,6.166,4.567c2.014,0.992,7.193,2.055,7.193,2.055l7.536,5.595     c0,0-1.21-9.898-1.142-14.159c0.059-3.654,0.571-8.538,1.37-12.104c1.069-4.767,3.135-11.012,5.253-15.415     c3.117-6.483,9.979-13.638,12.902-20.211c0.996-2.24,1.936-5.438,2.17-7.878c0.295-3.079,0.176-7.342-0.8-10.277     c-0.626-1.885-2.333-4.017-3.539-5.595c-1.325-1.734-2.903-4.51-4.91-5.367c-1.387-0.592-3.654-0.39-5.024,0.114     c-1.37,0.504-2.916,1.843-3.653,2.969c-0.738,1.126-1.474,3.084-1.143,4.111c0.332,1.026,2.845,3.394,3.671,3.139     c0.826-0.256,6.72-1.54,6.72-1.54s-1.646,4.945-3.539,6.395c-1.893,1.449-7.188,1.708-10.724,1.259s-8.034-4.077-10.972-6.398     c-2.938-2.32-5.512-4.796-6.509-7.308c-0.996-2.511-0.818-6.074-0.228-8.221c0.59-2.147,1.976-4.371,3.539-5.595     c1.194-0.935,4.796-1.599,4.796-1.599s-5.619-2.211-7.536-3.882c-2.021-1.761-4.358-4.744-5.139-7.308     c-0.887-2.917-1.058-7.397,0.229-10.163c1.791-3.851,5.382-8.378,9.027-10.557c2.54-1.518,7.883-3.821,10.841-3.878     c2.091-0.04,5.125,2.357,6.623,3.815c1.459,1.421,2.651,4.391,2.283,6.395c-0.276,1.505-3.312,3.882-3.312,3.882     s0.807-3.973,0-5.367c-0.652-1.129-2.465-2.233-3.768-2.169c-1.766,0.086-4.091,1.804-4.796,3.425     c-0.523,1.205,0.031,3.143,0.571,4.339c1.308,2.899,6.965,7.993,6.965,7.993l11.875,3.425l7.65,5.024l2.17,3.083l3.882-9.021     c0,0,7.322-7.422,11.305-9.249c2.149-0.986,5.437-1.789,7.765-1.37c2.267,0.407,5.003,2.245,6.622,3.882     c1.166,1.178,2.972,3.155,2.741,4.795c-0.26,1.847-4.453,4.339-4.453,4.339s0.968-3.782,0.113-5.024     c-0.865-1.259-3.271-1.805-4.795-1.712c-1.529,0.092-3.379,1.317-4.567,2.283c-1.457,1.185-3.061,3.222-3.883,4.91     c-0.895,1.838-1.696,4.581-1.599,6.623c0.146,3.041,2.225,6.748,3.312,9.592c1.579,4.13,4.734,9.275,5.709,13.588     c0.484,2.141,0.6,5.128,0.343,7.308c-0.159,1.346-1.256,4.339-1.256,4.339l0,0l-2.592,5.147c0,0,6.6-6.121,10.171-7.265     c2.698-0.865,6.904-1.256,9.443,0c3.113,1.54,5.763,5.966,7.022,9.202c0.583,1.496,0.854,3.766,0.484,5.328     c-0.412,1.746-1.922,3.775-3.147,5.085c-0.854,0.913-3.391,2.422-3.391,2.422s2.312-5.382,1.938-7.749     c-0.321-2.031-1.794-4.891-3.632-5.812c-2.347-1.175-6.534-0.729-8.718,0.727c-1.839,1.226-2.867,4.392-3.391,6.538     c-0.602,2.471,0.711,6.034,0,8.476c-0.794,2.728-3.208,5.857-5.085,7.991c-2.623,2.982-7.516,5.521-10.17,8.475     c-2.102,2.338-9.235,12.738-10.171,14.771c-1.156,2.513-2.526,6.215-2.18,8.959c0.155,1.226,1.938,3.632,1.938,3.632     s1.433-4.032,2.664-5.327c2.645-2.783,7.601-4.808,11.139-6.296c2.649-1.114,7.34-0.475,9.202-2.664     c1.564-1.839,1.926-5.774,0.969-7.991c-0.68-1.574-3.414-3.203-4.602-3.39c-1.187-0.188-2.18,0.726-2.18,0.726     s2.97-3.763,4.844-4.116c2.415-0.457,6.104,0.837,7.749,2.664c1.297,1.44,2.757,3.981,3.045,5.898     c0.303,2.017-0.35,5.285-1.108,7.178c-0.803,2.005-3.896,3.225-5.327,4.843c-1.001,1.132-3.299,2.657-2.905,4.116     c0.498,1.852,4.17,1.672,5.812,2.664c2.748,1.66,6.372,4.111,8.476,6.538c1.257,1.45,2.698,3.704,3.147,5.569     c0.817,3.393,0.518,8.28-0.484,11.624c-0.607,2.029-1.952,4.765-3.632,6.054c-0.84,0.644-2.335,0.896-3.391,0.969     c-2.05,0.14-5.068,0.168-6.78-0.969c-1.411-0.937-2.905-4.843-2.905-4.843l-0.727-1.695c0,0,4.972,3.027,7.265,2.664     c1.277-0.203,2.977-1.438,3.39-2.664c0.551-1.636-0.24-4.34-1.453-5.57c-1.534-1.556-4.869-1.562-7.022-1.937     c-1.748-0.305-4.034-1.109-5.897-0.451c-2.214,0.782-5.269,1.672-7.265,2.906c-1.488,0.92-3.11,2.649-4.359,3.875     c-0.917,0.9-2.448,1.947-2.905,3.148c-1.475,3.871-0.632,12.077-0.156,16.191c0.316,2.731,1.03,6.363,1.938,8.959     c2.486,7.116,4.739,11.152,7.558,18.143c2.336,5.795,8.02,18.268,9.878,24.234c0.812,2.61,2.198,6.021,2.663,8.717     c0.545,3.153,0.389,7.457,0.484,10.654c0.151,5.084,1.128,10.041-0.156,14.961c-0.805,3.087-3.116,8.568-4.929,11.191     c-2.025,2.932-4.568,7.189-7.507,9.203c-2.71,1.855-7.136,3.151-10.413,3.39c-2.572,0.187-6.552-0.157-8.956-1.093     c-3.624-1.41-11.138-6.902-11.138-6.902"/>
			<path class="lion-detail-line" d="M316.072,12.94c0,0-2.389,7.987-1.92,10.766c0.564,3.352,1.763,7.921,3.714,10.705     c1.551,2.213,4.619,4.385,6.99,5.68c3.875,2.115,13.982,4.587,13.982,4.587"/>
			<path class="proper lion-body" d="M331.192,51.67c0,0-5.763,3.028-7.646,5.024c-1.35,1.431-2.884,3.752-3.277,5.68     c-0.436,2.135,0.874,7.209,0.874,7.209"/>
			<path class="proper lion-body" d="M372.7,81.818c0,0-4.892,9.906-7.864,13.545c-0.999,1.222-2.678,2.538-3.933,3.495     c-1.243,0.948-4.369,2.84-4.369,2.84"/>
			<path class="proper lion-body" d="M367.02,112.184c0,0-4.418-1.302-6.336-1.093c-1.548,0.169-3.552,1.042-4.806,1.966     c-1.162,0.856-3.059,3.714-3.059,3.714"/>
			<path class="lion-detail-line" d="M393.672,161.776c0,0-5.54-6.368-8.52-8.52c-3.029-2.188-7.85-4.355-11.579-4.588     c-4.188-0.262-9.884,1.444-13.545,3.495c-2.466,1.382-4.936,4.405-6.772,6.554c-1.925,2.253-5.68,8.083-5.68,8.083"/>
			<path class="proper lion-body" d="M356.534,225.348c0,0,3.948,4.966,5.024,6.991c0.846,1.592,1.967,5.68,1.967,5.68"/>
		</g>
		<g transform="matrix(0.9999919,0.00400097,-0.00400097,0.9999919,233.34824,-18.075903)">
			<g transform="translate(-176.76768,-4.2424243)">
				<path class="lion-tongue" d="M134.433,106.738c0,0-9.547-5.723-14.255-6.292      c-3.346-0.404-7.951-0.407-11.256,0.201c-4.747,0.874-11.721,6.154-16.516,6.797c-2.258,0.302-4.146,0.577-5.769-0.831      c-2.906-2.52-0.712-7.533-2.51-10.751c-0.879-1.574-3.063-3.199-4.824-4.028c-2.18-1.026-5.584-1.87-8.04-1.611      c-1.53,0.161-4.594,2.014-4.594,2.014s4.057,1.989,5.053,3.424c2.187,3.148,0.573,8.821,2.527,12.085      c0.77,1.286,2.606,2.522,3.905,3.424c1.334,0.926,3.187,2.21,4.824,2.618c3.646,0.909,8.931,0.709,12.634,0      c4.519-0.866,9.494-5.905,14.013-6.771c3.433-0.658,8.256,0.587,11.715,1.132c2.532,0.399,8.04,2.618,8.04,2.618L134.433,106.738      z"/>
				<path class="lion-claw-tooth-eye" d="M101.329,87.929c0.452-1.46,0.868-0.979,2.309-1.489      c1.452-0.514,1.424-0.79,2.579,0.228c1.046,0.923,1.337,0.573,1.501,1.959c0.424,3.576-0.022,7.16-1.39,10.49      c-0.581,1.414-2.172,3.239-2.172,3.239s-1.166-1.378-1.702-3.074C101.32,95.698,100.217,91.52,101.329,87.929z"/>
				<path class="lion-claw-tooth-eye" d="M103.228,115.386c-0.042,1.528,0.506,1.206,1.706,2.153c1.209,0.954,1.094,1.206,2.515,0.614      c1.288-0.537,1.451-0.112,2.053-1.372c1.552-3.248,2.284-6.786,2.061-10.379c-0.094-1.526-1.013-3.766-1.013-3.766      s-1.548,0.929-2.601,2.362C105.722,108.028,103.332,111.628,103.228,115.386z"/>
				<g transform="translate(-537.30128,8.114194)">
					<path class="proper lion-body" d="M688.439,102.204c0,0-14.548,15.122-22.05,19.95c-7.118,4.581-18.796,6.596-25.899,11.2       c-7.172,4.648-15.853,12.427-21,19.25c-3.534,4.686-6.57,12.049-8.75,17.5c-1.998,4.996,2.842,11.94,0.774,12.572       c-2.727,0.834-7.621,4.332-10.79,9.767c-2.219,3.807-3.189,9.682-3.688,11.486c-0.68,2.463-0.202,6.41,1.4,8.4       c1.773,2.202,8.75,3.5,8.75,3.5s-3.113-5.368-2.45-7.7c0.53-1.862,3.022-3.73,4.9-4.2c2.818-0.704,6.353,0.474,6.353,0.474       s-2.651,8.406-1.75,11.9c0.693,2.684,4.661,4.742,5.6,7.35c0.89,2.473,1.078,6.226,0.35,8.75c-1.233,4.282-8.4,12.25-8.4,12.25       s11.099-3.415,14.7-6.65c3.081-2.768,6.182-7.839,7-11.899c0.774-3.844-2.976-9.227-1.75-12.95       c1.556-4.725,11.55-11.9,11.55-11.9s0.481,8.667,1.4,12.249c0.62,2.417,3.723,5.271,3.15,7.7c-0.769,3.259-6.922,4.346-8.4,7.35       c-1.486,3.022-1.274,7.883-0.7,11.2c0.408,2.364,1.55,5.562,3.15,7.35c2.415,2.698,6.999,5.028,10.5,5.95       c1.219,0.321,4.2,0,4.2,0s-7.111-4.534-8.4-7.7c-0.714-1.753-0.45-4.585,0.35-6.299c0.974-2.088,3.841-3.764,5.6-5.251       c2.518-2.127,6.663-4.097,8.75-6.649c2.14-2.618,4.049-6.878,4.9-10.15c0.9-3.462,0.7-11.9,0.7-11.9s-0.273,6.447,1.434,9.461       c1.024,1.809,5.122,4.903,6.266,6.639c0.933,1.416,2.264,3.561,2.1,5.25c-0.205,2.116-2.751,4.129-3.85,5.949       c-0.996,1.65-3.15,5.601-3.15,5.601s9.403-4.362,12.6-7.35c2.872-2.684,6.688-6.975,7.349-10.85       c0.347-2.034-1.116-4.687-1.749-6.65c-0.45-1.392-1.322-3.151-1.751-4.55c-0.41-1.339-1.478-3.216-1.049-4.55       c0.727-2.267,5.95-5.25,5.95-5.25s-1.279,4.398-1.05,6.3c0.383,3.176,4.2,9.8,4.2,9.8s0.44-5.973,2.099-7.7       c2.899-3.017,9.643-2.168,13.301-4.2c4.23-2.351,11.407-9.595,14.386-13.41c0.643-0.824,6.434,6.732,10.035,3.967       c5.761-4.423,10.096-9.808,14.409-18.492c3.323-6.692-0.851-16.252-0.553-24.884c0.322-9.343,3.076-21.124,2.819-21.96       c-1.493-4.847-7.498-10.62-7.498-10.62l-1.75-22.75l-11.55-13.65l-49.349,13.65L688.439,102.204L688.439,102.204z"/>
					<path class="proper lion-body" d="M729.603,47.736c0,0,2.645-3.466,3.443-6.413c0.487-1.796,0.137-7.064-0.174-9.68       c-0.292-2.451-1.118-3.416-1.118-3.416s-0.484,2.997-1.173,4.544c-1.16,2.602-5.882,7.451-5.882,7.451s0.807-3.446,0.705-4.939       c-0.315-4.613-4.233-14.819-4.233-14.819s-1.755,9.995-4.234,13.407c-2.14,2.947-4.981,1.981-8.422,3.173       c-8.611,2.982-24.292,0.709-34.124,4.657c-4.05,1.626-12.364,7.384-12.364,7.384s-10.349,3.552-16.105,2.504       c-2.115-0.385-4.584-2.315-6.695-1.913c-3.742,0.713-6.754,0.638-9.883,1.594c-3.938,1.203-4.154,9.479-2.869,13.391       c0.43,1.31,2.206,2.49,2.551,3.826c0.575,2.23-1.321,5.452-0.637,7.652c0.806,2.596,3.282,5.85,5.739,7.014       c3.371,1.597,8.582,0.24,12.115-0.956c3.878-1.313,8.075-0.965,10.202-4.464c0.858-1.411,3.507-6.695,3.507-6.695       s6.212,4.493,7.652,8.289c1.255,3.31,1.184,8.592-0.319,11.796c-2.216,4.725-8.207,9.588-13.071,11.478       c-4.37,1.697-11.327-1.559-15.622,0.319c-3.409,1.49-6.786,2.849-7.971,6.376c-0.766,2.283-1.244,7.094,0.319,8.927       c1.807,2.12,5.621,0.139,7.014,2.551c0.789,1.366,0.638,6.695,0.638,6.695s6.188-4.019,7.652-6.695       c0.928-1.697,0.956-6.376,0.956-6.376s15.17,1.02,21.679,0.956c4.504-0.044,12.229,1.055,16.26-0.957       c3.156-1.575,5.658-5.473,6.376-8.926c0.264-1.274-1.276-4.145-1.276-4.145s2.318-1.427,3.508-0.319       c2.948,2.744,4.055,6.176,4.144,10.202c0.157,7.079-0.73,17.544-3.825,23.911c-1.817,3.735-5.067,8.641-8.637,12.171       c-1.45,1.435-2.953,2.642-4.435,3.45c-3.61,1.972-9.583,1.965-13.071,4.145c-2.352,1.47-5.077,4.244-6.376,6.695       c-1.055,1.989-1.739,5.087-1.594,7.333c0.183,2.838,3.188,8.927,3.188,8.927l2.465-7.271l12.53-6.015       c0,0,16.538-3.687,22.554-7.518c6.639-4.228,6.799-6.629,6.799-6.629s-1.48,9.065-9.304,16.152       c-2.447,2.216-9.523,5.513-9.523,5.513s13.477-0.983,18.544-3.508c6.002-2.991,12.641-9.58,16.541-15.036       c3.524-4.931,9.013-21.774,9.013-21.774s-4.277-15.793-7.509-23.335c-1.759-4.102-8.019-12.531-8.019-12.531       s6.107,8.679,8.002,12.789c4.2,9.104,10.041,31.874,10.041,31.874s4.78-14.603,5.513-21.106       c0.539-4.783,0.754-11.391-0.501-16.039c-1.071-3.962-6.517-12.029-6.517-12.029s5.137,8.412,6.461,12.389       c1.505,4.522-0.05,11.691,2.562,15.678c3.039,4.64,9.991,9.965,15.537,10.024c2.295,0.025,5.021-2.267,6.516-4.009       c2.017-2.353,4.365-6.444,4.009-9.523c-0.235-2.032-4.009-5.513-4.009-5.513s-1.847,4.86-3.164,6.335       c-1.142,1.279-3.334,0.783-4.793-0.118c-1.304-0.806-1.121-4.759-1.363-6.273c-1.194-7.477,3.385-16.285,0.776-22.358       c-0.888-2.068-3.802-7.581-6.38-9.232c-1.687-1.08-8.132-3.94-8.132-3.94s4.292-2.757,5.513-4.511       c2.637-3.784,4.249-9.986,5.012-14.535c0.547-3.262,0-11.026,0-11.026s-10.215,0.338-14.534,1.002       C735.282,46.151,729.603,47.736,729.603,47.736L729.603,47.736z"/>
					<g transform="translate(149.02369,7.1978252)">
						<path class="lion-claw-tooth-eye" d="M525.127,50.679c-1.637,3.721,2.163,8.988,8.487,11.763        c6.324,2.775,12.777,2.008,14.413-1.712c0.002-0.003,0.004-0.007,0.005-0.01c1.636-3.721-2.162-8.988-8.487-11.763        c-6.324-2.776-12.777-2.009-14.414,1.712C525.13,50.672,525.128,50.675,525.127,50.679z"/>
						<path class="lion-claw-tooth-eye" d="M541.272,53.029c0.003,4.422-3.579,8.009-8.001,8.013        c-4.423,0.003-8.01-3.58-8.014-8.002c0-0.003,0-0.007,0-0.011c-0.003-4.422,3.58-8.01,8.002-8.013        c4.422-0.003,8.009,3.579,8.013,8.002C541.272,53.022,541.272,53.025,541.272,53.029z"/>
						<path d="M533.923,46.14c-0.604-0.002-1.145,0.092-1.687,0.156c-1.085,0.127-2,0.312-2,0.312l0.781,3.407        c0,0,0.747-0.147,1.625-0.25c0.878-0.104,1.981,0.044,1.812-0.031c-0.076-0.034,0.633,0.759,0.687,0.937        c0.177,0.572,0.074,2.707-0.212,3.286c-0.1,0.203-0.917,0.921-0.969,0.938c0.26-0.085-0.604-0.01-1.25-0.125        c-0.647-0.115-1.188-0.25-1.188-0.25s-1.771-0.21-2.022,0.368c-0.332,0.767,1.016,2.596,1.016,2.596s0.696,0.164,1.531,0.313        c0.836,0.148,1.686,0.41,2.938,0c1.492-0.488,2.411-1.436,3.031-2.687c0.832-1.68,1.036-3.632,0.468-5.469        c-0.402-1.305-1.102-2.423-2.592-3.094C535.184,46.228,534.526,46.142,533.923,46.14z"/>
						<path class="proper lion-body" d="M532.472,40.772c0,0-2.761,0.43-3.902,0.887c-2.24,0.896-4.5,2.926-4.789,5.321        c-0.151,1.253,0.333,2.317,1.241,3.193c0.977,0.942,2.547,0.826,3.903,0.887c1.985,0.09,4.448-1.473,6.385-1.241        c2.79,0.333,6.407,2.043,8.514,3.902c0.986,0.87,1.203,3.009,2.306,3.725c0.991,0.644,2.846,1.063,3.903,0.532        c1.084-0.546,1.649-2.371,1.951-3.547c0.146-0.567,0.164-1.389,0-1.951c-0.25-0.85-0.984-1.843-1.596-2.483        c-0.767-0.8-3.016-2.129-3.016-2.129"/>
					</g>
					<path class="lion-detail-line" d="M630.676,65.734c0,0,4.855-6.466,7.084-7.39c2.229-0.923,3.065-0.793,3.504,0       s0.304,2.045-1.348,3.678C638.265,63.656,630.676,65.734,630.676,65.734L630.676,65.734z"/>
					<path class="lion-ear-hole" d="M729.188,59.265c0,0,2.727-4.385,4.572-5.462       c2.912-1.698,11.051-2.032,11.051-2.032s1.38,7.074-0.509,9.018c-0.932,0.96-3.498-0.565-4.445,0.381       c-1.245,1.243,0.75,4.613-0.509,5.843c-0.845,0.828-3.937,0.254-3.937,0.254s0.054-5.006-1.27-6.478       C733.101,59.633,729.188,59.265,729.188,59.265z"/>
					<path class="lion-detail-line" d="M721.786,61.848c0,0-5.477,11.054-9.136,14.759c-1.932,1.956-5.107,4.099-7.73,4.92       c-5.035,1.576-18.16,2.472-18.16,2.472l-0.816,1.042c0,0,14.755-3.82,18.977,0c1.57,1.421,1.577,5.098,0.702,7.028       c-0.748,1.652-2.775,3.954-4.33,4.89c-2.423,1.459-8.827,3.234-8.827,3.234"/>
					<path class="lion-detail-line" d="M717.57,118.072c0,0,0.824,8.459,0.001,11.948c-1.3,5.506-3.732,10.266-6.572,15.16       c-1.144,1.972-4.216,6.325-4.216,6.325"/>
					<path class="lion-detail-line" d="M629.016,189.759c0,0-6.335,4.26-8.634,6.808c-1.701,1.885-4.258,7.55-4.258,7.55"/>
					<path class="lion-detail-line" d="M694.377,179.217c0,0-12.231,3.881-17.294,7.333c-2.344,1.597-4.454,4.981-5.669,7.544       c-1.9,4.006-3.04,11.448-3.04,11.448"/>
					<path class="lion-detail-line" d="M693.014,198.29c0,0,6.946-6.828,9.797-9.234c3.844-3.243,11.234-4.974,14.056-9.137       c1.811-2.669,2.109-10.542,2.109-10.542"/>
					<path class="lion-detail-line" d="M627.611,153.916c0,0-0.542,9.613-2.109,13.353c-0.777,1.857-2.659,5.163-4.669,7.462       c-4.014,4.588-8.883,8.035-8.883,8.035"/>
				</g>
			</g>
			<path class="lion-detail-line" d="M-71.218,207.307c0,0,2.223-8.94,4.084-12.641c1.214-2.412,5.622-7.028,5.622-7.028"/>
		</g>
	</g>
</svg>
